<svg xmlns="http://www.w3.org/2000/svg" width="10" height="15.673" viewBox="0 0 10 15.673">
  <g id="Group_46" data-name="Group 46" transform="translate(-1035 -768)">
    <path id="Icon_awesome-caret-down" data-name="Icon awesome-caret-down" d="M1.467,13.5h8.654a.671.671,0,0,1,.474,1.147L6.27,18.976a.674.674,0,0,1-.952,0L.993,14.647A.671.671,0,0,1,1.467,13.5Z" transform="translate(1034.206 764.5)"/>
    <path id="Icon_awesome-caret-down-2" data-name="Icon awesome-caret-down" d="M1.467,13.5h8.654a.671.671,0,0,1,.474,1.147L6.27,18.976a.674.674,0,0,1-.952,0L.993,14.647A.671.671,0,0,1,1.467,13.5Z" transform="translate(1045.794 787.172) rotate(180)"/>
  </g>
</svg>
