<?xml version="1.0" standalone="no"?>
<!DOCTYPE svg PUBLIC "-//W3C//DTD SVG 1.1//EN" "http://www.w3.org/Graphics/SVG/1.1/DTD/svg11.dtd" >
<svg>
<metadata>
Created by FontForge 20090914 at Tue Apr 20 06:16:20 2021
 By www-data
Copyright 2004, SUDTIPOS. Expanded and digitized from the Bluemlein Script collection by Alejandro Paul. All rights reserved.
</metadata>
<defs>
<font id="MrSheffield" horiz-adv-x="321" >
  <font-face 
    font-family="Mr Sheffield"
    font-weight="400"
    font-stretch="normal"
    units-per-em="1000"
    panose-1="2 0 6 5 4 0 0 2 0 4"
    ascent="800"
    descent="-200"
    x-height="139"
    cap-height="711"
    bbox="-452 -799 1474 934.999"
    underline-thickness="50"
    underline-position="-50"
    unicode-range="U+0020-U+FB02"
  />
<missing-glyph horiz-adv-x="200" 
 />
    <glyph glyph-name=".notdef" horiz-adv-x="200" 
 />
    <glyph glyph-name="space" unicode=" " horiz-adv-x="200" 
 />
    <glyph glyph-name="exclam" unicode="!" horiz-adv-x="259" 
d="M329 517c0 -2 -0.333008 -3.66895 -1 -5.00195c-0.666992 -2 -5.66699 -10.833 -15 -26.5l-34.5 -59l-45.5 -79.5l-50 -87.5l-46.5 -83l-35.5 -65.5c-7.33301 -9.33301 -12 -15.166 -14 -17.499s-4.33301 -3.5 -7 -3.5s-4 2.33301 -4 7c0 1.33301 5.16699 12 15.5 32
l39 74.5l50.5 96.5l50.5 96l38.5 73.5c10 19.667 14.667 29.834 14 30.501c4.66699 10.667 9.66699 18 15 22s10.333 6 15 6c4 0 7.5 -1 10.5 -3s4.5 -4.66699 4.5 -8zM67 28.998c0 -6 -2.5 -12.501 -7.5 -19.501s-11.167 -10.5 -18.5 -10.5
c-5.33301 0 -9.33301 1.5 -12 4.5s-4 6.5 -4 10.5c0 6.66699 2.66699 13.334 8 20.001s12.333 10 21 10s13 -5 13 -15z" />
    <glyph glyph-name="quotedbl" unicode="&#x22;" horiz-adv-x="243" 
d="M259 511c0 -2 -0.999023 -5.00098 -2.99902 -9.00098l-55 -71c-1.33301 -3.33301 -4 -5 -8 -5c-4.66699 0 -7 2.66699 -7 8l1 2c0.666992 1.33301 2.5 4.5 5.5 9.5l14.5 24.5l28 47c1.33301 2 2.66602 3.66699 3.99902 5c2.66699 2.66699 5.66699 4 9 4s6 -1.66699 8 -5
s3 -6.66602 3 -9.99902zM206.001 510.999c0 -2 -0.999023 -5.00098 -2.99902 -9.00098l-55 -71c-1.33301 -3.33301 -4 -5 -8 -5c-4.66699 0 -7 2.66699 -7 8l1 2c0.666992 1.33301 2.5 4.5 5.5 9.5l14.5 24.5l28 47c1.33301 2 2.66602 3.66699 3.99902 5
c2.66699 2.66699 5.66699 4 9 4s6 -1.66699 8 -5s3 -6.66602 3 -9.99902z" />
    <glyph glyph-name="numbersign" unicode="#" horiz-adv-x="259" 
d="M254 110c-0.666992 -3.33301 -1.99902 -6 -3.99902 -8s-6.66699 -3.33301 -14 -4c-6 -0.666992 -14.833 -1 -26.5 -1h-37.5l-19 -37h69c1.33301 0 2 -0.666992 2 -2c-1.33301 -2.66699 -2.33301 -5.16699 -3 -7.5s-2.66699 -3.83301 -6 -4.5
c-10.667 0 -22.167 -0.166992 -34.5 -0.5s-24.5 -0.833008 -36.5 -1.5l-34 -64c-2 -2.66699 -3.66699 -4 -5 -4c-2 0 -3.66699 1.16699 -5 3.5s-2 4.5 -2 6.5c10 18 19.667 37.333 29 58c-7.33301 -0.666992 -14.5 -1 -21.5 -1h-20.5l-32 -63
c-2.66699 -2.66699 -4.66699 -4 -6 -4c-2.66699 0 -4.5 1.16699 -5.5 3.5s-1.5 4.5 -1.5 6.5c5.33301 9.33301 10.333 18.833 15 28.5s9 19.167 13 28.5h-48c-7.33301 0 -11.833 0.5 -13.5 1.5s-2.5 2.16699 -2.5 3.5s0.666992 3.5 2 6.5s3.66602 4.5 6.99902 4.5h65
c3.33301 6.66699 6.33301 13 9 19s5.66699 12 9 18h-46c-8 0 -12.833 0.5 -14.5 1.5s-2.5 2.16699 -2.5 3.5c1.33301 1.33301 2.5 3.5 3.5 6.5s3.16699 4.5 6.5 4.5h61l30 55c3.33301 6.66699 6 11 8 13s3.66699 3 5 3c2.66699 0 4.66699 -1 6 -3s2 -4 2 -6l-34 -62h42
c10 20 18.833 36.833 26.5 50.5s13.167 20.5 16.5 20.5c2 0 3.66699 -1 5 -3s2 -4 2 -6l-33 -62h71c2 0 3 -0.666992 3 -2zM155.001 97c-7.33301 -0.666992 -14.333 -1 -21 -1h-20l-19 -36h41z" />
    <glyph glyph-name="dollar" unicode="$" horiz-adv-x="195" 
d="M190 256l-1.50098 -2.49609l-5.5 -9.5l-11.5 -19.5l-19.5 -33.5c8 -2 14.667 -5.5 20 -10.5s8 -12.167 8 -21.5c0 -2 -1.83301 -3.83301 -5.5 -5.5s-7.16699 -2.5 -10.5 -2.5c-4.66699 0 -7 2 -7 6c0 9.33301 -4.33301 15.666 -13 18.999l-18.5 -32l-22.5 -39
c8 -5.33301 15.333 -10.833 22 -16.5s10 -14.167 10 -25.5c0 -10.667 -3.16699 -20.667 -9.5 -30s-14.5 -17.333 -24.5 -24s-20.833 -12 -32.5 -16s-22.834 -6 -33.501 -6l-31 -55c-1.33301 -2.66699 -3.5 -5.5 -6.5 -8.5s-5.5 -4.5 -7.5 -4.5c-4 0 -6 1.33301 -6 4
c0 1.33301 0.333008 2.83301 1 4.5s1.33398 3.16699 2.00098 4.5s4 7 10 17l23 39c-9.33301 1.33301 -17.166 4.66602 -23.499 9.99902s-9.5 13.666 -9.5 24.999c0 15.333 4.33301 29 13 41s16.334 18 23.001 18c2.66699 0 5.5 -0.833008 8.5 -2.5s4.5 -3.5 4.5 -5.5
s-1.66699 -3.83301 -5 -5.5s-6.83301 -4 -10.5 -7s-7.16699 -7.16699 -10.5 -12.5s-5 -12.666 -5 -21.999c0 -14 7.66699 -22.667 23 -26l54 92c-8 5.33301 -15.167 11.666 -21.5 18.999s-9.5 16.666 -9.5 27.999c0 7.33301 2.83301 14 8.5 20s12.834 11.5 21.501 16.5
s18.334 8.83301 29.001 11.5s20.667 4 30 4c9.33301 15.333 16.666 28 21.999 38s8.66602 15.667 9.99902 17c0.666992 2 2 4 4 6c3.33301 3.33301 6.66602 5 9.99902 5c2.66699 0 4 -0.666992 4 -2zM131.999 179.004c-6.66699 0 -13.667 -1 -21 -3s-14 -4.5 -20 -7.5
s-10.833 -6.5 -14.5 -10.5s-5.5 -8.33301 -5.5 -13c0 -8 2.16699 -14.667 6.5 -20s9.5 -10 15.5 -14l20.5 35zM113.999 58.0039c0 6 -2.16699 11.167 -6.5 15.5s-9.5 8.83301 -15.5 13.5l-50 -87c8 0 16.333 1.5 25 4.5s16.5 7 23.5 12s12.667 11 17 18s6.5 14.833 6.5 23.5
z" />
    <glyph glyph-name="percent" unicode="%" horiz-adv-x="381" 
d="M333 100c0 -10 -2.83398 -21.1689 -8.50098 -33.502s-13.5 -23.833 -23.5 -34.5s-21.667 -19.5 -35 -26.5s-27.666 -10.5 -42.999 -10.5c-12 0 -20.667 2.83301 -26 8.5s-8 13.167 -8 22.5c0 10 3 21.333 9 34s14 24.334 24 35.001s21.5 19.667 34.5 27
s26.833 11 41.5 11c12 0 20.833 -3.16699 26.5 -9.5s8.5 -14.166 8.5 -23.499zM301.999 273.998c0 -3.33301 -1.33203 -7 -3.99902 -11l-101.5 -145.5c-31.667 -45.667 -61.834 -94.167 -90.501 -145.5c-2 -4 -4.5 -8 -7.5 -12s-6.16699 -6 -9.5 -6
c-4.66699 0 -7.5 0.833008 -8.5 2.5s-1.5 3.16699 -1.5 4.5c0 3.33301 2 7.66602 6 12.999l195 298c4 5.33301 8.33301 8 13 8c2 0 4 -0.666992 6 -2s3 -2.66602 3 -3.99902zM169 167.998c0 -10 -2.83398 -21.1689 -8.50098 -33.502s-13.5 -23.833 -23.5 -34.5
s-21.667 -19.5 -35 -26.5s-27.666 -10.5 -42.999 -10.5c-12 0 -20.667 2.83301 -26 8.5s-8 13.167 -8 22.5c0 10 3 21.333 9 34s14 24.334 24 35.001s21.5 19.667 34.5 27s26.833 11 41.5 11c12 0 20.833 -3.16699 26.5 -9.5s8.5 -14.166 8.5 -23.499zM312.999 102.996
c0 13.333 -5.99902 19.999 -17.999 19.999c-10 0 -20.167 -3.66699 -30.5 -11s-19.5 -16.166 -27.5 -26.499s-14.667 -21.333 -20 -33s-8 -21.5 -8 -29.5c0 -12 5.66699 -18 17 -18s22.166 3.5 32.499 10.5s19.5 15.5 27.5 25.5s14.5 20.667 19.5 32s7.5 21.333 7.5 30z
M149 170.995c0 13.333 -5.99902 19.999 -17.999 19.999c-10 0 -20.167 -3.66699 -30.5 -11s-19.5 -16.166 -27.5 -26.499s-14.667 -21.333 -20 -33s-8 -21.5 -8 -29.5c0 -12 5.66699 -18 17 -18s22.166 3.5 32.499 10.5s19.5 15.5 27.5 25.5s14.5 20.667 19.5 32
s7.5 21.333 7.5 30z" />
    <glyph glyph-name="ampersand" unicode="&#x26;" horiz-adv-x="717" 
d="M689 -6c0 -6 -2.82227 -11.332 -8.48926 -15.999s-13.334 -8.5 -23.001 -11.5s-20.334 -5.33301 -32.001 -7s-23.5 -2.5 -35.5 -2.5c-22 0 -41.167 4.33301 -57.5 13s-29.833 20.334 -40.5 35.001s-19.167 31.834 -25.5 51.501s-10.5 40.5 -12.5 62.5
c-17.333 -21.333 -36.333 -41.333 -57 -60s-42.5 -35 -65.5 -49s-47.167 -25.167 -72.5 -33.5s-51.666 -12.5 -78.999 -12.5c-19.333 0 -36.666 3.5 -51.999 10.5s-28.333 16.5 -39 28.5s-18.834 25.667 -24.501 41s-8.5 31.333 -8.5 48c0 40.667 9.66699 77.667 29 111
s42.333 63.166 69 89.499s54.334 48.833 83.001 67.5l71 45c2.66699 1.33301 5.16699 2.66602 7.5 3.99902s4.5 2.66602 6.5 3.99902c1.33301 0.666992 0.5 1.5 -2.5 2.5s-5.83301 1.5 -8.5 1.5c-28 2.66699 -48.167 9.33398 -60.5 20.001s-18.5 24 -18.5 40
c0 10.667 2 21.334 6 32.001c-50.667 -16 -99.667 -29 -147 -39s-89 -15 -125 -15c-26 0 -48.5 1.5 -67.5 4.5s-35 6.66699 -48 11s-23.333 8.66602 -31 12.999s-12.834 7.83301 -15.501 10.5c-3.33301 2 -5 6 -5 12c0 3.33301 1.5 6.83301 4.5 10.5s6.16699 5.5 9.5 5.5
c2 0 4.66699 -1 8 -3c23.333 -14 46.666 -23.333 69.999 -28s50.333 -7 81 -7c45.333 0 91.166 4 137.499 12s91.833 18.667 136.5 32c14 26 36 51.5 66 76.5s62.167 47 96.5 66s68 34.333 101 46s59.5 17.5 79.5 17.5c21.333 0 32 -7 32 -21
c0 -10.667 -9.83301 -24 -29.5 -40s-45.834 -32.667 -78.501 -50s-70.167 -35 -112.5 -53s-85.833 -34.667 -130.5 -50c-6 -14 -9 -27.333 -9 -40c0 -15.333 5.5 -27.666 16.5 -36.999s29.167 -14 54.5 -14c7.33301 0 17.166 1.66699 29.499 5s24.666 7 36.999 11
s23.166 7.66699 32.499 11s14.666 5 15.999 5c6 0 9 -2 9 -6c0 -2 -0.5 -4 -1.5 -6s-4 -4.33301 -9 -7s-13 -6 -24 -10s-26.5 -9 -46.5 -15c-26.667 -7.33301 -56.334 -21.333 -89.001 -42s-63.5 -45.5 -92.5 -74.5s-53.333 -60.833 -73 -95.5s-29.5 -69.667 -29.5 -105
c0 -44 9 -75 27 -93s42.667 -27 74 -27c26.667 0 52.167 4.16699 76.5 12.5s47.5 19.833 69.5 34.5s42.5 31.5 61.5 50.5s36.5 39.167 52.5 60.5v25c0 32 2.83301 63.833 8.5 95.5s13 60.167 22 85.5s19.167 45.833 30.5 61.5s22.666 23.5 33.999 23.5
c18.667 0 28 -14.333 28 -43c0 -14 -2.5 -30.667 -7.5 -50s-12 -40 -21 -62s-20.167 -44.667 -33.5 -68s-28.333 -46 -45 -68c2 -22 5.83301 -42.833 11.5 -62.5s13.5 -36.834 23.5 -51.501s22.5 -26.334 37.5 -35.001s32.833 -13 53.5 -13c14 0 26.167 1.33301 36.5 4
s19.166 5.66699 26.499 9s13 6.33301 17 9s6.33301 4 7 4c5.33301 0 8 -2.66699 8 -8zM596.011 709.001c0 8.66699 -7.00098 13 -21.001 13c-15.333 0 -36.666 -5 -63.999 -15s-55.833 -23.5 -85.5 -40.5s-58 -36.667 -85 -59s-47.5 -45.5 -61.5 -69.5
c44 14 85.333 29.333 124 46s72.167 33 100.5 49s50.833 30.667 67.5 44s25 24 25 32zM560.01 382.001c0 17.333 -4.66797 25.999 -14.001 25.999c-10 0 -19.667 -6.66699 -29 -20s-17.833 -30.833 -25.5 -52.5s-13.667 -46.334 -18 -74.001s-6.5 -55.5 -6.5 -83.5v-19
c14.667 21.333 27.834 43 39.501 65s21.5 42.833 29.5 62.5s14 37.834 18 54.501s6 30.334 6 41.001z" />
    <glyph glyph-name="quotesingle" unicode="'" horiz-adv-x="190" 
d="M206 511c0 -2 -0.999023 -5.00098 -2.99902 -9.00098l-55 -71c-1.33301 -3.33301 -4 -5 -8 -5c-4.66699 0 -7 2.66699 -7 8l1 2c0.666992 1.33301 2.5 4.5 5.5 9.5l14.5 24.5l28 47c1.33301 2 2.66602 3.66699 3.99902 5c2.66699 2.66699 5.66699 4 9 4s6 -1.66699 8 -5
s3 -6.66602 3 -9.99902z" />
    <glyph glyph-name="parenleft" unicode="(" horiz-adv-x="317" 
d="M764 775c0 -4 -0.666016 -6.8291 -1.99902 -8.49609s-4.66602 -2.5 -9.99902 -2.5c-50.667 0 -102.167 -13.333 -154.5 -40s-102.833 -61.834 -151.5 -105.501s-94.334 -93.167 -137.001 -148.5s-79.834 -111.5 -111.501 -168.5s-56.667 -112.333 -75 -166
s-27.5 -100.5 -27.5 -140.5c0 -36 8 -64.5 24 -85.5s42 -31.5 78 -31.5c6 0 9 -2 9 -6c0 -2 -1.33301 -4 -4 -6s-6.66699 -3 -12 -3c-38.667 0 -66.667 11.833 -84 35.5s-26 55.5 -26 95.5c0 42.667 8.83301 91.5 26.5 146.5s42.167 111.667 73.5 170
s68.166 115.666 110.499 171.999s87.833 106.666 136.5 150.999s99.834 80 153.501 107s107.167 40.5 160.5 40.5c10 0 16.333 -0.333008 19 -1s4 -2.33398 4 -5.00098z" />
    <glyph glyph-name="parenright" unicode=")" horiz-adv-x="317" 
d="M458 639c0 -42.667 -8.50195 -91.6699 -25.502 -147.003s-40.5 -111.666 -70.5 -168.999s-65.833 -113.5 -107.5 -168.5s-87.167 -104.167 -136.5 -147.5s-101.666 -78.166 -156.999 -104.499s-111.666 -39.5 -168.999 -39.5c-10 0 -16.333 0.333008 -19 1
s-4 2.33398 -4 5.00098c0 4 0.666992 6.83301 2 8.5s4.66602 2.5 9.99902 2.5c54.667 0 108.834 13.167 162.501 39.5s104.667 61.166 153 104.499s93.333 92.333 135 147s77.667 110.334 108 167.001s54 111.667 71 165s25.5 100.333 25.5 141c0 37.333 -8 67 -24 89
s-41.333 33 -76 33c-6 0 -9 2 -9 6c0 2 1.33301 4 4 6s6.66699 3 12 3c40 0 69.167 -13 87.5 -39s27.5 -60.333 27.5 -103z" />
    <glyph glyph-name="asterisk" unicode="*" horiz-adv-x="295" 
d="M249 367c0 -6.66699 -4.66699 -9.99805 -14 -9.99805h-1.5c-1 0 -3 0.333008 -6 1s-7.83301 1.66699 -14.5 3s-16 3.33301 -28 6c12 -17.333 19.167 -28.166 21.5 -32.499s3.5 -7.5 3.5 -9.5c0 -6 -4 -9 -12 -9c-4 0 -7.66699 3 -11 9l-16 37l-23 -37l-3 -3
c-2 -2 -4.66699 -3 -8 -3s-5.83301 1.16699 -7.5 3.5s-2.5 4.5 -2.5 6.5c0 2.66699 0.666992 5 2 7l33 34l-54 4c0.666992 0 -1.16602 0.666992 -5.49902 2s-6.5 3.66602 -6.5 6.99902c0 6.66699 4.33301 10 13 10l51 -11l-14.5 22
c-3.66699 5.33301 -6.33398 9.5 -8.00098 12.5s-2.83398 5 -3.50098 6s-1 1.83301 -1 2.5c0 4.66699 3.66699 7.66699 11 9c6.66699 0 10.667 -2.33301 12 -7l18 -41l24 38l3 3c2 2 4.66699 3 8 3c6.66699 0 10 -3.33301 10 -10
c0 -0.666992 -0.166992 -1.33398 -0.5 -2.00098s-1.66602 -2.33398 -3.99902 -5.00098l-10.5 -12l-20 -22l53 -3c2 0 4 -0.666992 6 -2c4 -2.66699 6 -5 6 -7z" />
    <glyph glyph-name="plus" unicode="+" horiz-adv-x="209" 
d="M183 93c0 -3.33301 -0.833008 -6.66602 -2.5 -9.99902s-3.5 -5 -5.5 -5h-78l-27 -75c-0.666992 -2.66699 -2 -4 -4 -4s-4.16699 1.16699 -6.5 3.5s-3.5 4.83301 -3.5 7.5l12.5 37l10.5 31h-57c-10 0 -16 0.166992 -18 0.5s-3 1.16602 -3 2.49902c0 3.33301 0.5 7 1.5 11
s3.5 6 7.5 6h76l20 60c2.66699 8 5 13.167 7 15.5s3.66699 3.5 5 3.5c2.66699 0 5.16699 -1.16699 7.5 -3.5s3.5 -4.83301 3.5 -7.5l-25 -68h76c2 0 3 -1.66699 3 -5z" />
    <glyph glyph-name="comma" unicode="," horiz-adv-x="182" 
d="M70 20c0 -9.33301 -4.16602 -19.334 -12.499 -30.001s-19 -20.5 -32 -29.5s-27.333 -16.333 -43 -22s-31.167 -8.5 -46.5 -8.5c-4 2.66699 -6 5 -6 7s2.33301 3 7 3l21.5 3.5c10.333 1.66699 20.666 4.66699 30.999 9s19.5 10.333 27.5 18s12 17.834 12 30.501
c0 3.33301 -0.333008 6.16602 -1 8.49902s-1 4.83301 -1 7.5c0 6 2.16699 11 6.5 15s8.83301 6 13.5 6c10.667 0 17.167 -2.16699 19.5 -6.5s3.5 -8.16602 3.5 -11.499z" />
    <glyph glyph-name="hyphen" unicode="-" horiz-adv-x="500" 
d="M354 81c-0.666992 -7.33301 -2.00293 -12.166 -4.00293 -14.499s-4.66699 -3.5 -8 -3.5c-2 0 -9 0.166992 -21 0.5s-25.333 0.5 -40 0.5c-34 0 -68 -1.5 -102 -4.5s-66.333 -4.5 -97 -4.5c-1.33301 0 -2.33301 0.5 -3 1.5s-1 3.83301 -1 8.5s0.833008 7.5 2.5 8.5
s3.16699 1.5 4.5 1.5c6 0 18 0.5 36 1.5s37.5 2 58.5 3s40.833 1.83301 59.5 2.5s31.334 1 38.001 1c1.33301 0.666992 5.33301 1.16699 12 1.5s13.834 0.666016 21.501 0.999023s14.834 0.666016 21.501 0.999023s10.667 0.5 12 0.5c2 0 4.16699 -0.166992 6.5 -0.5
s3.5 -2.16602 3.5 -5.49902z" />
    <glyph glyph-name="period" unicode="." horiz-adv-x="188" 
d="M67 29c0 -6 -2.5 -12.501 -7.5 -19.501s-11.167 -10.5 -18.5 -10.5c-5.33301 0 -9.33301 1.5 -12 4.5s-4 6.5 -4 10.5c0 6.66699 2.66699 13.334 8 20.001s12.333 10 21 10s13 -5 13 -15z" />
    <glyph glyph-name="slash" unicode="/" horiz-adv-x="421" 
d="M574 722c0 -2 -2.6709 -6 -8.00391 -12s-8.66602 -10 -9.99902 -12l-119.5 -180.5l-108.5 -166l-106 -163.5l-110 -173c-5.33301 -9.33301 -9.66602 -16.5 -12.999 -21.5s-8.66602 -7.16699 -15.999 -6.5c-6 0 -10 1 -12 3s-3 4.33301 -3 7
c0 3.33301 2.33301 7.66602 7 12.999l12 14c0.666992 1.33301 7.5 11.833 20.5 31.5l50 76.5l69.5 107l79.5 123l80 124.5l71.5 110.5l52.5 82c13.667 22 21.834 35 24.501 39c4.66699 8.66699 12 13 22 13c3.33301 0 7 -0.666992 11 -2s6 -3.66602 6 -6.99902z" />
    <glyph glyph-name="zero" unicode="0" horiz-adv-x="209" 
d="M189 134c0 -14 -3.83203 -29.502 -11.499 -46.502s-18.334 -32.667 -32.001 -47s-29.667 -26.5 -48 -36.5s-38.166 -15 -59.499 -15c-16.667 0 -28.5 3.83301 -35.5 11.5s-10.5 17.834 -10.5 30.501c0 14 4 29.667 12 47s18.833 33.5 32.5 48.5s29.5 27.5 47.5 37.5
s37 15 57 15c17.333 0 29.666 -4.16699 36.999 -12.5s11 -19.166 11 -32.499zM170.001 134.998c0 9.33301 -2.66797 16.667 -8.00098 22s-13.666 8 -24.999 8c-14 0 -28.167 -4.83301 -42.5 -14.5s-27.5 -21.5 -39.5 -35.5s-21.833 -28.833 -29.5 -44.5
s-11.5 -29.167 -11.5 -40.5c0 -8 2.16699 -14.5 6.5 -19.5s11.5 -7.5 21.5 -7.5c15.333 0 30.5 4.66699 45.5 14s28.667 20.833 41 34.5s22.333 28 30 43s11.5 28.5 11.5 40.5z" />
    <glyph glyph-name="one" unicode="1" horiz-adv-x="159" 
d="M140 170c-14 -17.333 -27.332 -36.0029 -39.999 -56.0029s-24 -38.667 -34 -56c-12 -20 -23 -40 -33 -60c-1.33301 -3.33301 -3.33301 -5.66602 -6 -6.99902s-4.66699 -2 -6 -2c-2.66699 0 -5.16699 0.5 -7.5 1.5s-3.5 3.16699 -3.5 6.5c0.666992 0 1 0.333008 1 1v2v2
c5.33301 10.667 11.833 22.667 19.5 36s15.834 26.833 24.501 40.5l25 39l21 31.5c-8.66699 -6 -17.167 -11.5 -25.5 -16.5s-16.166 -9.16699 -23.499 -12.5l-23 -12c-1.33301 -0.666992 -3 -1 -5 -1c-4 0 -6 2 -6 6c0 6 3.66699 10.667 11 14c10.667 4 22 9 34 15
c10 5.33301 20.667 11.333 32 18s22.666 14.667 33.999 24c0 0.666992 0.666992 1.33398 2 2.00098s3.66602 1 6.99902 1c1.33301 0 3.16602 -0.166992 5.49902 -0.5s3.5 -2.16602 3.5 -5.49902z" />
    <glyph glyph-name="two" unicode="2" horiz-adv-x="202" 
d="M173 153c0 -16.667 -7.16992 -31.6689 -21.5029 -45.002s-30.833 -25.5 -49.5 -36.5l-56 -32c-18.667 -10.333 -32 -21.166 -40 -32.499c8.66699 2.66699 21.167 5.5 37.5 8.5s33.166 4.5 50.499 4.5c9.33301 0 17.833 -1.5 25.5 -4.5s11.5 -7.16699 11.5 -12.5
c0 -6 -2.66699 -9 -8 -9c-3.33301 0 -8.5 1.16699 -15.5 3.5s-19.167 3.5 -36.5 3.5c-21.333 0 -39.666 -1.83301 -54.999 -5.5s-24.666 -5.5 -27.999 -5.5s-5.66602 1 -6.99902 3s-2 4 -2 6c0 6.66699 4.16699 13.5 12.5 20.5s18.833 14.5 31.5 22.5s26.5 16.167 41.5 24.5
s28.833 17.166 41.5 26.499s23.167 18.833 31.5 28.5s12.5 19.5 12.5 29.5c0 7.33301 -2 12.5 -6 15.5s-9 4.5 -15 4.5c-7.33301 0 -15.5 -1.66699 -24.5 -5s-17.333 -7.66602 -25 -12.999s-14.167 -10.833 -19.5 -16.5s-8 -11.167 -8 -16.5
c0 -1.33301 0.5 -2.66602 1.5 -3.99902s4.16699 -2 9.5 -2c8 0 16.333 2 25 6c4 1.33301 6.66699 2 8 2c3.33301 0 5 -1.33301 5 -4c0 -4 -2.66699 -7 -8 -9c-6 -2.66699 -12.333 -4.83398 -19 -6.50098s-13 -2.5 -19 -2.5c-7.33301 0 -13.166 1.33301 -17.499 4
s-6.5 7 -6.5 13c0 6.66699 3.16699 13.834 9.5 21.501s14.5 14.667 24.5 21s21.333 11.5 34 15.5s25.334 6 38.001 6c9.33301 0 17.666 -2 24.999 -6s11 -11.333 11 -22z" />
    <glyph glyph-name="three" unicode="3" horiz-adv-x="184" 
d="M169 155c0 -6 -2.33984 -13.501 -7.00684 -22.501s-12.167 -18.333 -22.5 -28s-23.166 -19 -38.499 -28s-33.333 -16.5 -54 -22.5c16.667 -1.33301 28.834 -5.5 36.501 -12.5s11.5 -15.833 11.5 -26.5c0 -11.333 -4.16699 -23.833 -12.5 -37.5
s-19.666 -26.334 -33.999 -38.001s-31.5 -21.334 -51.5 -29.001s-42 -11.5 -66 -11.5c-1.33301 0 -2 1.33301 -2 4s0.833008 5.66699 2.5 9s4.16699 5 7.5 5l14 -1c17.333 -1.33301 33.166 1 47.499 7s26.5 13.667 36.5 23s17.833 19.5 23.5 30.5s8.5 21.167 8.5 30.5
s-3.33301 17.333 -10 24s-17.667 10 -33 10h-8c-10 0 -15 1.33301 -15 4c0 4.66699 1.5 7.83398 4.5 9.50098s5.16699 2.5 6.5 2.5c22.667 5.33301 42.334 12.166 59.001 20.499s30.334 17 41.001 26s18.667 17.833 24 26.5s8 16 8 22
c0 7.33301 -2.16699 12.666 -6.5 15.999s-9.83301 5 -16.5 5c-7.33301 0 -15.5 -1.66699 -24.5 -5s-17.333 -7.5 -25 -12.5s-14.167 -10.333 -19.5 -16s-8 -11.167 -8 -16.5c0 -1.33301 0.5 -2.66602 1.5 -3.99902s4.16699 -2 9.5 -2c8 0 16.333 2 25 6
c4 1.33301 6.66699 2 8 2c3.33301 0 5 -1.33301 5 -4c0 -3.33301 -2 -6.16602 -6 -8.49902s-8.66699 -4.16602 -14 -5.49902s-10.5 -2.33301 -15.5 -3s-8.5 -1 -10.5 -1c-7.33301 0 -13.166 1.33301 -17.499 4s-6.5 7 -6.5 13s3.5 13 10.5 21s15.833 15.333 26.5 22
s22.334 12.334 35.001 17.001s24.334 7 35.001 7c10 0 18.5 -2.5 25.5 -7.5s10.833 -13.167 11.5 -24.5z" />
    <glyph glyph-name="four" unicode="4" horiz-adv-x="244" 
d="M229 177c0 -2 -2.50098 -6.99902 -7.50098 -14.999l-19.5 -31.5l-28 -44.5l-33 -53c4.66699 0.666992 8.83398 1 12.501 1h10.5c9.33301 0 17.833 -1.5 25.5 -4.5s11.5 -7.16699 11.5 -12.5c0 -6 -2.66699 -9 -8 -9c-3.33301 0 -8.5 1.16699 -15.5 3.5
s-19.167 3.5 -36.5 3.5h-11c-10.667 -18 -20.834 -36.333 -30.501 -55s-18.167 -37 -25.5 -55c-1.33301 -2.66699 -3.16602 -4.66699 -5.49902 -6s-4.5 -2 -6.5 -2c-6.66699 0 -10 3 -10 9c0 3.33301 6 15.5 18 36.5l42 71.5c-12 -0.666992 -24.5 -1.83398 -37.5 -3.50098
s-25 -3 -36 -4s-20.333 -2 -28 -3s-12.167 -1.5 -13.5 -1.5c-6 0 -9 3.33301 -9 10c0 2.66699 0.333008 4.66699 1 6s1.33398 2.33301 2.00098 3l63.5 48l58.5 47.5l48.5 40.5c14.333 12 25.5 21 33.5 27c1.33301 0.666992 3 1.66699 5 3c3.33301 2 6.66602 3 9.99902 3
s7.33301 -1.33301 12 -4s7 -5.66699 7 -9zM201.999 162.001c0 2 -1 3.00195 -3 3.00195h-3c-0.666992 0 -1 -0.333008 -1 -1l-32 -24.5c-10 -7.66699 -20.833 -16.5 -32.5 -26.5l-41 -34.5l-56.5 -48.5c-1.33301 -1.33301 -2.5 -2.33301 -3.5 -3s-1.5 -1.66699 -1.5 -3
c0 -2 2.33301 -3 7 -3c6 1.33301 17.667 3.16602 35 5.49902s35 4.16602 53 5.49902z" />
    <glyph glyph-name="five" unicode="5" horiz-adv-x="197" 
d="M192 166c0 -5.33301 -3.83008 -9.49902 -11.4971 -12.499s-16.167 -4.5 -25.5 -4.5c-17.333 0 -32 1 -44 3s-22.667 4.66699 -32 8c-2.66699 0 -4.66699 -1 -6 -3c-0.666992 -1.33301 -1.33398 -2.33301 -2.00098 -3c-3.33301 -13.333 -7.66602 -26 -12.999 -38
s-10.333 -22.667 -15 -32c-5.33301 -11.333 -11 -21.666 -17 -30.999c6.66699 3.33301 16.167 7.16602 28.5 11.499s24.166 6.5 35.499 6.5c10.667 0 19.667 -2.66699 27 -8s11 -15 11 -29c0 -11.333 -5.16699 -24.833 -15.5 -40.5s-24.166 -30.5 -41.499 -44.5
s-37 -25.833 -59 -35.5s-45 -14.5 -69 -14.5c-2 0 -3 1 -3 3c0 1.33301 0.833008 4.16602 2.5 8.49902s3.83398 6.5 6.50098 6.5h10c19.333 0 37.5 4 54.5 12s32 17.667 45 29s23.333 23.333 31 36s11.5 23.667 11.5 33s-1.66699 15.666 -5 18.999s-8.66602 5 -15.999 5
c-6.66699 0 -14.834 -1.16699 -24.501 -3.5l-33.5 -8.5c-2.66699 -0.666992 -5.16699 -1.16699 -7.5 -1.5s-5.16602 -1.16602 -8.49902 -2.49902c-2 0 -4.5 0.333008 -7.5 1s-4.5 2 -4.5 4c0 1.33301 1.33301 3.33301 4 6c7.33301 9.33301 14.666 21 21.999 35
s13.666 27.667 18.999 41c6.66699 15.333 13 31.333 19 48c0 2 1.16699 4 3.5 6s5.16602 3 8.49902 3s9.16602 -1.83301 17.499 -5.5s23.166 -5.5 44.499 -5.5c17.333 0 29.5 1.16699 36.5 3.5s12.167 3.5 15.5 3.5c5.33301 0 8 -3 8 -9z" />
    <glyph glyph-name="six" unicode="6" horiz-adv-x="217" 
d="M229 253c0 -3.33301 -1.49805 -6.99805 -4.49805 -10.998s-5.16699 -6 -6.5 -6h-9c-24 0 -48 -7 -72 -21s-45.5 -31 -64.5 -51s-34.333 -41 -46 -63s-17.5 -41 -17.5 -57c0 -11.333 3.16699 -20.333 9.5 -27s16.833 -10 31.5 -10c14 0 27.5 4.16699 40.5 12.5
s24.333 18.5 34 30.5s17.334 24.667 23.001 38s8.5 24.666 8.5 33.999c0 13.333 -5.66699 20 -17 20c-7.33301 0 -15.666 -3.16699 -24.999 -9.5s-18.666 -14 -27.999 -23s-17.833 -17.833 -25.5 -26.5s-13.167 -15.667 -16.5 -21
c-6.66699 -9.33301 -11.334 -14 -14.001 -14c-2 0 -3.16699 1.16699 -3.5 3.5s-0.5 4.83301 -0.5 7.5v6c6 11.333 14.333 22.5 25 33.5s22.334 20.833 35.001 29.5s25.167 15.834 37.5 21.501s23.166 8.5 32.499 8.5c7.33301 0 13.166 -1.83301 17.499 -5.5
s6.5 -10.167 6.5 -19.5c0 -12 -4.16699 -26.333 -12.5 -43s-19.333 -32.5 -33 -47.5s-28.834 -27.833 -45.501 -38.5s-33.334 -16 -50.001 -16c-18.667 0 -32 4.16699 -40 12.5s-12 19.166 -12 32.499c0 19.333 7.16699 41.833 21.5 67.5s32.666 50.167 54.999 73.5
s47.5 43.166 75.5 59.499s56 24.5 84 24.5c4 0 6 -1.66699 6 -5z" />
    <glyph glyph-name="seven" unicode="7" horiz-adv-x="184" 
d="M191 169c0 -3.33301 -1.99609 -6.66699 -5.99609 -10c-12 -12.667 -27.5 -27.5 -46.5 -44.5l-59.5 -56c-20.667 -20.333 -40.167 -42.333 -58.5 -66s-32.5 -48.5 -42.5 -74.5c-0.666992 -3.33301 -3.16699 -6.16602 -7.5 -8.49902s-8.16602 -3.5 -11.499 -3.5
c-4.66699 0 -7 2 -7 6c3.33301 14.667 10.666 30.667 21.999 48s24.666 34.666 39.999 51.999s31.5 34.333 48.5 51l46.5 45l35 34c9.33301 9.33301 14 15.333 14 18h1c-5.33301 0.666992 -13.333 1.33398 -24 2.00098s-22.667 1 -36 1h-14
c-4.66699 0 -9.33398 -0.333008 -14.001 -1c-17.333 -2 -29.166 -4.33301 -35.499 -7s-11.166 -4.33398 -14.499 -5.00098c-3.33301 0 -5.5 0.5 -6.5 1.5s-2.16699 3.16699 -3.5 6.5c0 5.33301 3.5 9.83301 10.5 13.5s15.167 6.16699 24.5 7.5c4.66699 0.666992 10 1 16 1
h20c10 0 20.167 -0.166992 30.5 -0.5s20.166 -0.666016 29.499 -0.999023s17.666 -0.833008 24.999 -1.5s12.666 -1.33398 15.999 -2.00098c1.33301 0 2.66602 -0.333008 3.99902 -1c2.66699 -1.33301 4 -3 4 -5z" />
    <glyph glyph-name="eight" unicode="8" horiz-adv-x="208" 
d="M237 272c0 -1.33301 -1.66699 -2.16797 -5 -2.50098s-6.66602 -0.5 -9.99902 -0.5c-40 -2 -69.667 -8.83301 -89 -20.5s-29.333 -26.167 -30 -43.5c-0.666992 -9.33301 1.33301 -17.5 6 -24.5s9.66699 -13.833 15 -20.5c19.333 10 36 20.5 50 31.5s21 23.167 21 36.5
c0 7.33301 -1.83301 12 -5.5 14s-9.16699 3 -16.5 3c-2.66699 0 -4 1.66699 -4 5c0 1.33301 1 2.66602 3 3.99902s6 2 12 2c10.667 0 19 -1.5 25 -4.5s9 -10.167 9 -21.5c0 -15.333 -8.5 -29.5 -25.5 -42.5s-36.833 -25.833 -59.5 -38.5c6.66699 -8 12.5 -16.667 17.5 -26
s7.5 -20.666 7.5 -33.999c0 -14.667 -3.66699 -28.334 -11 -41.001s-16.5 -23.667 -27.5 -33s-23.333 -16.666 -37 -21.999s-26.5 -8 -38.5 -8c-14.667 0 -27.5 4.33301 -38.5 13s-15.833 23 -14.5 43c0.666992 12.667 4.5 24.167 11.5 34.5s16 19.833 27 28.5
s23.167 16.834 36.5 24.501s26.666 14.834 39.999 21.501c-6 7.33301 -11.333 14.666 -16 21.999s-7 16.333 -7 27c0 11.333 3.66699 22.333 11 33s17.333 20 30 28s27.167 14.333 43.5 19s33.833 7 52.5 7c3.33301 0 7 -1.5 11 -4.5s6 -6.16699 6 -9.5zM139 84.998
c0 12 -2.33301 22.168 -7 30.501s-10 16.166 -16 23.499c-12.667 -6.66699 -25 -13.667 -37 -21s-22.833 -15 -32.5 -23s-17.667 -16.333 -24 -25s-9.83301 -17.667 -10.5 -27c0.666992 -15.333 4.83398 -26.166 12.501 -32.499s16.834 -9.5 27.501 -9.5
c9.33301 0 19.166 2.16699 29.499 6.5s19.666 10.333 27.999 18s15.333 16.667 21 27s8.5 21.166 8.5 32.499z" />
    <glyph glyph-name="nine" unicode="9" horiz-adv-x="235" 
d="M193 110c0 -18 -8.00391 -39.1699 -24.0039 -63.5029s-36 -47.5 -60 -69.5s-49.833 -40.5 -77.5 -55.5s-53.5 -22.5 -77.5 -22.5c-2 0 -3 1 -3 3c0 1.33301 0.833008 4.16602 2.5 8.49902s3.83398 6.5 6.50098 6.5h6c20 0 41.667 6.83301 65 20.5
s44.666 29.834 63.999 48.501s35.5 37.334 48.5 56.001s19.5 32.667 19.5 42c-7.33301 -8.66699 -16.666 -17.5 -27.999 -26.5s-23.166 -17.167 -35.499 -24.5s-24.666 -13.5 -36.999 -18.5s-23.166 -7.5 -32.499 -7.5c-8.66699 0 -15.667 2.5 -21 7.5s-8 13.167 -8 24.5
s5.66699 24.833 17 40.5s25.666 30.5 42.999 44.5s36.166 26 56.499 36s39.833 15 58.5 15c3.33301 0 7 -1.5 11 -4.5s6 -6.16699 6 -9.5c0 -1.33301 -1.66699 -2 -5 -2s-6.66602 -0.333008 -9.99902 -1c-18 -2.66699 -36.167 -8.66699 -54.5 -18
s-34.666 -19.666 -48.999 -30.999s-26 -22.833 -35 -34.5s-13.5 -21.5 -13.5 -29.5c0 -12.667 5.66699 -19 17 -19c8 0 17.833 2.83301 29.5 8.5s23.334 12.834 35.001 21.501s22.667 18 33 28s18.5 19.333 24.5 28c4 6.66699 7.66699 11 11 13s6.33301 3 9 3
c1.33301 -0.666992 2.66602 -1.66699 3.99902 -3c2.66699 -2.66699 4 -7.66699 4 -15z" />
    <glyph glyph-name="colon" unicode=":" horiz-adv-x="188" 
d="M118 139c0 -6 -2.5 -12.501 -7.5 -19.501s-11.167 -10.5 -18.5 -10.5c-5.33301 0 -9.33301 1.5 -12 4.5s-4 6.5 -4 10.5c0 6.66699 2.66699 13.334 8 20.001s12.333 10 21 10s13 -5 13 -15zM67 28.999c0 -6 -2.5 -12.501 -7.5 -19.501s-11.167 -10.5 -18.5 -10.5
c-5.33301 0 -9.33301 1.5 -12 4.5s-4 6.5 -4 10.5c0 6.66699 2.66699 13.334 8 20.001s12.333 10 21 10s13 -5 13 -15z" />
    <glyph glyph-name="semicolon" unicode=";" horiz-adv-x="182" 
d="M118 139c0 -6 -2.5 -12.501 -7.5 -19.501s-11.167 -10.5 -18.5 -10.5c-5.33301 0 -9.33301 1.5 -12 4.5s-4 6.5 -4 10.5c0 6.66699 2.66699 13.334 8 20.001s12.333 10 21 10s13 -5 13 -15zM70 19.999c0 -9.33301 -4.16602 -19.334 -12.499 -30.001s-19 -20.5 -32 -29.5
s-27.333 -16.333 -43 -22s-31.167 -8.5 -46.5 -8.5c-4 2.66699 -6 5 -6 7s2.33301 3 7 3l21.5 3.5c10.333 1.66699 20.666 4.66699 30.999 9s19.5 10.333 27.5 18s12 17.834 12 30.501c0 3.33301 -0.333008 6.16602 -1 8.49902s-1 4.83301 -1 7.5c0 6 2.16699 11 6.5 15
s8.83301 6 13.5 6c10.667 0 17.167 -2.16699 19.5 -6.5s3.5 -8.16602 3.5 -11.499z" />
    <glyph glyph-name="less" unicode="&#x3c;" horiz-adv-x="301" 
d="M249 162c0 -5.33301 -6.66797 -10.668 -20.001 -16.001l-180 -76l175 -54c2 -0.666992 3.83301 -2.16699 5.5 -4.5s2.5 -4.16602 2.5 -5.49902s-0.666992 -2 -2 -2c-3.33301 0 -11 1.33301 -23 4s-25.833 6.16699 -41.5 10.5l-50 14l-49 14
c-15 4.33301 -27.667 8.16602 -38 11.499s-16.166 5.33301 -17.499 6c0 0.666992 -0.333008 1.33398 -1 2.00098c-1.33301 1.33301 -2 3 -2 5c0 4 2.33301 7.33301 7 10l222 90c2 0 4 -0.666992 6 -2c4 -2.66699 6 -5 6 -7z" />
    <glyph glyph-name="equal" unicode="=" horiz-adv-x="223" 
d="M195 118c0 -3.33301 -0.666992 -6.66602 -2 -9.99902s-3.33301 -5 -6 -5h-153c-10 0 -16 0.166992 -18 0.5s-3 1.16602 -3 2.49902c0 3.33301 0.5 7 1.5 11s3.5 6 7.5 6h170c2 0 3 -1.66699 3 -5zM176 67c0 -3.33301 -0.666992 -6.66602 -2 -9.99902s-3.33301 -5 -6 -5
h-153c-10 0 -16 0.166992 -18 0.5s-3 1.16602 -3 2.49902c0 3.33301 0.5 7 1.5 11s3.5 6 7.5 6h170c2 0 3 -1.66699 3 -5z" />
    <glyph glyph-name="greater" unicode="&#x3e;" horiz-adv-x="311" 
d="M256 80c0 -4.66699 -1.66699 -8 -5 -10c-2 -1.33301 -4 -2.33301 -6 -3c-1.33301 -0.666992 -7.83301 -2.66699 -19.5 -6s-26.167 -7.16602 -43.5 -11.499l-56 -14l-57 -14c-18 -4.33301 -33.667 -7.83301 -47 -10.5s-22 -4 -26 -4c0 1.33301 0.333008 2.66602 1 3.99902
c2 3.33301 5.66699 6 11 8l205 54l-138 76c-9.33301 4.66699 -14 9 -14 13c0 3.33301 3 6.33301 9 9c2.66699 1.33301 5.66699 2.33301 9 3l174 -90c2 -0.666992 3 -2 3 -4z" />
    <glyph glyph-name="question" unicode="?" horiz-adv-x="337" 
d="M474 498c0 -21.333 -7.99805 -42.1699 -23.998 -62.5029s-36.167 -40.333 -60.5 -60s-50.833 -39.334 -79.5 -59.001s-55.834 -40.167 -81.501 -61.5s-47.667 -43.5 -66 -66.5s-29.166 -47.167 -32.499 -72.5c-0.666992 -3.33301 -1.83398 -5.66602 -3.50098 -6.99902
s-3.16699 -2.66602 -4.5 -3.99902c-2 -1.33301 -4 -2 -6 -2c-6.66699 5.33301 -10 13.666 -10 24.999c0 20.667 8.16699 40.834 24.5 60.501s36.666 39.5 60.999 59.5s50.833 39.833 79.5 59.5s55.167 39.667 79.5 60s44.666 41 60.999 62s24.5 42.833 24.5 65.5
c0 16.667 -5.66699 29.5 -17 38.5s-24.333 15.5 -39 19.5s-28.5 6.33301 -41.5 7s-21.167 1 -24.5 1c-32 0 -62 -5.66699 -90 -17s-52.667 -25.333 -74 -42s-38.166 -34.167 -50.499 -52.5s-18.5 -34.166 -18.5 -47.499c0 -9.33301 3.16699 -16.833 9.5 -22.5
s16.833 -8.5 31.5 -8.5c18.667 0 39.834 3.16699 63.501 9.5s47.167 16.5 70.5 30.5c1.33301 1.33301 2.66602 2.33301 3.99902 3c2.66699 1.33301 5.33398 2 8.00098 2c3.33301 0 5 -1.66699 5 -5c0 -6 -6.33301 -13 -19 -21s-28.167 -15.333 -46.5 -22
s-38.166 -12.334 -59.499 -17.001s-40.666 -7 -57.999 -7c-13.333 0 -23 3.16699 -29 9.5s-9 14.5 -9 24.5c0 16.667 7.16699 36.667 21.5 60s34.166 45.833 59.499 67.5s55 40 89 55s71 22.5 111 22.5c6 0 16.667 -0.5 32 -1.5s31.166 -4.16699 47.499 -9.5
s30.666 -13.666 42.999 -24.999s18.5 -27.666 18.5 -48.999zM107.002 28.9961c0 -6 -2.5 -12.501 -7.5 -19.501s-11.167 -10.5 -18.5 -10.5c-5.33301 0 -9.33301 1.5 -12 4.5s-4 6.5 -4 10.5c0 6.66699 2.66699 13.334 8 20.001s12.333 10 21 10s13 -5 13 -15z" />
    <glyph glyph-name="at" unicode="@" horiz-adv-x="464" 
d="M401 159c0 -18 -4.66699 -36.4971 -14 -55.4971s-21.5 -36.5 -36.5 -52.5s-32 -29 -51 -39s-38.5 -15 -58.5 -15c-16.667 0 -28.667 5.5 -36 16.5s-11 23.5 -11 37.5v6c-10 -8 -20.833 -15.833 -32.5 -23.5s-22.834 -14.667 -33.501 -21s-20.667 -11.333 -30 -15
s-17 -5.5 -23 -5.5c-18.667 0 -28 8.33301 -28 25c0 11.333 4.83301 25 14.5 41s23.167 31.333 40.5 46s37.833 27.167 61.5 37.5s49.834 15.5 78.501 15.5c14.667 0 23.334 -1.33301 26.001 -4s4 -5.33398 4 -8.00098s-0.833008 -5.16699 -2.5 -7.5
s-4.83398 -3.5 -9.50098 -3.5c-5.33301 0.666992 -10 1 -14 1h-11c-24.667 0 -47 -4.16699 -67 -12.5s-37 -18.166 -51 -29.499s-24.833 -23 -32.5 -35s-11.5 -22 -11.5 -30c0 -8.66699 4.33301 -13 13 -13c7.33301 0 16.333 2.5 27 7.5s21.667 10.667 33 17
s21.666 12.833 30.999 19.5l20 14c3.33301 11.333 8.5 21.333 15.5 30s15.833 13 26.5 13c4.66699 0 7 -1.66699 7 -5c0 -4 -3.33301 -9.66699 -10 -17s-15.334 -15.666 -26.001 -24.999c0.666992 -18.667 5.5 -31.834 14.5 -39.501s20.5 -11.5 34.5 -11.5
c14 1.33301 27.667 6.16602 41 14.499s25.166 18.833 35.499 31.5s18.666 26.334 24.999 41.001s9.5 29 9.5 43c0 10 -1.83301 19.667 -5.5 29s-9.66699 17.5 -18 24.5s-19.333 12.5 -33 16.5s-30.167 6 -49.5 6c-40 0 -76.833 -6.5 -110.5 -19.5s-62.667 -29.5 -87 -49.5
s-43.333 -42.167 -57 -66.5s-20.5 -47.833 -20.5 -70.5c0 -14.667 3.16699 -28.5 9.5 -41.5s16 -24.333 29 -34s29.833 -17.334 50.5 -23.001s45.334 -8.5 74.001 -8.5c15.333 0 28 0.666992 38 2s16.667 2 20 2c0.666992 -0.666992 1 -1.33398 1 -2.00098
c0 -2 -2.33301 -5.16699 -7 -9.5s-8.66699 -6.83301 -12 -7.5c-5.33301 -0.666992 -10.5 -1 -15.5 -1h-15.5c-35.333 0 -65.666 3.16699 -90.999 9.5s-46 15 -62 26s-27.833 24 -35.5 39s-11.5 30.833 -11.5 47.5c0 25.333 7.83301 51.5 23.5 78.5s37.334 51.667 65.001 74
s60.334 40.666 98.001 54.999s78.5 21.5 122.5 21.5c47.333 0 81 -8.5 101 -25.5s30 -37.5 30 -61.5z" />
    <glyph glyph-name="A" unicode="A" horiz-adv-x="598" 
d="M733 692c0 -5.33301 -2.00098 -8.00586 -6.00098 -8.00586c-8 2.66699 -16.333 4.5 -25 5.5s-17.667 1.5 -27 1.5c-40 0 -83.833 -10 -131.5 -30s-95.5 -46.667 -143.5 -80s-94.667 -71.666 -140 -114.999s-85.333 -88 -120 -134s-62.5 -92.167 -83.5 -138.5
s-31.5 -88.833 -31.5 -127.5c0 -28 5 -48 15 -60s24 -18 42 -18c20.667 0 45.5 7.33301 74.5 22s60.333 34.334 94 59.001s68.334 53.334 104.001 86.001s70.667 67.167 105 103.5s67 73.5 98 111.5s58.167 74.333 81.5 109c4.66699 7.33301 10.167 13 16.5 17
s11.166 6 14.499 6c5.33301 0 8 -2.66699 8 -8c0 -3.33301 -1.16699 -7.5 -3.5 -12.5s-6.83301 -12.167 -13.5 -21.5c-36.667 -52 -67.167 -99 -91.5 -141s-43.833 -79.5 -58.5 -112.5s-25 -61.833 -31 -86.5s-9 -46 -9 -64c0 -25.333 4.66699 -44.5 14 -57.5
s19.666 -21.833 30.999 -26.5c2 -1.33301 3 -2.66602 3 -3.99902c0 -2 -0.666992 -3.66699 -2 -5s-2.66602 -2 -3.99902 -2c-6.66699 0 -13.667 2.5 -21 7.5s-14 12 -20 21s-10.833 19.5 -14.5 31.5s-5.5 24.667 -5.5 38c0 28.667 5.66699 59.834 17 93.501s24 65.5 38 95.5
c16.667 34.667 35 69.667 55 105c-57.333 -68.667 -110.833 -127.667 -160.5 -177s-95.167 -89.5 -136.5 -120.5s-78.166 -53.833 -110.499 -68.5s-60.166 -22 -83.499 -22c-26.667 0 -46.834 8.66699 -60.501 26s-20.5 42 -20.5 74c0 25.333 5.83301 54 17.5 86
s27.834 65.667 48.501 101s45.334 71.5 74.001 108.5s60.167 72.833 94.5 107.5s70.666 67.167 108.999 97.5s77.833 56.833 118.5 79.5s81.667 40.667 123 54s82 20 122 20c13.333 0 22.666 -3.16699 27.999 -9.5s8 -12.166 8 -17.499z" />
    <glyph glyph-name="B" unicode="B" horiz-adv-x="710" 
d="M856 635c0 -20.667 -8.3291 -44 -24.9961 -70s-39.334 -52 -68.001 -78s-62.334 -50.333 -101.001 -73s-80 -40.667 -124 -54h10c7.33301 0 18 -0.666992 32 -2s28 -4.66602 42 -9.99902s26.167 -13.666 36.5 -24.999s15.5 -26.666 15.5 -45.999
c0 -20.667 -5.5 -41.834 -16.5 -63.501s-25.833 -43 -44.5 -64s-40.334 -41 -65.001 -60s-50.334 -36.167 -77.001 -51.5c6 -0.666992 12.167 -1 18.5 -1h19.5c36 0 70.667 3.83301 104 11.5s63.333 23.167 90 46.5l9 -11c-28 -24.667 -58.5 -41 -91.5 -49
s-72.5 -12 -118.5 -12c-9.33301 0 -18.5 0.166992 -27.5 0.5s-17.833 0.833008 -26.5 1.5c-29.333 -14.667 -58.166 -26.167 -86.499 -34.5s-54.166 -12.5 -77.499 -12.5c-20.667 0 -38.334 3.16699 -53.001 9.5s-26.334 14.333 -35.001 24s-15 20 -19 31s-6 21.5 -6 31.5
s1.83301 18.167 5.5 24.5s8.16699 9.5 13.5 9.5c3.33301 0 8 -1 14 -3s11.667 -4.33301 17 -7c29.333 -13.333 63.666 -25.333 102.999 -36s80.333 -18 123 -22c24.667 13.333 48.5 28.666 71.5 45.999s43.5 36 61.5 56s32.333 40.667 43 62s16 43 16 65
c0 15.333 -2.66699 28 -8 38s-12.5 17.833 -21.5 23.5s-19.333 9.66699 -31 12s-23.834 3.5 -36.501 3.5c-23.333 0 -45.833 -2 -67.5 -6s-37.834 -6 -48.501 -6c-7.33301 0 -11 1.33301 -11 4c0 1.33301 0.833008 2.83301 2.5 4.5s4.16699 2.83398 7.5 3.50098
c55.333 8 106.833 23.167 154.5 45.5s89 47.666 124 75.999s62.333 57.166 82 86.499s29.5 55 29.5 77c0 17.333 -6.33301 31 -19 41s-33 15 -61 15c-43.333 0 -87.333 -8.16699 -132 -24.5s-88.667 -38 -132 -65s-85.5 -58.333 -126.5 -94s-79.5 -72.834 -115.5 -111.501
s-69 -77.334 -99 -116.001s-55.667 -75 -77 -109s-38 -64.167 -50 -90.5s-18 -46.166 -18 -59.499c0 -11.333 4.66699 -17 14 -17c7.33301 0 18.5 8.33301 33.5 25s32.333 38.334 52 65.001s40.334 56.334 62.001 89.001l62.5 96.5c20 31.667 37.833 61.167 53.5 88.5
s27.5 49 35.5 65c3.33301 8 7.66602 12 12.999 12c6.66699 0 10 -2.66699 10 -8v-5c0 -0.666992 -0.333008 -1.33398 -1 -2.00098c-7.33301 -18 -19.166 -41.5 -35.499 -70.5s-35 -59.833 -56 -92.5l-66.5 -99c-23.333 -33.333 -46 -63.333 -68 -90
s-42.167 -48.334 -60.5 -65.001s-32.833 -25 -43.5 -25c-14 0 -21 9.33301 -21 28c0 16.667 5.5 39.167 16.5 67.5s26.667 60.166 47 95.499s45 72.833 74 112.5s61.333 78.834 97 117.501s74.667 75.667 117 111s86.833 66.5 133.5 93.5s95.334 48.5 146.001 64.5
s102.334 24 155.001 24c36 0 61.833 -5.66699 77.5 -17s23.5 -26.666 23.5 -45.999zM424.004 28c-32 4 -61.499 9.33496 -88.499 16.002s-50.167 13.667 -69.5 21c-22.667 8 -43.334 16.667 -62.001 26c-2.66699 0 -4.16699 -1.33301 -4.5 -4s-0.5 -5.33398 -0.5 -8.00098
c0 -32 8.66699 -54.5 26 -67.5s39.666 -19.5 66.999 -19.5c18.667 0 39.334 3.16699 62.001 9.5s46 15.166 70 26.499z" />
    <glyph glyph-name="C" unicode="C" horiz-adv-x="403" 
d="M790 625c0 -16.667 -5.66699 -35.0029 -17 -55.0029s-26.333 -40.167 -45 -60.5s-40 -40.166 -64 -59.499s-48.667 -36.5 -74 -51.5s-50.5 -27 -75.5 -36s-47.833 -13.5 -68.5 -13.5c-17.333 0 -26 10 -26 30c0 17.333 9.5 40.333 28.5 69s52.833 61.334 101.5 98.001
c5.33301 2.66699 10.333 4 15 4c4 0 7.5 -0.666992 10.5 -2s4.5 -3.66602 4.5 -6.99902c0 -4.66699 -7.33301 -13 -22 -25l-48.5 -41.5c-17.667 -15.667 -33.834 -32.5 -48.501 -50.5s-22 -35 -22 -51c0 -7.33301 5.33301 -11 16 -11c17.333 0 36.833 4.16699 58.5 12.5
s43.834 19.5 66.501 33.5s44.834 30 66.501 48s41 36.5 58 55.5s30.667 37.833 41 56.5s15.5 35.667 15.5 51c0 17.333 -7.66699 31.166 -23 41.499s-41.666 15.5 -78.999 15.5c-51.333 0 -102.833 -10.5 -154.5 -31.5s-101.167 -48.5 -148.5 -82.5
s-91.333 -72.667 -132 -116s-76 -87.166 -106 -131.499s-53.667 -87.333 -71 -129s-26 -78.167 -26 -109.5c0 -32.667 10.167 -55.667 30.5 -69s45.5 -20 75.5 -20c22 0 45.5 3 70.5 9s49.667 14 74 24s47.333 21.5 69 34.5s39.834 26.5 54.501 40.5l10 -11
c-45.333 -38 -93.5 -67.667 -144.5 -89s-97.833 -32 -140.5 -32c-38 0 -69.167 9.33301 -93.5 28s-36.5 48 -36.5 88c0 24.667 5.16699 52.334 15.5 83.001s24.666 62.667 42.999 96s40.666 67.166 66.999 101.499s55.5 67.5 87.5 99.5s66.333 62 103 90
s75.167 52.5 115.5 73.5s81.666 37.5 123.999 49.5s84.833 18 127.5 18c42 0 72 -6 90 -18s27 -27.667 27 -47z" />
    <glyph glyph-name="D" unicode="D" horiz-adv-x="735" 
d="M761 210c0 -2 -1.49805 -4.49805 -4.49805 -7.49805s-6.16699 -4.83301 -9.5 -5.5c-5.33301 -0.666992 -10.5 -1 -15.5 -1h-15.5h-26c-18.667 -40.667 -41.834 -76.167 -69.501 -106.5s-57.5 -55.166 -89.5 -74.499s-64.5 -33.833 -97.5 -43.5s-64.167 -14.5 -93.5 -14.5
c-20 0 -38.333 2.16699 -55 6.5s-31.334 10.666 -44.001 18.999s-22.5 18.666 -29.5 30.999s-10.5 26.5 -10.5 42.5v8.5c0 2.33301 0.333008 5.16602 1 8.49902c-22.667 -18.667 -45 -35.667 -67 -51c-18.667 -13.333 -37.5 -25.333 -56.5 -36s-34.5 -16 -46.5 -16
c-8.66699 0 -16 2.33301 -22 7s-9 12.334 -9 23.001c0 26 10 58.333 30 97s45.167 79.5 75.5 122.5s63.833 86.167 100.5 129.5l105 120c-11.333 37.333 -17 72.666 -17 105.999c0 30.667 3.66699 57.167 11 79.5s17.333 40.666 30 54.999s27.667 25 45 32
s35.666 10.5 54.999 10.5c32 0 65.333 -8.5 100 -25.5s66.5 -41 95.5 -72s52.833 -68.167 71.5 -111.5s28 -91.333 28 -144c0 -37.333 -3.16699 -71.666 -9.5 -102.999s-15.166 -60.666 -26.499 -87.999h7c15.333 0 28 0.666992 38 2s16.667 2 20 2
c0.666992 -0.666992 1 -1.33398 1 -2.00098zM703.002 383.002c0 54 -8.83301 102.499 -26.5 145.499s-40 79.5 -67 109.5s-56.5 52.833 -88.5 68.5s-62.333 23.5 -91 23.5c-32.667 0 -60.167 -10.833 -82.5 -32.5s-33.5 -55.167 -33.5 -100.5
c0 -34.667 6.33301 -69.667 19 -105l73.5 76.5c21 21 35.5 35.167 43.5 42.5c2.66699 2.66699 6.66699 4 12 4s10.333 -1.66699 15 -5c1.33301 -0.666992 2 -2 2 -4c0 -3.33301 -1.66699 -6.83301 -5 -10.5l-10 -10.5c-12 -10.667 -28.5 -26.667 -49.5 -48l-70.5 -75
c13.333 -30 30.166 -59.333 50.499 -88s44.333 -54.667 72 -78s58.334 -42.666 92.001 -57.999s70.5 -25 110.5 -29c10.667 25.333 19 52.333 25 81s9 59.667 9 93zM664.002 198.001c-44.667 4.66699 -85.333 14.3311 -122 28.998s-69.167 32.834 -97.5 54.501
s-52.666 46.167 -72.999 73.5s-36.5 55.333 -48.5 84l-105 -121c-36 -43.333 -69 -85.166 -99 -125.499s-54.667 -77.166 -74 -110.499s-29 -58.666 -29 -75.999c0 -6.66699 2.16699 -11.334 6.5 -14.001s9.16602 -4 14.499 -4c16.667 0 34.834 6.33301 54.501 19
s38.5 26.5 56.5 41.5l48 41.5c14 12.667 23.667 19 29 19c2 0 3.16699 -3.33301 3.5 -10s0.5 -13.667 0.5 -21c0 -36 11.5 -62.833 34.5 -80.5s51.833 -26.5 86.5 -26.5c26 0 53.833 4.83301 83.5 14.5s58.667 24 87 43s55.166 42.667 80.499 71s46.333 61.166 63 98.499z
" />
    <glyph glyph-name="E" unicode="E" horiz-adv-x="709" 
d="M805 704c0 -2 -0.830078 -4.00195 -2.49707 -6.00195s-4.16699 -3 -7.5 -3c-5.33301 0.666992 -10.166 1 -14.499 1h-11.5c-30 0 -60.333 -6.83301 -91 -20.5s-58.667 -30.5 -84 -50.5s-46 -41.333 -62 -64s-24 -43.334 -24 -62.001c0 -16 7.16699 -29.167 21.5 -39.5
s38.166 -15.5 71.499 -15.5c21.333 0 40.333 3.16699 57 9.5s27.667 9.5 33 9.5c6 0 9 -3.66699 9 -11c0 -4.66699 -3.66699 -7.66699 -11 -9c-46 -8 -91.333 -24.667 -136 -50s-84.834 -54.833 -120.501 -88.5s-64.334 -68.667 -86.001 -105s-32.5 -69.5 -32.5 -99.5
c0 -37.333 12.667 -64.833 38 -82.5s57 -26.5 95 -26.5c40 0 82.833 8.83301 128.5 26.5s87.5 43.5 125.5 77.5l11 -10c-48.667 -42 -96 -71.833 -142 -89.5s-88 -26.5 -126 -26.5c-24 0 -46 3 -66 9s-37 14.5 -51 25.5s-25 24 -33 39s-12 31.167 -12 48.5
c0 29.333 9.5 60.833 28.5 94.5s43.5 66.167 73.5 97.5s63.333 60 100 86s73 45.667 109 59c-44 0 -75.167 6 -93.5 18s-27.5 27.333 -27.5 46c0 17.333 7 36.5 21 57.5s32.167 41.333 54.5 61s48 37.834 77 54.501s58.5 29.334 88.5 38.001c4 1.33301 6 3 6 5
c0 1.33301 -1.66699 2.16602 -5 2.49902s-9.66602 0.5 -18.999 0.5c-54 0 -105.333 -15 -154 -45s-96.834 -68.5 -144.501 -115.5s-95.834 -99.167 -144.501 -156.5s-100.167 -113.5 -154.5 -168.5s-112.5 -105.5 -174.5 -151.5s-130 -81 -204 -105
c-1.33301 -0.666992 -2.66602 -1 -3.99902 -1s-2 1 -2 3c0 2.66699 1.16699 5.83398 3.5 9.50098s4.16602 5.83398 5.49902 6.50098c46 12 90.667 31.667 134 59s85.5 59.5 126.5 96.5s81.167 77 120.5 120l117.5 129l116 124c38.333 39.667 77.333 75 117 106
s79.834 55.667 120.501 74s82.667 27.5 126 27.5c23.333 0 41.833 -0.666992 55.5 -2s24.167 -2.83301 31.5 -4.5s12.166 -3.66699 14.499 -6s3.5 -4.5 3.5 -6.5z" />
    <glyph glyph-name="F" unicode="F" horiz-adv-x="653" 
d="M850 289c-2 -7.33301 -4.83398 -12.166 -8.50098 -14.499s-8.16699 -3.5 -13.5 -3.5c-6.66699 0 -21.834 0.166992 -45.501 0.5s-51.167 0.5 -82.5 0.5h-41c-14 0 -27.667 -0.333008 -41 -1c-35.333 -44.667 -73.666 -87 -114.999 -127s-85.333 -74.667 -132 -104
c14 -1.33301 28 -2.5 42 -3.5s28 -1.5 42 -1.5c34 0 66.833 4.16699 98.5 12.5s62.5 24.166 92.5 47.499c0.666992 0.666992 1.66699 1 3 1c2.66699 0 4.66699 -1.5 6 -4.5s2 -5.16699 2 -6.5c-32 -26 -64.167 -43.167 -96.5 -51.5s-65.833 -12.5 -100.5 -12.5
c-14 0 -29.167 0.5 -45.5 1.5s-38.5 2.5 -66.5 4.5c-35.333 -20 -71.5 -35.833 -108.5 -47.5s-74.5 -17.834 -112.5 -18.501c-18 0 -36.833 2 -56.5 6s-37.834 10 -54.501 18s-30.5 18 -41.5 30s-16.5 25.667 -16.5 41c0 6 2.16699 12 6.5 18s13.5 9.66699 27.5 11
c8 0 23.5 -1.66699 46.5 -5l82 -11.5l103 -13.5c37 -4.66699 73.5 -8.66699 109.5 -12c46 28 90.167 61.667 132.5 101s81.5 81.333 117.5 126c-48.667 -1.33301 -96.834 -3 -144.501 -5s-93.167 -3 -136.5 -3c-3.33301 0 -5.83301 0.5 -7.5 1.5s-2.5 4.16699 -2.5 9.5
c0.666992 4.66699 2.66699 7.5 6 8.5s6.33301 1.5 9 1.5c8.66699 0 23.834 0.333008 45.501 1s46.334 1.33398 74.001 2.00098s56.834 1.33398 87.501 2.00098s59 1.33398 85 2.00098c28 36 53.5 71.833 76.5 107.5s42.667 69.334 59 101.001s29 60.334 38 86.001
s13.5 46.5 13.5 62.5c0 22 -10.667 33 -32 33c-16.667 0 -38.5 -4.83301 -65.5 -14.5s-59.333 -20.167 -97 -31.5s-80.834 -21.833 -129.501 -31.5s-103 -14.5 -163 -14.5c-2 0 -8.5 0.333008 -19.5 1s-24.5 1.66699 -40.5 3s-32.833 3 -50.5 5s-34.167 4.66699 -49.5 8
s-28 7.16602 -38 11.499s-15 9.16602 -15 14.499c0 1.33301 0.333008 3 1 5s1.33398 4.66699 2.00098 8c2 6 5.66699 9 11 9c24.667 -6.66699 50.667 -13 78 -19c23.333 -5.33301 50.166 -9.83301 80.499 -13.5s61.5 -5.5 93.5 -5.5c47.333 0 92.166 4.33301 134.499 13
s81 18 116 28s65.667 19.333 92 28s47.166 13 62.499 13c13.333 0 24.833 -4.5 34.5 -13.5s14.5 -20.167 14.5 -33.5c0 -18 -4 -40.333 -12 -67s-19.5 -55.667 -34.5 -87s-33.167 -64.5 -54.5 -99.5s-45.333 -70.167 -72 -105.5c13.333 0 25.166 0.166992 35.499 0.5
s18.5 0.5 24.5 0.5c2.66699 0.666992 10.834 1.16699 24.501 1.5s28.334 0.666016 44.001 0.999023s30.334 0.666016 44.001 0.999023s21.834 0.5 24.501 0.5c4 0 8.33301 -0.333008 13 -1s7 -2.66699 7 -6zM309.999 29c-36 3.33301 -71.668 7.16699 -107.001 11.5
s-67.333 8.5 -96 12.5l-96 14c-6 0 -11.333 -1.66699 -16 -5s-7 -8.33301 -7 -15c0 -8 3.33301 -16.167 10 -24.5s16 -15.833 28 -22.5s26.667 -12.167 44 -16.5s36.333 -6.5 57 -6.5c30.667 0 61.334 4.66699 92.001 14s61 22 91 38z" />
    <glyph glyph-name="G" unicode="G" horiz-adv-x="833" 
d="M835 84c-30.667 -26 -64.1689 -42.6748 -100.502 -50.0078s-73.5 -11 -111.5 -11h-34.5c-11 0 -22.167 0.666992 -33.5 2c-30 -17.333 -61.333 -31.5 -94 -42.5s-66 -16.5 -100 -16.5c-24.667 0 -49.334 2.66699 -74.001 8s-46.834 12.5 -66.501 21.5
s-35.5 19.833 -47.5 32.5s-18 26.334 -18 41.001c0 19.333 15.333 29 46 29c10 0 26.333 -2.5 49 -7.5s49.667 -10.667 81 -17s65.833 -12.666 103.5 -18.999s76.834 -11.166 117.501 -14.499c28.667 18.667 54.5 39.834 77.5 63.501s42.667 48 59 73s29 49.5 38 73.5
s13.5 45.333 13.5 64c0 19.333 -4.83301 34.833 -14.5 46.5s-25.167 17.5 -46.5 17.5c-8 0 -16.833 -1.33301 -26.5 -4l-31 -8.5c-11 -3 -22.333 -5.83301 -34 -8.5s-22.834 -4 -33.501 -4c-26 0 -45.167 8.16699 -57.5 24.5s-19.5 37.833 -21.5 64.5
c-48 -45.333 -99.167 -91.166 -153.5 -137.499s-110 -90.333 -167 -132s-114.167 -79.834 -171.5 -114.501s-112.333 -63.334 -165 -86.001l-4 -2c-1.33301 -0.666992 -2.66602 -1 -3.99902 -1h-4c-2 0 -3.66699 0.666992 -5 2c-0.666992 0.666992 -1 1.66699 -1 3
c0 3.33301 5 7.33301 15 12c62 30 123.333 64 184 102s119.167 78 175.5 120s109.833 85 160.5 129s97.334 87 140.001 129c0.666992 23.333 4.5 48.5 11.5 75.5s16.5 53.833 28.5 80.5s26 52.167 42 76.5s33.5 46 52.5 65s39 34.167 60 45.5s42.5 17 64.5 17
c17.333 0 26 -7.33301 26 -22c0 -12.667 -6.33301 -30.5 -19 -53.5s-30.5 -49.333 -53.5 -79s-50.5 -62 -82.5 -97s-67 -71.167 -105 -108.5c-0.666992 -3.33301 -1 -6.66602 -1 -9.99902v-10c0 -23.333 5.33301 -42.166 16 -56.499s27.667 -21.5 51 -21.5
c10.667 0 21.667 1.16699 33 3.5s22.5 5 33.5 8l30.5 8c9.33301 2.33301 17.333 3.5 24 3.5c32.667 0 56.334 -6.83301 71.001 -20.5s22 -31.5 22 -53.5c0 -19.333 -5.16699 -41.166 -15.5 -65.499s-24.5 -49 -42.5 -74s-39.5 -49.667 -64.5 -74
s-52.167 -46.166 -81.5 -65.499c9.33301 -0.666992 18.333 -1 27 -1h27c36.667 0 71.834 4.33301 105.501 13s63.5 23.667 89.5 45c0.666992 0.666992 1.66699 1 3 1c2.66699 0 4.5 -1.66699 5.5 -5s1.5 -5.66602 1.5 -6.99902zM729.998 798.992
c0 8.66699 -4.33301 12.999 -13 12.999c-17.333 0 -37 -10.333 -59 -31s-43.333 -46.834 -64 -78.501s-39.167 -66 -55.5 -103s-27.833 -71.833 -34.5 -104.5c34.667 35.333 66 69 94 101s51.667 61.333 71 88s34.333 49.834 45 69.501s16 34.834 16 45.501z
M530.998 25.9912c-41.333 3.33301 -79.5 8.16699 -114.5 14.5s-66.667 12.5 -95 18.5l-74 16c-21 4.66699 -38.167 7 -51.5 7c-11.333 0 -17 -3.66699 -17 -11c0 -6.66699 4.66699 -15.167 14 -25.5s22 -20.5 38 -30.5s35 -18.5 57 -25.5s45.667 -10.5 71 -10.5
c31.333 0 61.5 4.33301 90.5 13s56.167 20 81.5 34z" />
    <glyph glyph-name="H" unicode="H" horiz-adv-x="572" 
d="M872 748c0 -2.66699 -0.836914 -5.16504 -2.50391 -7.49805s-3.83398 -5.16602 -6.50098 -8.49902l-60 -79l-92.5 -123.5l-107.5 -147l-105 -149.5c17.333 -2 32.333 -3 45 -3h49c6 0 9 -1.33301 9 -4c-1.33301 -2 -3 -4.33301 -5 -7c-3.33301 -4.66699 -6 -7 -8 -7
c-2.66699 -2.66699 -9.66699 -4 -21 -4c-7.33301 0 -18.166 1.16699 -32.499 3.5s-29.5 5.16602 -45.5 8.49902l-22 -32.5l-21 -30.5c7.33301 -22 11 -42.667 11 -62s-3.66699 -37 -11 -53s-16.166 -29.833 -26.499 -41.5s-21.166 -20.667 -32.499 -27s-21 -9.5 -29 -9.5
c-11.333 0 -17 5.66699 -17 17c0 16.667 7.5 40.5 22.5 71.5s34.833 66.5 59.5 106.5c-5.33301 15.333 -12.666 30.666 -21.999 45.999s-21 31 -35 47c-10.667 3.33301 -16 6.66602 -16 9.99902c0 2 1.66699 3 5 3s7.5 -0.833008 12.5 -2.5l16.5 -5.5
c11.333 -4 24.833 -7.66699 40.5 -11s31.834 -6.33301 48.501 -9l95.5 139l102 140.5l96.5 129l79 104.5c1.33301 2 3 3.66699 5 5c4 2.66699 7.33301 4 10 4c3.33301 0 6 -1.16699 8 -3.5s3 -4.83301 3 -7.5zM583.996 694.002c0 -2 -1.32715 -4.66895 -3.99414 -8.00195
l-56 -90.5l-66.5 -110.5l-74 -121l-78.5 -121c-26.667 -39.333 -53.334 -76.333 -80.001 -111s-53 -65.167 -79 -91.5s-51 -47.166 -75 -62.499s-46.667 -23 -68 -23c-22.667 0 -38.5 6.83301 -47.5 20.5s-13.5 30.5 -13.5 50.5c0 19.333 3 40 9 62s13 42.333 21 61
s16 34.167 24 46.5s14 18.5 18 18.5c1.33301 0 2 -2.66699 2 -8c-0.666992 -4 -2.5 -11.167 -5.5 -21.5s-4.5 -23.166 -4.5 -38.499c0 -8.66699 0.5 -15.334 1.5 -20.001s2 -8.66699 3 -12s1.83301 -6.33301 2.5 -9s1 -6 1 -10s-1.66699 -6 -5 -6
c-4.66699 0 -8.16699 3 -10.5 9s-4 12.667 -5 20s-1.83301 14 -2.5 20s-1.33398 9 -2.00098 9s-2.33398 -2.33301 -5.00098 -7c-6.66699 -17.333 -12.834 -35.333 -18.501 -54s-8.5 -36.667 -8.5 -54c0 -8 0.833008 -15.833 2.5 -23.5s4.5 -14.5 8.5 -20.5
s9.16699 -11 15.5 -15s14.5 -6 24.5 -6c22.667 0 48.167 11.833 76.5 35.5s58.333 55.167 90 94.5s64.167 84.166 97.5 134.499l99 155.5l95.5 158.5l85.5 142.5c1.33301 2.66699 3.66602 5.33398 6.99902 8.00098s6.66602 4 9.99902 4c2 0 5 -0.666992 9 -2
s6 -2.66602 6 -3.99902zM465.002 224l-37.998 8.50098c-10.667 2.33301 -17.334 4.16602 -20.001 5.49902c-2.66699 0 -6 1 -10 3c16 -19.333 29.333 -39.333 40 -60l13.5 21.5c4.33301 7 9.16602 14.167 14.499 21.5zM437.004 88.001c0 14 -2 29 -6 45
c-21.333 -34 -38.5 -63.667 -51.5 -89s-19.5 -43.333 -19.5 -54c0 -6.66699 2.33301 -10 7 -10s11 3.16699 19 9.5s15.667 14.5 23 24.5s13.833 21.5 19.5 34.5s8.5 26.167 8.5 39.5z" />
    <glyph glyph-name="I" unicode="I" horiz-adv-x="755" 
d="M1018 686c0 -16.667 -7.33008 -40.168 -21.9971 -70.501s-35.334 -64.666 -62.001 -102.999s-58.5 -79.166 -95.5 -122.499s-77.5 -86 -121.5 -128s-91.167 -81.833 -141.5 -119.5s-101.833 -70.5 -154.5 -98.5v-1c21.333 -3.33301 42.666 -6.16602 63.999 -8.49902
s42.333 -3.5 63 -3.5c38 0 73.833 4.66699 107.5 14s63.834 25.666 90.501 48.999c0.666992 0.666992 1.66699 1 3 1c2.66699 0 4.5 -1.66699 5.5 -5s1.5 -5.66602 1.5 -6.99902c-30 -26 -63.5 -44.333 -100.5 -55s-75.833 -16 -116.5 -16c-20.667 0 -41.167 1 -61.5 3
s-41.166 4.66699 -62.499 8c-7.33301 -24.667 -13.333 -48.834 -18 -72.501s-7.66699 -46.834 -9 -69.501c-0.666992 -11.333 -2.66699 -17 -6 -17c-4 0 -6.66699 2 -8 6c-0.666992 2 -1 4.33301 -1 7c0 23.333 1.83301 47.5 5.5 72.5s9.16699 50.833 16.5 77.5
c-1.33301 0.666992 -3 1 -5 1c-42.667 -20 -85.5 -35.833 -128.5 -47.5s-85.833 -17.5 -128.5 -17.5c-18.667 0 -38 2.33301 -58 7s-38.5 12.167 -55.5 22.5s-31.5 24 -43.5 41s-19.333 37.833 -22 62.5c0 11.333 2.66699 21.166 8 29.499s12.666 12.5 21.999 12.5
c24 0 51.667 -3.33301 83 -10s64.666 -14.667 99.999 -24l110.5 -29.5c38.333 -10.333 76.833 -19.166 115.5 -26.499l9 5c14.667 49.333 34.167 99.833 58.5 151.5s52 102 83 151s64.667 95 101 138s73.666 80.667 111.999 113s77.333 57.833 117 76.5s78.167 28 115.5 28
c6.66699 0 13.167 -1.83301 19.5 -5.5s9.5 -10.167 9.5 -19.5zM1003 682.999c0 9.33301 -6.66992 13.999 -20.0029 13.999c-25.333 0 -54.166 -8.66699 -86.499 -26s-66 -40.833 -101 -70.5s-70.333 -64.834 -106 -105.501s-69.667 -84.167 -102 -130.5
s-62.166 -94.833 -89.499 -145.5s-50 -101 -68 -151c50 28.667 98.667 62.334 146 101.001s92.333 78.834 135 120.501s81.834 83.5 117.501 125.5s66.5 81 92.5 117s46.167 67.333 60.5 94s21.5 45.667 21.5 57zM364 33.998c-36 8 -71.499 16.833 -106.499 26.5l-100 28
c-31.667 9 -61.334 16.5 -89.001 22.5s-52.167 9 -73.5 9c-7.33301 0 -11.833 -3.5 -13.5 -10.5s-2.5 -14.5 -2.5 -22.5c0 -16 4.33301 -30.5 13 -43.5s20.834 -24.167 36.501 -33.5s34.167 -16.5 55.5 -21.5s44.666 -7.5 69.999 -7.5c34 0 68.5 4.66699 103.5 14
s70.5 22.333 106.5 39z" />
    <glyph glyph-name="J" unicode="J" horiz-adv-x="690" 
d="M830 682c0 -12 -6.83105 -34.002 -20.498 -66.002s-32.667 -70.833 -57 -116.5s-53.333 -97 -87 -154l-110.5 -180.5c50.667 12.667 101.334 19.667 152.001 21c9.33301 -0.666992 14 -2 14 -4c0 -6 -4.33301 -10.167 -13 -12.5s-15.667 -3.5 -21 -3.5
c-23.333 0 -47.166 -2.16699 -71.499 -6.5s-49.166 -10.166 -74.499 -17.499l-112.5 -170l-120.5 -171c21.333 3.33301 42.166 8.83301 62.499 16.5s39 15.834 56 24.501s31.833 17.167 44.5 25.5s22 14.833 28 19.5c8 6 15.333 9 22 9c4 0 6 -0.666992 6 -2
c0 -0.666992 -1.33301 -2.33398 -4 -5.00098c-1.33301 -1.33301 -3 -2.66602 -5 -3.99902l-29.5 -19.5c-13.667 -9 -30.167 -18.5 -49.5 -28.5s-40.833 -19.333 -64.5 -28s-48.5 -15 -74.5 -19c-56.667 -78.667 -113.667 -153.5 -171 -224.5s-112.5 -133.5 -165.5 -187.5
s-102.333 -97 -148 -129s-84.834 -48 -117.501 -48c-30.667 0 -52.834 6.83301 -66.501 20.5s-20.5 32.834 -20.5 57.501c0 32.667 11.667 73.334 35 122.001s55.5 101 96.5 157s89.333 113.333 145 172s115.834 114.667 180.501 168c-12 30 -18 63.667 -18 101
c0 46.667 8.5 97 25.5 151s40.833 108 71.5 162s67.667 106.167 111 156.5s91.666 94.666 144.999 132.999s110.666 69.166 171.999 92.499s125.333 35 192 35c15.333 0 29.666 -3.5 42.999 -10.5s20 -19.167 20 -36.5zM811.002 682.998
c0 8 -2.83008 15.166 -8.49707 21.499s-16.834 9.5 -33.501 9.5c-60.667 0 -119.834 -11.833 -177.501 -35.5s-112.334 -55 -164.001 -94s-99.167 -83.667 -142.5 -134s-80.5 -102.5 -111.5 -156.5s-55.333 -107.667 -73 -161s-26.5 -102.333 -26.5 -147
c0 -26 3.66699 -51 11 -75c68 54 138.5 102.333 211.5 145s146.5 75.334 220.5 98.001l117 187c36 59.333 67.167 112.666 93.5 159.999s46.833 86.833 61.5 118.5s22 52.834 22 63.501zM501.005 128.997c-67.333 -23.333 -135.333 -56.333 -204 -99
s-135.667 -90.667 -201 -144c13.333 -28 34 -49.833 62 -65.5s64.333 -23.5 109 -23.5h7l117 166.5zM258.005 -214.003c-44 0 -80.665 7.83301 -109.998 23.5s-51.666 36.834 -66.999 63.501c-62.667 -52 -121.334 -106.5 -176.001 -163.5s-102.334 -112.333 -143.001 -166
s-72.667 -103.334 -96 -149.001s-35 -83.5 -35 -113.5c0 -20 6 -35.833 18 -47.5s30.667 -17.5 56 -17.5c18.667 0 40.334 7 65.001 21s51.667 33.667 81 59s60.666 55.5 93.999 90.5s67.666 73.667 102.999 116l108 135.5l110 148h-8z" />
    <glyph glyph-name="K" unicode="K" horiz-adv-x="502" 
d="M839 715c0 -5.33301 -7.33496 -16.333 -22.002 -33s-35.334 -36.167 -62.001 -58.5s-58.5 -45.833 -95.5 -70.5s-77.5 -48 -121.5 -70s-91.167 -41 -141.5 -57s-101.833 -26.333 -154.5 -31l-44 -65.5l-43 -65.5c14 -33.333 32.5 -67.833 55.5 -103.5
s50.167 -68.334 81.5 -98.001s66.833 -54 106.5 -73s83.167 -28.5 130.5 -28.5c20.667 0 40 1.5 58 4.5s34 6.16699 48 9.5s25.667 6.5 35 9.5s15.333 4.5 18 4.5c6 0 9 -2 9 -6c0 -2 -1.33301 -3.66699 -4 -5s-8.66699 -3.66602 -18 -6.99902s-21.333 -6.83301 -36 -10.5
s-31.5 -7 -50.5 -10s-39.5 -4.5 -61.5 -4.5c-46 0 -89 8.83301 -129 26.5s-76.5 40.5 -109.5 68.5s-62.167 59.333 -87.5 94s-46.333 69 -63 103l-70.5 -109l-72.5 -114c-5.33301 -9.33301 -9.66602 -16.5 -12.999 -21.5s-8.66602 -7.16699 -15.999 -6.5c-6 0 -10 1 -12 3
s-3 4.33301 -3 7c0 3.33301 1.16699 7.33301 3.5 12s5.16602 9 8.49902 13c0.666992 1.33301 5.5 8.66602 14.5 21.999l35 53l50.5 77.5l62 93.5c-11.333 25.333 -19.666 49.333 -24.999 72s-8 42.334 -8 59.001c0 10.667 3 16 9 16c14.667 -2 29.167 -3.83301 43.5 -5.5
s28.833 -2.16699 43.5 -1.5l29 1l72 110.5l62.5 95.5l45.5 69.5c12 18.333 19 29.5 21 33.5c4.66699 8.66699 12 13 22 13c3.33301 0 7 -0.666992 11 -2s6 -3.66602 6 -6.99902c0 -2 -0.833008 -4.33301 -2.5 -7l-4.5 -7l-102.5 -153.5l-95.5 -143.5
c56 5.33301 109.833 17.666 161.5 36.999s100.834 43 147.501 71s91 59.5 133 94.5s81 71.167 117 108.5c6 6 10.667 9 14 9s6.5 -1.83301 9.5 -5.5s4.5 -7.16699 4.5 -10.5zM187.998 393c-19.333 0 -38.999 1 -58.999 3c-4 0 -6 -2 -6 -6c0 -11.333 1.5 -25 4.5 -41
s8.16699 -33.667 15.5 -53l31.5 48.5c10.333 16.333 21.166 32.5 32.499 48.5h-19z" />
    <glyph glyph-name="L" unicode="L" horiz-adv-x="735" 
d="M938 712c0 -12.667 -9.66797 -28.665 -29.001 -47.998s-45.5 -39.666 -78.5 -60.999s-71.167 -42.666 -114.5 -63.999s-89 -40 -137 -56c-34 -46 -67.667 -94.333 -101 -145s-67.666 -99.334 -102.999 -146.001c42 -3.33301 80.333 -11.166 115 -23.499
s64.167 -28.333 88.5 -48s43.166 -42.5 56.499 -68.5s20 -54 20 -84c0 -10 -1.66699 -22.167 -5 -36.5s-7.83301 -28 -13.5 -41s-11.834 -24.167 -18.501 -33.5s-13.667 -14 -21 -14c-2.66699 0 -4 1.33301 -4 4c0 3.33301 1.33301 6.33301 4 9
c5.33301 4.66699 9.83301 11.334 13.5 20.001s6.83398 17.667 9.50098 27s4.66699 18.5 6 27.5s2 16.833 2 23.5c0 35.333 -7 66.166 -21 92.499s-33.167 48.5 -57.5 66.5s-52.5 32.167 -84.5 42.5s-66 17.166 -102 20.499c-24 -30.667 -48.5 -59.334 -73.5 -86.001
s-50.5 -49.834 -76.5 -69.501s-52.833 -35.167 -80.5 -46.5s-56.167 -17 -85.5 -17c-28.667 0 -49.667 4.66699 -63 14s-20 21.333 -20 36c0 17.333 8.83301 36.833 26.5 58.5s42.667 42 75 61s71.333 35 117 48s96.167 19.5 151.5 19.5h9c34 44 67.667 90 101 138l102 141
c-37.333 -11.333 -74.5 -20.333 -111.5 -27s-73.5 -10 -109.5 -10c-32 0 -57.5 2.83301 -76.5 8.5s-33.833 12.167 -44.5 19.5c-12 8 -21 17 -27 27c0 3.33301 1.83301 5.83301 5.5 7.5s6.83398 2.5 9.50098 2.5h4c0.666992 0 1.33398 -0.333008 2.00098 -1l10 -7
c6.66699 -4.66699 16.5 -9.83398 29.5 -15.501s29.167 -10.667 48.5 -15s41.666 -6.5 66.999 -6.5c34 0 68.333 3 103 9s69 14.333 103 25c26 34 52.333 66 79 96s53.5 56.167 80.5 78.5s54.667 40 83 53s56.833 19.5 85.5 19.5c18 0 31 -2.33301 39 -7s12 -10.667 12 -18z
M903.999 704.002c0 10 -8.66504 15.002 -25.998 15.002c-25.333 0 -50.333 -5.66699 -75 -17s-48.834 -26.666 -72.501 -45.999s-47 -42.333 -70 -69s-45.833 -55.334 -68.5 -86.001c43.333 15.333 83.833 32.666 121.5 51.999s70.667 38.666 99 57.999
s50.666 37.333 66.999 54s24.5 29.667 24.5 39zM331.001 178.004c-4 0.666992 -8.16602 0.999023 -12.499 0.999023h-12.5c-42.667 0 -83.667 -6.16699 -123 -18.5s-74 -27.333 -104 -45s-54 -36.167 -72 -55.5s-27 -36.666 -27 -51.999c0 -11.333 5.66699 -20.5 17 -27.5
s29.666 -10.5 54.999 -10.5c24 0 47.667 5.33301 71 16s46.5 25.334 69.5 44.001s46.167 40.667 69.5 66s46.333 52.666 69 81.999z" />
    <glyph glyph-name="M" unicode="M" horiz-adv-x="1112" 
d="M1114 84c-8.66699 -10.667 -20.833 -22.166 -36.5 -34.499s-32.667 -23.833 -51 -34.5s-37.166 -19.5 -56.499 -26.5s-37 -10.5 -53 -10.5c-19.333 0 -35 6 -47 18s-18 32.667 -18 62c0 13.333 2.83301 31.333 8.5 54s12 46.667 19 72s13.333 50.166 19 74.499
s8.5 44.5 8.5 60.5c0 13.333 -2.66699 24 -8 32s-14.666 12 -27.999 12c-24 0 -51.5 -9.66699 -82.5 -29s-62.5 -43.333 -94.5 -72c-18.667 -37.333 -38.667 -72.833 -60 -106.5s-42 -63.334 -62 -89.001s-38.5 -46 -55.5 -61s-30.5 -22.5 -40.5 -22.5
c-11.333 0 -17 5.33301 -17 16s5.66699 25.834 17 45.501s26.666 41.5 45.999 65.5s41.5 49 66.5 75s51.167 50.667 78.5 74c12 24 23 48.667 33 74s18.833 50.166 26.5 74.499s13.667 48.166 18 71.499s6.5 45.333 6.5 66s-2.5 39.667 -7.5 57s-12.833 32.166 -23.5 44.499
s-24.667 22 -42 29s-38.666 10.5 -63.999 10.5s-53.333 -5.33301 -84 -16c-11.333 -55.333 -26 -110.833 -44 -166.5s-38.667 -109 -62 -160s-48.833 -98.5 -76.5 -142.5s-56.667 -82.167 -87 -114.5s-61.666 -57.666 -93.999 -75.999s-64.5 -27.5 -96.5 -27.5
c-35.333 0 -60.666 8.16699 -75.999 24.5s-23 38.5 -23 66.5c0 27.333 6.83301 58.833 20.5 94.5s32.667 73 57 112s53.166 78.333 86.499 118s69.333 77 108 112s79.5 66.5 122.5 94.5s86.167 49.667 129.5 65c9.33301 44 16.333 86.333 21 127s7 78.334 7 113.001
c0 16.667 4.33301 25 13 25c8 -1.33301 13 -4.83301 15 -10.5s3 -12.167 3 -19.5v-13c0 -34 -1.83301 -68.5 -5.5 -103.5s-9.16699 -70.5 -16.5 -106.5c15.333 4 30.666 7.16699 45.999 9.5s30.666 3.5 45.999 3.5c28.667 0 52.834 -3.66699 72.501 -11
s35.667 -17.666 48 -30.999s21.166 -29.166 26.499 -47.499s8 -38.5 8 -60.5c0 -36.667 -6.5 -76.667 -19.5 -120s-29.833 -87 -50.5 -131c31.333 24 61.5 43.5 90.5 58.5s54.5 22.5 76.5 22.5c20 0 33.833 -4.66699 41.5 -14s11.5 -22 11.5 -38
s-2.83301 -35.833 -8.5 -59.5s-12 -48.167 -19 -73.5s-13.333 -50.333 -19 -75s-8.5 -46.334 -8.5 -65.001s4.16699 -31.834 12.5 -39.501s19.166 -11.5 32.499 -11.5c14 0 29.833 3.33301 47.5 10s35.167 14.834 52.5 24.501s33.5 20.167 48.5 31.5s27.167 21.333 36.5 30z
M646.001 217.001c-22 -22 -43.166 -44.5 -63.499 -67.5s-38 -44.167 -53 -63.5s-27 -36 -36 -50s-13.5 -23.333 -13.5 -28c0 -2 1 -3 3 -3c7.33301 0 17 5.5 29 16.5s25.333 26 40 45s30.167 41.5 46.5 67.5s32.166 53.667 47.499 83zM491.002 655.001
c-38 -17.333 -76.665 -40.334 -115.998 -69.001s-77.333 -60.5 -114 -95.5s-71.334 -72 -104.001 -111s-61.167 -77.333 -85.5 -115s-43.5 -73.5 -57.5 -107.5s-21 -63.333 -21 -88c0 -22 6.33301 -39.5 19 -52.5s33.334 -19.5 62.001 -19.5
c31.333 0 61.833 9.16699 91.5 27.5s58.167 43.5 85.5 75.5s53.166 69.333 77.499 112s46.666 88.334 66.999 137.001s38.5 99.167 54.5 151.5s29.667 103.833 41 154.5z" />
    <glyph glyph-name="N" unicode="N" horiz-adv-x="646" 
d="M648 84c-8.66699 -10.667 -20.8301 -22.4951 -36.4971 -35.4951s-32.834 -25.333 -51.501 -37s-37.667 -21.334 -57 -29.001s-37 -11.5 -53 -11.5c-18.667 0 -34 6.5 -46 19.5s-18 35.5 -18 67.5c0 21.333 3.83301 47 11.5 77s16.334 60.5 26.001 91.5
s18.334 60.5 26.001 88.5s11.5 50.333 11.5 67c0 19.333 -6.33301 29 -19 29c-10 0 -23.167 -4.33301 -39.5 -13s-34.166 -20.334 -53.499 -35.001s-39.833 -31.667 -61.5 -51s-43.167 -39.666 -64.5 -60.999c-16.667 -34 -34.167 -66.833 -52.5 -98.5
s-36 -59.834 -53 -84.501s-32.833 -44.334 -47.5 -59.001s-26.667 -22 -36 -22c-6 0 -9 3.33301 -9 10c0 10.667 4.66699 25.167 14 43.5s22 38.833 38 61.5s34.667 46.5 56 71.5s43.666 49.833 66.999 74.5c12.667 24 24.667 48.167 36 72.5s21.166 47.833 29.499 70.5
s15 44.167 20 64.5s7.5 38.166 7.5 53.499c0 35.333 -10 64.833 -30 88.5s-45.667 44.667 -77 63s-65.5 35.333 -102.5 51s-72.833 32.667 -107.5 51s-65.334 39.666 -92.001 63.999s-45 54.166 -55 89.499c0 2 1 4 3 6c3.33301 3.33301 9.66602 5 18.999 5
c4.66699 0 7.66699 -2.33301 9 -7c13.333 -34.667 33.666 -63.834 60.999 -87.501s57.5 -44.5 90.5 -62.5s67.167 -34.833 102.5 -50.5s67.333 -32.667 96 -51s52.334 -39.666 71.001 -63.999s28 -54.166 28 -89.499c0 -26.667 -6.5 -60.334 -19.5 -101.001
s-29.5 -83 -49.5 -127c20 18.667 39.833 36.167 59.5 52.5s38.5 30.666 56.5 42.999s34.833 22 50.5 29s29.5 10.5 41.5 10.5c12.667 0 21.5 -3.5 26.5 -10.5s7.5 -16.833 7.5 -29.5c0 -17.333 -3.83301 -39.166 -11.5 -65.499l-25.5 -84.5
c-9.33301 -30 -17.833 -60.833 -25.5 -92.5s-11.5 -61.5 -11.5 -89.5c0 -22 4.16699 -37.5 12.5 -46.5s19.166 -13.5 32.499 -13.5c14 0 29.833 3.83301 47.5 11.5s35.167 16.834 52.5 27.501s33.5 22.167 48.5 34.5s27.167 22.833 36.5 31.5zM174.004 200.005
c-18 -19.333 -34.667 -38.334 -50 -57.001s-28.833 -36 -40.5 -52s-20.834 -30.167 -27.501 -42.5s-10 -22.166 -10 -29.499c0 -2 1 -3 3 -3c2.66699 0 8 4.83301 16 14.5s17.833 22.834 29.5 39.501s24.334 36.167 38.001 58.5s27.5 46.166 41.5 71.499z" />
    <glyph glyph-name="O" unicode="O" horiz-adv-x="513" 
d="M758 665c0 -14 -2.83301 -31.4941 -8.5 -52.4941s-14 -44.167 -25 -69.5s-24.333 -52.5 -40 -81.5s-33.5 -58.5 -53.5 -88.5c1.33301 -13.333 3.33301 -25.833 6 -37.5s6.66699 -22.834 12 -33.501c0.666992 -1.33301 1 -3.66602 1 -6.99902c0 -4 -1 -6 -3 -6
s-4.66699 2.66699 -8 8c-8.66699 16 -15 35.667 -19 59c-31.333 -46.667 -66.833 -92.5 -106.5 -137.5s-82 -85.167 -127 -120.5s-92 -64 -141 -86s-98.833 -33 -149.5 -33c-36.667 0 -63.334 8.66699 -80.001 26s-25 40.666 -25 69.999c0 33.333 9.33301 72.166 28 116.499
s44.167 90.166 76.5 137.499s70 94 113 140s88.5 87.167 136.5 123.5s97.333 65.666 148 87.999s100 33.5 148 33.5c10 0 16.333 -0.333008 19 -1s4 -2.33398 4 -5.00098c0 -4 -0.666992 -6.83301 -2 -8.5s-4.66602 -2.5 -9.99902 -2.5c-41.333 0 -86 -11.167 -134 -33.5
s-95.833 -51.5 -143.5 -87.5s-93.5 -76.5 -137.5 -121.5s-82.833 -90.667 -116.5 -137s-60.667 -90.833 -81 -133.5s-30.5 -79.334 -30.5 -110.001c0 -24.667 7.33301 -44.167 22 -58.5s38.667 -21.5 72 -21.5c46.667 0 93.667 12.167 141 36.5s93.333 55.666 138 93.999
s87 81.5 127 129.5s75.667 95.667 107 143v9c0 2.66699 -0.166992 5.33398 -0.5 8.00098s-0.5 4.66699 -0.5 6c0 32 3.16699 64.667 9.5 98s15 63.5 26 90.5s23.5 49.167 37.5 66.5s29 26 45 26c16.667 0 25 -12 25 -36zM743 668.006c0 14 -4.66699 21 -14 21
c-8.66699 0 -18.5 -8.16699 -29.5 -24.5s-21.5 -37.5 -31.5 -63.5s-18.5 -55 -25.5 -87s-11.167 -63.667 -12.5 -95c35.333 54.667 63 104.5 83 149.5s30 78.167 30 99.5z" />
    <glyph glyph-name="P" unicode="P" horiz-adv-x="387" 
d="M890 623c0 -22.667 -7.00586 -47.8271 -21.0059 -75.4941s-33.5 -55.334 -58.5 -83.001s-54.333 -54 -88 -79s-70.5 -46.167 -110.5 -63.5c26 -2 53.333 -3 82 -3c3.33301 0 6.33301 -1.16699 9 -3.5s4 -4.16602 4 -5.49902s-1.66699 -2 -5 -2
c-21.333 0 -41.5 0.333008 -60.5 1s-36.833 1.66699 -53.5 3c-25.333 -9.33301 -51.166 -16.833 -77.499 -22.5s-53.166 -8.5 -80.499 -8.5c-25.333 0 -45.166 4.5 -59.499 13.5s-21.5 18.167 -21.5 27.5c0 7.33301 4.33301 13.5 13 18.5s22.334 7.5 41.001 7.5
c11.333 0 33.166 -2.83301 65.499 -8.5s70.833 -10.834 115.5 -15.501c38.667 16 74.5 36.5 107.5 61.5s61.5 51.667 85.5 80s42.833 56.5 56.5 84.5s20.5 53 20.5 75c0 20 -6.33301 36.167 -19 48.5s-33.334 18.5 -62.001 18.5c-42.667 0 -86 -8.66699 -130 -26
s-87.833 -40.5 -131.5 -69.5s-86.167 -62.167 -127.5 -99.5s-80.166 -76 -116.499 -116s-69.833 -79.833 -100.5 -119.5s-57.167 -76.334 -79.5 -110.001s-39.666 -62.834 -51.999 -87.501s-18.5 -42 -18.5 -52c0 -5.33301 2 -8 6 -8c10 0 23.833 7.83301 41.5 23.5
s37.334 36.167 59.001 61.5s44.5 54.166 68.5 86.499s47 65.166 69 98.499s42.167 65.833 60.5 97.5s32.833 59.167 43.5 82.5c1.33301 2 2.83301 3.16699 4.5 3.5s3.16699 0.5 4.5 0.5c4 0 6 -3.33301 6 -10c0 -14.667 -7.5 -36.334 -22.5 -65.001
s-34.167 -60.334 -57.5 -95.001s-49.166 -70 -77.499 -106s-56 -68.833 -83 -98.5s-51.5 -54 -73.5 -73s-38 -28.5 -48 -28.5c-10.667 0 -16 7 -16 21c0 14.667 6 36 18 64s28.833 59.833 50.5 95.5s47.667 73.834 78 114.501s63.833 81.167 100.5 121.5s76 79 118 116
s85.5 69.5 130.5 97.5s91 50.5 138 67.5s93.833 25.5 140.5 25.5c40 0 69 -7.66699 87 -23s27 -35 27 -59zM558.994 314.007c-40 4 -72.833 8.5 -98.5 13.5s-46.5 7.5 -62.5 7.5c-20 0 -30 -4.33301 -30 -13c0 -6 6.16699 -12.167 18.5 -18.5s30.166 -9.5 53.499 -9.5
c40.667 0 80.334 6.66699 119.001 20z" />
    <glyph glyph-name="Q" unicode="Q" horiz-adv-x="476" 
d="M645 689c-1.33301 -4 -3.66699 -6.66992 -7 -8.00293s-6 -2 -8 -2c-3.33301 0 -7.5 0.833008 -12.5 2.5s-15.167 2.5 -30.5 2.5c-42 0 -84.167 -7.33301 -126.5 -22s-83.166 -33.834 -122.499 -57.501s-76 -50.167 -110 -79.5s-63.667 -58.666 -89 -87.999
s-45.333 -57.166 -60 -83.499s-22 -48.166 -22 -65.499c0 -24.667 14.667 -37 44 -37c19.333 0 43 5.83301 71 17.5s58 27 90 46s64.667 40.833 98 65.5s65.166 49.834 95.499 75.501s58 51.167 83 76.5s44.5 48.333 58.5 69c4.66699 4 9.33398 6 14.001 6
c1.33301 0 3.16602 -0.833008 5.49902 -2.5s3.5 -3.5 3.5 -5.5c0 -3.33301 -1.66699 -7.33301 -5 -12l-6 -8c-40 -72.667 -88 -148.834 -144 -228.501l-168 -240.5c8 -0.666992 16.333 -1.16699 25 -1.5s17.667 -0.5 27 -0.5c19.333 0 35 1.16699 47 3.5
s20.667 4.16602 26 5.49902c2.66699 0.666992 4.83398 1.16699 6.50098 1.5s3.16699 0.5 4.5 0.5c4 0 6 -2 6 -6c0 -2 -1.66699 -3.66699 -5 -5c-2.66699 -1.33301 -10.167 -3.33301 -22.5 -6s-31.5 -4 -57.5 -4c-22.667 0 -43.667 1 -63 3
c-5.33301 -7.33301 -10.5 -14.833 -15.5 -22.5s-10.167 -15.167 -15.5 -22.5c0.666992 -6.66699 1.16699 -13.167 1.5 -19.5s0.5 -13.166 0.5 -20.499c0 -44.667 -5.33301 -87.5 -16 -128.5s-24.667 -79.167 -42 -114.5s-36.666 -67.5 -57.999 -96.5
s-42.666 -53.667 -63.999 -74s-41.666 -36 -60.999 -47s-35.333 -16.5 -48 -16.5c-18 0 -27 10.667 -27 32c0 16 8.33301 40.833 25 74.5s38.667 73 66 118s58.666 93.833 93.999 146.5l108 160c-1.33301 7.33301 -2.83301 14.666 -4.5 21.999s-3.83398 14.333 -6.50098 21
c-41.333 11.333 -73.333 25.333 -96 42s-34 30.667 -34 42s10 17 30 17c30 0 54.667 -8.66699 74 -26s34 -40.333 44 -69c4 -1.33301 7.83301 -2.33301 11.5 -3l11.5 -2l71 104l66.5 97l57.5 86c17.333 26.667 32 50.334 44 71.001v1c0 0.666992 -0.333008 1 -1 1
c-2 0 -5 -2 -9 -6c-54.667 -43.333 -107.334 -82.333 -158.001 -117c-21.333 -14.667 -43.5 -29 -66.5 -43s-45.167 -26.5 -66.5 -37.5s-41.666 -19.833 -60.999 -26.5s-36.333 -10 -51 -10c-20.667 0 -35.834 4.66699 -45.501 14s-14.5 21.666 -14.5 36.999
c0 20.667 7.33301 45.334 22 74.001s34.834 58.667 60.501 90s56.167 62.333 91.5 93s73.5 58.167 114.5 82.5s84.167 44.166 129.5 59.499s91 23 137 23c5.33301 0 11.166 -0.166992 17.499 -0.5s12.166 -1.16602 17.499 -2.49902s10 -3.16602 14 -5.49902s6 -5.5 6 -9.5z
M262.999 105.997c-3.33301 0 -7.66895 0.666016 -13.002 1.99902c0.666992 -2.66699 1.33398 -5.16699 2.00098 -7.5s1.33398 -5.16602 2.00098 -8.49902zM223.996 123.996c-9.33301 23.333 -22.333 42.001 -39 56.001s-36.667 21 -60 21c-6 0 -9 -2 -9 -6
c0 -7.33301 9 -18.333 27 -33s45 -27.334 81 -38.001zM243.996 7.99707v12.5c0 4.33301 -0.333008 8.5 -1 12.5l-108 -156.5l-89 -134.5c-25.333 -40 -45.5 -74 -60.5 -102s-22.5 -47.667 -22.5 -59c0 -16 6.33301 -24 19 -24c10.667 0 24.5 5.66699 41.5 17
s35.167 27 54.5 47s38.833 44 58.5 72s37.5 58.667 53.5 92s29 68.833 39 106.5s15 76.5 15 116.5z" />
    <glyph glyph-name="R" unicode="R" horiz-adv-x="710" 
d="M866 631c0 -17.333 -6.00781 -36.8242 -18.0078 -58.4912s-28.333 -43.667 -49 -66s-44.667 -44 -72 -65s-56.166 -39.833 -86.499 -56.5s-61.166 -30 -92.499 -40s-61.666 -15 -90.999 -15c-5.33301 0 -10.333 0.166992 -15 0.5s-9.66699 0.833008 -15 1.5
c-6.66699 0 -10 -2 -10 -6c5.33301 -22.667 12.166 -47.334 20.499 -74.001s18.5 -53.334 30.5 -80.001s26 -52.5 42 -77.5s34.167 -47 54.5 -66s43 -34.333 68 -46s52.833 -17.5 83.5 -17.5c13.333 0 23.666 0.5 30.999 1.5s13 2.33301 17 4s7 3 9 4s4 1.5 6 1.5
s4 -1.33301 6 -4s3 -5 3 -7c0 -3.33301 -6 -7 -18 -11s-26.333 -6 -43 -6c-47.333 0 -88.666 9.33301 -123.999 28s-65.666 42.167 -90.999 70.5s-46 59.166 -62 92.499s-28.833 64.666 -38.5 93.999s-16.334 54.666 -20.001 75.999s-5.5 33.666 -5.5 36.999
c0 7.33301 2.33301 11 7 11c2.66699 0 7.33398 -1.66699 14.001 -5c2 -1.33301 7.66699 -3.33301 17 -6s22 -4 38 -4c45.333 0 89.333 10.667 132 32s80.834 47.166 114.501 77.499s60.667 62 81 95s30.5 61.5 30.5 85.5c0 15.333 -4.66699 27.5 -14 36.5
s-24.666 13.5 -45.999 13.5c-44 0 -88.833 -8.33301 -134.5 -25s-90.834 -39 -135.501 -67s-88 -60.333 -130 -97s-81.667 -74.5 -119 -113.5s-71.666 -78.167 -102.999 -117.5s-58.166 -75.833 -80.499 -109.5s-39.833 -63.334 -52.5 -89.001s-19 -44.167 -19 -55.5
c0 -8 3.33301 -12 10 -12c10.667 0 25.334 9.66699 44.001 29s39.167 43.666 61.5 72.999s45.333 61.666 69 96.999l66 101.5l53 85.5c15 24.667 24.5 41.334 28.5 50.001c2.66699 6.66699 6.66699 10 12 10s8.66602 -0.833008 9.99902 -2.5s2 -3.5 2 -5.5
c0 -7.33301 -6.5 -23.666 -19.5 -48.999s-30 -54.666 -51 -87.999s-44.5 -68.333 -70.5 -105s-52 -70.5 -78 -101.5s-50.833 -56.5 -74.5 -76.5s-43.5 -30 -59.5 -30c-13.333 0 -20 7.66699 -20 23s6.33301 37 19 65s30.334 59.5 53.001 94.5s49.834 72.333 81.501 112
s66.5 79 104.5 118s78.5 76.5 121.5 112.5s87.5 67.667 133.5 95s92.667 49.166 140 65.499s94 24.5 140 24.5c37.333 0 64 -5.83301 80 -17.5s24 -26.834 24 -45.501z" />
    <glyph glyph-name="S" unicode="S" horiz-adv-x="716" 
d="M1047 660c0 -18.667 -9.66797 -40.1689 -29.001 -64.502s-45.833 -50.666 -79.5 -78.999s-73.167 -58.5 -118.5 -90.5s-94.333 -64.667 -147 -98c-6.66699 -27.333 -14 -54 -22 -80s-17.5 -51 -28.5 -75s-23.667 -46.667 -38 -68s-31.5 -40.666 -51.5 -57.999
c34 0 65.667 2.66699 95 8s56 18.333 80 39c0.666992 0.666992 1.66699 1 3 1c2.66699 0 4.16699 -1.83301 4.5 -5.5s0.5 -6.16699 0.5 -7.5c-14 -12 -28 -21.167 -42 -27.5s-28.167 -11 -42.5 -14s-29.166 -4.83301 -44.499 -5.5s-31.666 -1 -48.999 -1h-22
c-31.333 -23.333 -69.833 -41.833 -115.5 -55.5s-101.834 -20.5 -168.501 -20.5c-28 0 -53.333 2 -76 6s-43 9.33301 -61 16l-93 -57l-81 -53c-0.666992 -0.666992 -2 -1.5 -4 -2.5s-3.33301 -1.5 -4 -1.5c-3.33301 0 -5 1.33301 -5 4c0 2 2.33301 5.33301 7 10
c14 11.333 35 26.166 63 44.499l99 62.5c-28.667 13.333 -49.667 28.5 -63 45.5s-20 32.5 -20 46.5c0 19.333 15.333 29 46 29c12 0 34.5 -3.33301 67.5 -10s72.167 -14 117.5 -22l211 127l215 134c3.33301 13.333 6.5 27 9.5 41s6.16699 28 9.5 42
c10 45.333 28.333 84.833 55 118.5s56 61.834 88 84.501s64.5 39.667 97.5 51s61.167 17 84.5 17c15.333 0 27.833 -2.5 37.5 -7.5s14.5 -12.833 14.5 -23.5zM1026 653.998c0 8 -3.5 13.999 -10.5 17.999s-16.167 6 -27.5 6c-18.667 0 -42.167 -5.16699 -70.5 -15.5
s-56.5 -25.166 -84.5 -44.499s-53.833 -43 -77.5 -71s-40.5 -60 -50.5 -96c-4.66699 -16 -9 -32 -13 -48l-12 -47l135.5 91c42.333 29.333 79 57 110 83s55.5 49.5 73.5 70.5s27 38.833 27 53.5zM642.999 309.997l-194.499 -119.998l-198.5 -118
c38.667 -6.66699 79.167 -12.334 121.5 -17.001s84.166 -7.33398 125.499 -8.00098c40 32 71 71 93 117s39.667 94.667 53 146zM482 34.999c-50 1.33301 -96.1689 4.16797 -138.502 8.50098s-81.166 9.16602 -116.499 14.499l-117 -69
c16 -5.33301 34.833 -9.83301 56.5 -13.5s46.834 -5.5 75.501 -5.5c52.667 0 98.5 5.83301 137.5 17.5s73.167 27.5 102.5 47.5zM201.998 62.001c-38 6 -69.333 11.5 -94 16.5s-41.667 7.5 -51 7.5c-20 0 -30 -4.33301 -30 -13c0 -11.333 4.66699 -24 14 -38
s26.333 -26.667 51 -38z" />
    <glyph glyph-name="T" unicode="T" horiz-adv-x="654" 
d="M806 650c0 -20 -4.99414 -45.4971 -14.9941 -76.4971s-24.333 -64.833 -43 -101.5s-41.167 -75 -67.5 -115s-55.5 -79.167 -87.5 -117.5s-66.833 -74.833 -104.5 -109.5s-76.834 -64.667 -117.501 -90c14 -1.33301 28 -2.5 42 -3.5s28 -1.5 42 -1.5
c34 0 66.833 4.16699 98.5 12.5s62.5 24.166 92.5 47.499c0.666992 0.666992 1.66699 1 3 1c2.66699 0 4.66699 -1.5 6 -4.5s2 -5.16699 2 -6.5c-32 -26 -64.167 -43.167 -96.5 -51.5s-65.833 -12.5 -100.5 -12.5c-14 0 -29.167 0.5 -45.5 1.5s-38.5 2.5 -66.5 4.5
c-35.333 -20 -71.5 -35.833 -108.5 -47.5s-74.5 -17.834 -112.5 -18.501c-18 0 -36.833 2 -56.5 6s-37.834 10 -54.501 18s-30.5 18 -41.5 30s-16.5 25.667 -16.5 41c0 6 2.16699 12 6.5 18s13.5 9.66699 27.5 11c8 0 23.5 -1.66699 46.5 -5l82 -11.5l103 -13.5
c37 -4.66699 73.5 -8.66699 109.5 -12c40.667 24.667 80.167 54.167 118.5 88.5s74.166 70.833 107.499 109.5s64 78.334 92 119.001s52 79.167 72 115.5s35.5 69.5 46.5 99.5s16.5 54 16.5 72c0 22 -10.667 33 -32 33c-16.667 0 -38.5 -4.83301 -65.5 -14.5
s-59.333 -20.167 -97 -31.5s-80.834 -21.833 -129.501 -31.5s-103 -14.5 -163 -14.5c-2 0 -8.5 0.333008 -19.5 1s-24.5 1.66699 -40.5 3s-32.833 3 -50.5 5s-34.167 4.66699 -49.5 8s-28 7.16602 -38 11.499s-15 9.16602 -15 14.499c0 1.33301 0.333008 3 1 5
s1.33398 4.66699 2.00098 8c2 6 5.66699 9 11 9c24.667 -6.66699 50.667 -13 78 -19c23.333 -5.33301 50.166 -9.83301 80.499 -13.5s61.5 -5.5 93.5 -5.5c47.333 0 92.166 4.33301 134.499 13s81 18 116 28s65.667 19.333 92 28s47.166 13 62.499 13
c13.333 0 24.833 -4.5 34.5 -13.5s14.5 -20.167 14.5 -33.5zM310.006 29.0029c-36 3.33301 -71.668 7.16699 -107.001 11.5s-67.333 8.5 -96 12.5l-96 14c-6 0 -11.333 -1.66699 -16 -5s-7 -8.33301 -7 -15c0 -8 3.33301 -16.167 10 -24.5s16 -15.833 28 -22.5
s26.667 -12.167 44 -16.5s36.333 -6.5 57 -6.5c30.667 0 61.334 4.66699 92.001 14s61 22 91 38z" />
    <glyph glyph-name="U" unicode="U" horiz-adv-x="651" 
d="M749 468c0 -2.66699 -2.33105 -7.67383 -6.99805 -15.0068l-34.5 -48.5l-49 -71l-54 -83.5c-18.333 -29.333 -35 -58.166 -50 -86.499s-27.333 -55.166 -37 -80.499s-14.5 -46.666 -14.5 -63.999v-8c0 -2.66699 0.333008 -6.33398 1 -11.001
c0 -2.66699 -0.333008 -5.16699 -1 -7.5s-2.33398 -3.5 -5.00098 -3.5c-4.66699 0 -7.5 2.33301 -8.5 7s-1.5 10.667 -1.5 18c0 28 4.66699 56.167 14 84.5s21.166 56.166 35.499 83.499s29.833 54 46.5 80l47 73l-1 1c-1.33301 0 -5.66602 -3.66699 -12.999 -11
c-2.66699 -3.33301 -13.834 -14.166 -33.501 -32.499l-73.5 -66l-97.5 -82.5c-35.667 -29.333 -71 -56.166 -106 -80.499s-68 -44.666 -99 -60.999s-56.5 -24.5 -76.5 -24.5c-13.333 0 -23.5 4 -30.5 12s-10.5 21 -10.5 39c0 22.667 5.33301 48.5 16 77.5
s24.834 59.667 42.501 92s37.834 65.333 60.501 99l69 99l69 91.5l60.5 75.5l42.5 53c10.667 13.667 16 21.167 16 22.5s-0.666992 2 -2 2c-2.66699 0 -5.66699 -1.33301 -9 -4c-3.33301 -3.33301 -13.833 -10.666 -31.5 -21.999s-40.5 -24.5 -68.5 -39.5s-60 -31 -96 -48
s-73.667 -32.5 -113 -46.5s-79.5 -25.667 -120.5 -35s-80.167 -14 -117.5 -14c-12 0 -27.167 1.16699 -45.5 3.5s-36.166 5.83301 -53.499 10.5s-32.333 10.667 -45 18s-19 16 -19 26c0 8.66699 3.66699 13 11 13c2.66699 0 4.66699 -0.333008 6 -1s2.33301 -1 3 -1
c8.66699 -4 17.834 -8.66699 27.501 -14s21 -10.166 34 -14.499s28.167 -8 45.5 -11s38.333 -4.5 63 -4.5c30.667 0 63.667 3.5 99 10.5s71.166 16.5 107.499 28.5s72.5 25.833 108.5 41.5s70.167 32.334 102.5 50.001s62.166 35.5 89.499 53.5s50.666 35.333 69.999 52
c3.33301 3.33301 7.66602 5 12.999 5c6 0 9 -3.33301 9 -10c0 -4.66699 -2 -9.33398 -6 -14.001l-69 -88.5l-88.5 -115.5l-93 -127.5c-31 -43.667 -59 -85.167 -84 -124.5s-45.333 -75 -61 -107s-23.5 -56.667 -23.5 -74c0 -26.667 11 -40 33 -40
c18 0 41.833 8.16699 71.5 24.5s61.667 37 96 62s69.5 52.5 105.5 82.5l101 87l81.5 75.5c23 22.333 38.5 37.833 46.5 46.5l30 32.5l25 27.5l18.5 20.5c5 5.66699 7.83301 8.83398 8.5 9.50098c6 6.66699 11 10 15 10c5.33301 0 8 -2.33301 8 -7z" />
    <glyph glyph-name="V" unicode="V" horiz-adv-x="537" 
d="M1171 804c0 -5.33301 -2.16504 -8.83008 -6.49805 -10.4971s-7.83301 -3.16699 -10.5 -4.5c-64.667 -16 -124.667 -40.167 -180 -72.5s-106.666 -69.166 -153.999 -110.499s-91.666 -85.833 -132.999 -133.5s-80.5 -95.167 -117.5 -142.5l-106.5 -136.5
c-34 -43.667 -67.667 -82.334 -101 -116.001s-66.833 -60.5 -100.5 -80.5s-68.834 -30 -105.501 -30c-28.667 0 -49.167 5.83301 -61.5 17.5s-18.5 27.834 -18.5 48.501c0 24 7.33301 52.833 22 86.5s33.667 69.5 57 107.5s49.333 76.5 78 115.5l85 111.5l78.5 96l57.5 67
l-1 1c-0.666992 0 -9.66699 -5 -27 -15s-40.166 -22.333 -68.499 -37l-98 -48.5c-37 -17.667 -75.833 -33.834 -116.5 -48.501s-81.667 -27 -123 -37s-80.333 -15 -117 -15c-25.333 0 -48.333 2.33301 -69 7s-38.167 10.5 -52.5 17.5s-25.5 14.167 -33.5 21.5
s-12 13.333 -12 18c0 3.33301 1.16699 6.83301 3.5 10.5s6.16602 5.5 11.499 5.5c3.33301 0 5.66602 -1 6.99902 -3c9.33301 -12.667 21.666 -22.667 36.999 -30s31.166 -12.666 47.499 -15.999s32 -5.33301 47 -6s26.5 -1 34.5 -1c33.333 0 68.666 4.16699 105.999 12.5
s75.166 19.166 113.499 32.499s75.666 28.166 111.999 44.499s70 32.666 101 48.999s58.333 31.666 82 45.999s41.834 25.833 54.501 34.5c7.33301 5.33301 14.166 9.83301 20.499 13.5s11.166 5.5 14.499 5.5c2.66699 0 4 -2.33301 4 -7c0 -4 -6.16699 -13.833 -18.5 -29.5
l-49.5 -60l-70 -83l-79.5 -97l-79.5 -103c-26 -35 -49.333 -68.5 -70 -100.5s-37.167 -62 -49.5 -90s-18.5 -51.667 -18.5 -71c0 -17.333 5.16699 -30.666 15.5 -39.999s27.833 -14 52.5 -14c32.667 0 65.334 10.667 98.001 32s65.834 49.5 99.501 84.5
s68.334 75.5 104.001 121.5l111.5 142.5c38.667 49 79.334 98 122.001 147s87.667 94.167 135 135.5s97.5 77.166 150.5 107.499s109.5 51.833 169.5 64.5c10.667 0 16 -5 16 -15z" />
    <glyph glyph-name="W" unicode="W" horiz-adv-x="875" 
d="M1474 835c0 -6.66699 -1.3291 -11.5049 -3.99609 -14.5049s-5.66699 -4.5 -9 -4.5c-58.667 -19.333 -113.334 -46.333 -164.001 -81s-98.667 -73.667 -144 -117s-88 -89.5 -128 -138.5l-115 -146l-106 -138.5c-34 -44 -67.5 -82.833 -100.5 -116.5
s-65.833 -60.5 -98.5 -80.5s-66 -30 -100 -30c-23.333 0 -39.833 6 -49.5 18s-14.5 28 -14.5 48s4 42.833 12 68.5s18 52 30 79s25.167 53.667 39.5 80l40.5 72c12.667 21.667 23.834 39.5 33.501 53.5s15.5 22.667 17.5 26c2.66699 3.33301 4 6 4 8
c0 1.33301 -0.333008 2 -1 2c-1.33301 0 -3.33301 -1.33301 -6 -4c-4 -4 -16.5 -17.833 -37.5 -41.5l-78 -84.5l-103 -105c-37.667 -37.333 -75 -71.666 -112 -102.999s-72 -57.333 -105 -78s-60.833 -31 -83.5 -31c-14 0 -24 3.5 -30 10.5s-9 16.833 -9 29.5
c0 17.333 5 38.833 15 64.5s23.333 53.834 40 84.501s35.5 62.834 56.5 96.501l65 99.5l66 94l58 80l42.5 57c11.333 14.667 17.666 23.334 18.999 26.001c0 1.33301 -0.333008 2 -1 2c-1.33301 0 -2.66602 -0.333008 -3.99902 -1c-58.667 -38 -119 -72 -181 -102
c-26.667 -12.667 -54.834 -25.167 -84.501 -37.5s-60.167 -23.333 -91.5 -33s-63 -17.5 -95 -23.5s-63 -9 -93 -9s-55.333 3 -76 9s-37.334 12.667 -50.001 20s-21.667 14.333 -27 21s-8 10.667 -8 12c0 3.33301 1.33301 5.66602 4 6.99902s5 2 7 2s6.5 -2.5 13.5 -7.5
s17.333 -10.5 31 -16.5s31.667 -11.5 54 -16.5s50.166 -7.5 83.499 -7.5c42 0 88.5 7.16699 139.5 21.5s102.167 32.833 153.5 55.5s100.5 47.834 147.5 75.501s87.5 54.834 121.5 81.501c8.66699 7.33301 16.334 11 23.001 11c2 0 3.5 -1 4.5 -3s1.5 -4 1.5 -6
c0 -4 -2 -8.66699 -6 -14c-10 -10 -23.333 -25 -40 -45l-55.5 -70l-65.5 -87.5l-69 -97l-65 -98.5c-20.667 -32.667 -38.834 -63.5 -54.501 -92.5s-28.167 -55.333 -37.5 -79s-14 -43.167 -14 -58.5c0 -20.667 9.66699 -31 29 -31c14 0 32.667 7 56 21s49 32.333 77 55
s57.667 48.5 89 77.5l92 88.5c70.667 70.667 146.667 151.334 228 242.001l53 64l48 59.5l37.5 46.5l20.5 25c2.66699 2.66699 6.5 6 11.5 10s9.16699 6 12.5 6c4 0 6 -2.66699 6 -8c0 -4.66699 -2 -10.334 -6 -17.001s-12.167 -17.167 -24.5 -31.5s-31.5 -38.5 -57.5 -72.5
l-31.5 -42.5l-57 -81l-68.5 -104c-24 -37.667 -46 -75.167 -66 -112.5s-36.667 -72.666 -50 -105.999s-20 -61.333 -20 -84c0 -16 4 -28.667 12 -38s21 -14 39 -14c29.333 0 60 10.833 92 32.5s65 50.667 99 87s69.333 78.166 106 125.499l114 147l122 152
c42 50.667 85.5 97.5 130.5 140.5s91.5 80.5 139.5 112.5s97.333 55 148 69c2 0 4 -0.666992 6 -2c1.33301 -1.33301 2.66602 -2.83301 3.99902 -4.5s2 -4.5 2 -8.5z" />
    <glyph glyph-name="X" unicode="X" horiz-adv-x="707" 
d="M916 681c0 -2 -2.00098 -4.66504 -6.00098 -7.99805c-1.33301 -0.666992 -9 -6 -23 -16l-56 -40l-82 -58.5l-101.5 -72l-114 -80.5l-119.5 -84c-13.333 -38 -25 -74.667 -35 -110s-15 -66.333 -15 -93c0 -23.333 2.66699 -43 8 -59s12.833 -28.833 22.5 -38.5
s20.834 -16.667 33.501 -21s26 -6.5 40 -6.5c16 0 32.333 2.16699 49 6.5s32.834 9.83301 48.501 16.5s30.334 14.334 44.001 23.001s25.167 17 34.5 25c4 3.33301 7 5 9 5s3 -1.33301 3 -4c0 -4 -1 -7 -3 -9c-4.66699 -6.66699 -13.834 -15 -27.501 -25
s-30 -19.5 -49 -28.5s-39.333 -16.667 -61 -23s-42.5 -9.5 -62.5 -9.5c-22.667 0 -41.334 3.16699 -56.001 9.5s-26.334 15.333 -35.001 27s-14.667 25.667 -18 42s-5 34.833 -5 55.5c0 23.333 5 52.666 15 87.999s21.667 72.666 35 111.999l-157 -110.5l-135 -95l-95 -67
c-24 -17 -37 -26.167 -39 -27.5c-7.33301 -4.66699 -11.666 -7 -12.999 -7s-3 1 -5 3s-3 4 -3 6c0 3.33301 1.33301 6.33301 4 9c1.33301 1.33301 3 2.33301 5 3l47.5 33l102 71.5l139 98l159.5 111.5l24.5 70.5c8.33301 23 15.833 45 22.5 66s12 40 16 57s6 31.5 6 43.5
c0 10 -1.83301 17 -5.5 21s-9.16699 6 -16.5 6c-13.333 0 -31.333 -6 -54 -18l-75 -39.5c-27.333 -14.333 -55.333 -27.5 -84 -39.5s-55.667 -18 -81 -18c-14.667 0 -26.834 4.5 -36.501 13.5s-14.5 21.5 -14.5 37.5c0 14 4.66699 29.833 14 47.5s24.833 36.834 46.5 57.501
s50.667 41.834 87 63.501s81.5 43.5 135.5 65.5c3.33301 0 6.83301 -2 10.5 -6s5.5 -7.66699 5.5 -11s-5 -7.33301 -15 -12c-43.333 -14.667 -81.666 -31.167 -114.999 -49.5s-61.5 -37 -84.5 -56s-40.333 -37.333 -52 -55s-17.5 -33.167 -17.5 -46.5
c0 -10.667 4 -19.167 12 -25.5s20.667 -9.5 38 -9.5c14.667 0 30.667 3.16699 48 9.5s35.166 14.166 53.499 23.499s36.833 19.5 55.5 30.5l53.5 30.5c17 9.33301 32.833 17.166 47.5 23.499s27.334 9.5 38.001 9.5c9.33301 0 17 -3.33301 23 -10s9 -17.667 9 -33
c-2.66699 -28 -11.167 -62.333 -25.5 -103l-44.5 -127l171 121l150 106l107.5 76c27.667 19.333 42.167 29.666 43.5 30.999c4 2.66699 7.66699 4 11 4c6 0 9 -2.33301 9 -7z" />
    <glyph glyph-name="Y" unicode="Y" horiz-adv-x="495" 
d="M697 665c0 -4.66699 -2.16211 -9.66309 -6.49512 -14.9961l-15.5 -19c-11.333 -12 -27.5 -33 -48.5 -63l-74 -109l-94.5 -143l-109 -166c52.667 28.667 106.667 54.334 162 77.001c0.666992 0 1.66699 -0.333008 3 -1c2 -0.666992 3 -2.66699 3 -6
c0 -4 -2.66699 -7 -8 -9c-56 -20 -113.333 -46.667 -172 -80l-126 -189l-130 -186l-127 -169c-41.333 -52.667 -80.5 -98.834 -117.5 -138.501s-71 -70.834 -102 -93.501s-57.5 -34 -79.5 -34c-21.333 0 -37 4.66699 -47 14s-15 22.666 -15 39.999
c0 23.333 8.5 52.666 25.5 87.999s41 74.333 72 117s68.167 87.667 111.5 135s91 94.666 143 141.999s107.667 93.5 167 138.5s120.333 86.167 183 123.5l84 127.5l75 114l63.5 95c19 28.333 35.5 51.5 49.5 69.5c0 2 -0.666992 3 -2 3c-2.66699 0 -4.66699 -1.33301 -6 -4
c-14 -16.667 -32.833 -36.5 -56.5 -59.5s-49.834 -46.833 -78.501 -71.5s-58.834 -49.167 -90.501 -73.5s-62.667 -46.166 -93 -65.499s-58.833 -35 -85.5 -47s-49.334 -18 -68.001 -18c-17.333 0 -29.666 3.5 -36.999 10.5s-11 16.5 -11 28.5c0 16.667 6 37.334 18 62.001
s27.167 50.834 45.5 78.501s38.333 55.5 60 83.5l61 76.5l49 58.5c13.667 16 21.5 25.667 23.5 29c1.33301 1.33301 2 3 2 5c0 1.33301 -0.666992 2 -2 2s-2.33301 -0.333008 -3 -1c-10.667 -7.33301 -26.334 -17.166 -47.001 -29.499s-45 -25.666 -73 -39.999
s-58.833 -29 -92.5 -44s-68.167 -28.333 -103.5 -40s-71 -21.334 -107 -29.001s-70.667 -11.5 -104 -11.5c-34 0 -62 2.5 -84 7.5s-39.333 10.833 -52 17.5s-21.5 13.5 -26.5 20.5s-7.5 12.167 -7.5 15.5c0 8.66699 3.33301 13 10 13c5.33301 0 12.166 -2.83301 20.499 -8.5
s19.333 -11.834 33 -18.501s30.834 -12.834 51.501 -18.501s46 -8.5 76 -8.5c40.667 0 82 5 124 15s83 22.667 123 38s77.667 32.166 113 50.499s67 36.166 95 53.499s51.333 32.666 70 45.999s30.667 22.333 36 27c9.33301 8 17 12 23 12c3.33301 0 6.16602 -1 8.49902 -3
s3.5 -4.66699 3.5 -8c0 -4.66699 -2.66699 -9.66699 -8 -15l-44 -50.5l-63 -75.5l-69.5 -88c-23.667 -30.667 -45.167 -60.167 -64.5 -88.5s-35.166 -54.333 -47.499 -78s-18.5 -42.5 -18.5 -56.5c0 -15.333 8.33301 -23 25 -23c13.333 0 30.666 4.83301 51.999 14.5
s45.166 22.5 71.499 38.5s54 34.833 83 56.5s58 44.5 87 68.5s57 48.5 84 73.5s51.167 49.167 72.5 72.5l40.5 45.5l34.5 40.5l24.5 30c6.33301 8 9.83301 12.667 10.5 14c3.33301 4.66699 7.5 9.5 12.5 14.5s10.167 7.5 15.5 7.5c4 0 7.66699 -1.66699 11 -5
s5 -6.66602 5 -9.99902zM281.005 97.0039c-56 -34.667 -111.167 -73.501 -165.5 -116.501s-106.166 -87.167 -155.499 -132.5s-95 -91 -137 -137s-78.333 -89.5 -109 -130.5s-54.667 -78.167 -72 -111.5s-26 -60.666 -26 -81.999c0 -29.333 17 -44 51 -44
c17.333 0 39.166 10.667 65.499 32s56 50.333 89 87s68.333 79.5 106 128.5l116 157.5l120 173.5z" />
    <glyph glyph-name="Z" unicode="Z" horiz-adv-x="729" 
d="M895 605c0 -28.667 -11.6689 -61.1562 -35.002 -97.4893s-57.166 -72.5 -101.499 -108.5s-98.333 -70.167 -162 -102.5s-135.5 -58.5 -215.5 -78.5c0 -2.66699 3.33301 -4 10 -4c56.667 0 99.167 -9.66699 127.5 -29s46.166 -46 53.499 -80
c11.333 2.66699 22.5 4.66699 33.5 6l32.5 4c5.33301 0 8 -2.66699 8 -8c0 -4 -1.33301 -6.83301 -4 -8.5s-8.33398 -2.5 -17.001 -2.5c-14.667 0 -31.334 -1.66699 -50.001 -5c0.666992 -3.33301 1 -7 1 -11v-12c0 -34 -7.5 -71.667 -22.5 -113s-35.5 -84.333 -61.5 -129
s-56.5 -90 -91.5 -136s-72.833 -90.333 -113.5 -133s-83 -82.834 -127 -120.501s-88 -70.5 -132 -98.5s-87 -50 -129 -66s-81 -24 -117 -24c-18.667 0 -36.5 1.66699 -53.5 5s-32 9.66602 -45 18.999s-23.333 22.166 -31 38.499s-11.5 37.5 -11.5 63.5
c0 41.333 13.833 86 41.5 134s65 96.667 112 146s101.167 97.666 162.5 144.999s125.833 91.166 193.5 131.499s136 75.333 205 105s134.5 51.5 196.5 65.5c-5.33301 30.667 -21.333 55 -48 73s-66 27.333 -118 28c-15.333 0 -32.166 -1.33301 -50.499 -4
s-31.166 -5 -38.499 -7c-5.33301 0 -9.16602 0.5 -11.499 1.5s-4.16602 2.16699 -5.49902 3.5c-2 2 -3 3.66699 -3 5s0.666992 2.66602 2 3.99902s3.66602 2.33301 6.99902 3c81.333 13.333 156.833 35.833 226.5 67.5s130.167 67 181.5 106s91.5 78.5 120.5 118.5
s43.5 75 43.5 105c0 22 -8.83301 39.833 -26.5 53.5s-45.834 20.5 -84.501 20.5c-35.333 0 -77 -8 -125 -24s-97.667 -38.167 -149 -66.5s-101.833 -62 -151.5 -101s-94.167 -81.5 -133.5 -127.5s-71.166 -95 -95.499 -147s-36.5 -104.667 -36.5 -158
c0 -10 1.16699 -18.333 3.5 -25s4.83301 -12.334 7.5 -17.001s5.16699 -8.83398 7.5 -12.501s3.5 -7.83398 3.5 -12.501c0 -2 -1 -3.5 -3 -4.5s-3.66699 -1.5 -5 -1.5c-6.66699 5.33301 -13 12.333 -19 21c-5.33301 7.33301 -10 17.166 -14 29.499s-6 27.5 -6 45.5
c0 51.333 11.5 102.166 34.5 152.499s53.667 98.333 92 144s82.5 88.167 132.5 127.5s101.833 73.5 155.5 102.5s107.334 51.667 161.001 68s103.5 24.5 149.5 24.5c48 0 83.167 -8.33301 105.5 -25s33.5 -39 33.5 -67zM552.998 87.0107c-40 -8 -83.166 -21 -129.499 -39
s-94 -39.667 -143 -65s-98.167 -53.833 -147.5 -85.5s-96.666 -65 -141.999 -100s-87.833 -71.167 -127.5 -108.5s-74 -74.666 -103 -111.999s-51.833 -73.833 -68.5 -109.5s-25 -69.167 -25 -100.5c0 -32 9.66699 -56.5 29 -73.5s45.333 -25.5 78 -25.5
c31.333 0 66.833 8 106.5 24s81 38 124 66s86.833 60.5 131.5 97.5s87.667 76.667 129 119s80.166 86.166 116.499 131.499s67.666 89.833 93.999 133.5s46.5 85.5 60.5 125.5s20 76 18 108z" />
    <glyph glyph-name="bracketleft" unicode="[" horiz-adv-x="370" 
d="M586 739c-0.666992 -2 -2.00195 -4.33203 -4.00195 -6.99902c-3.33301 -4.66699 -9.33301 -7 -18 -7h-167l-162.5 -426.5l-162.5 -426.5h172c2.66699 0 5.33398 -0.333008 8.00098 -1c4.66699 -1.33301 7 -4 7 -8c0 -3.33301 -2 -6.33301 -6 -9s-9.66699 -4 -17 -4h-179
c-2 -0.666992 -4.33301 -0.333984 -7 0.999023c-4.66699 2 -7 5.66699 -7 11l329 866c1.33301 4.66699 4 9.16699 8 13.5s7 6.5 9 6.5h181c2.66699 0 5.33398 -0.333008 8.00098 -1c5.33301 -1.33301 8 -4 8 -8z" />
    <glyph glyph-name="backslash" unicode="\" horiz-adv-x="421" 
d="M278 -68c0 -4.66699 -0.333008 -8.66797 -1 -12.001s-2 -5 -4 -5s-5.66699 1 -11 3c-6.66699 3.33301 -10 7.83301 -10 13.5s-0.333008 14.167 -1 25.5c-2.66699 71.333 -5.66699 139.5 -9 204.5l-10 194c-3.33301 64.333 -7 130.333 -11 198l-13 216.5
c-0.666992 3.33301 -1.5 7 -2.5 11s-1.5 8 -1.5 12c0 6.66699 2.33301 10 7 10c7.33301 0 13.333 -2.5 18 -7.5s7 -11.167 7 -18.5c0 -4.66699 0.5 -20 1.5 -46s2.5 -58.5 4.5 -97.5l6.5 -131c2.33301 -48.333 4.83301 -97.5 7.5 -147.5l7.5 -146.5l6.5 -128l5 -91.5
c1.33301 -23.333 2 -35.666 2 -36.999c0 -2 0.166992 -4.83301 0.5 -8.5s0.5 -7.5 0.5 -11.5z" />
    <glyph glyph-name="bracketright" unicode="]" horiz-adv-x="370" 
d="M150 -130c-1.33301 -4.66699 -3.99902 -9.16797 -7.99902 -13.501s-7 -6.5 -9 -6.5h-181c-2.66699 0 -5.33398 0.333008 -8.00098 1c-5.33301 1.33301 -8 4 -8 8c0.666992 2 2 4.33301 4 7c3.33301 4.66699 9.33301 7 18 7h167l162.5 426.5l162.5 426.5h-172
c-2 0 -4.33301 0.333008 -7 1c-5.33301 1.33301 -8 4 -8 8c0 3.33301 2 6.33301 6 9s9.66699 4 17 4h179c2 0.666992 4.33301 0.333984 7 -0.999023c4.66699 -2 7 -5.66699 7 -11z" />
    <glyph glyph-name="underscore" unicode="_" horiz-adv-x="373" 
d="M252 -11c-0.666992 -6 -1.99902 -10.001 -3.99902 -12.001s-4.66699 -3 -8 -3l-260 -4c-1.33301 0 -2.33301 0.5 -3 1.5s-1 3.83301 -1 8.5s0.666992 7.33398 2 8.00098s2.66602 1 3.99902 1h270z" />
    <glyph glyph-name="grave" unicode="`" horiz-adv-x="409" 
d="M249 235c0 -0.666992 -2 -1.66602 -6 -2.99902l-31 11c-11.333 4 -21.833 8.33301 -31.5 13s-17.667 9.16699 -24 13.5s-9.5 8.16602 -9.5 11.499s1.33301 6.5 4 9.5s5.66699 4.5 9 4.5c2 0 4 -1 6 -3c9.33301 -8 18.833 -15.167 28.5 -21.5s18.5 -11.833 26.5 -16.5
l20 -11.5c5.33301 -3 8 -5.5 8 -7.5z" />
    <glyph glyph-name="a" unicode="a" 
d="M323 84c-6.66699 -7.33301 -17.168 -16 -31.501 -26s-30.166 -19.5 -47.499 -28.5s-35.333 -16.667 -54 -23s-35.667 -9.5 -51 -9.5c-17.333 0 -29.5 5.33301 -36.5 16s-10.5 23 -10.5 37v6c-10 -8 -20.833 -15.833 -32.5 -23.5s-22.834 -14.5 -33.501 -20.5
s-20.667 -10.833 -30 -14.5s-17 -5.5 -23 -5.5c-18.667 0 -28 8.33301 -28 25c0 11.333 4.83301 25 14.5 41s23.167 31.333 40.5 46s37.833 27.167 61.5 37.5s49.834 15.5 78.501 15.5c14.667 0 23.334 -1.33301 26.001 -4s4 -5.33398 4 -8.00098
c0 -5.33301 -2 -8.5 -6 -9.5s-6.66699 -1.5 -8 -1.5c-4 0.666992 -8 1 -12 1h-11c-24.667 0 -47 -4.16699 -67 -12.5s-37 -18.166 -51 -29.499s-24.833 -23 -32.5 -35s-11.5 -22 -11.5 -30c0 -8.66699 4.33301 -13 13 -13c6.66699 0 15.5 2.5 26.5 7.5s22 10.667 33 17
s21.167 12.833 30.5 19.5l20 14c3.33301 11.333 8.66602 21.333 15.999 30s16.333 13 27 13c4.66699 0 7 -1.33301 7 -4c0 -3.33301 -3.33301 -8.83301 -10 -16.5s-15.334 -16.167 -26.001 -25.5c0.666992 -19.333 5.5 -32.833 14.5 -40.5s20.5 -11.5 34.5 -11.5
c12 0 25.333 2.5 40 7.5s29.167 11.167 43.5 18.5s27.833 15.5 40.5 24.5s23.334 17.833 32.001 26.5z" />
    <glyph glyph-name="b" unicode="b" horiz-adv-x="284" 
d="M405 616c0 -22 -7.16699 -48.3291 -21.5 -78.9961s-33.166 -63.167 -56.499 -97.5s-49.666 -69.333 -78.999 -105s-59 -69.667 -89 -102s-58.833 -61.833 -86.5 -88.5s-51.5 -48 -71.5 -64c-2 -8 -3.66699 -15.5 -5 -22.5s-2 -13.167 -2 -18.5
c0 -20.667 8.33301 -31 25 -31c10 0 19.667 2.66699 29 8s18 11.666 26 18.999s15.333 15 22 23s12 15 16 21c-2 4 -3.33301 8.16699 -4 12.5s-1 8.5 -1 12.5c0 11.333 2.83301 21.166 8.5 29.499s14.167 12.5 25.5 12.5c4 0 6.66699 -1.5 8 -4.5s2 -6.16699 2 -9.5
c0 -13.333 -6.33301 -30 -19 -50c6 -8.66699 14 -15 24 -19s21 -6 33 -6c15.333 0 30.833 3.16699 46.5 9.5s29.167 15.833 40.5 28.5l10 -11c-15.333 -15.333 -32 -26.666 -50 -33.999s-35.667 -11 -53 -11c-15.333 0 -28 2.33301 -38 7s-18 10.667 -24 18
c-6.66699 -10 -14.334 -19.5 -23.001 -28.5s-17.667 -17 -27 -24s-18.833 -12.667 -28.5 -17s-18.834 -6.5 -27.501 -6.5c-14.667 0 -25.167 4.5 -31.5 13.5s-9.5 21.167 -9.5 36.5c0 25.333 7.33301 57.666 22 96.999s33.834 81.166 57.501 125.499
s50.5 88.666 80.5 132.999s60.167 84.5 90.5 120.5s59.666 65.167 87.999 87.5s52.833 33.5 73.5 33.5c7.33301 0 12.333 -1.83301 15 -5.5s4 -8.16699 4 -13.5zM387 611.004c0 6.66699 -2.66406 9.99609 -7.99707 9.99609c-12 0 -28 -8.66699 -48 -26
s-41.833 -40.166 -65.5 -68.499s-48.334 -60.666 -74.001 -96.999s-50.167 -73.5 -73.5 -111.5s-44.5 -75.167 -63.5 -111.5s-33.833 -69.166 -44.5 -98.499c22.667 18.667 47.667 41.834 75 69.501s55 57.5 83 89.5s55.167 65 81.5 99s49.666 66.5 69.999 97.5
s36.666 59.333 48.999 85s18.5 46.5 18.5 62.5z" />
    <glyph glyph-name="c" unicode="c" horiz-adv-x="207" 
d="M209 84c-6.66699 -7.33301 -17.8301 -16.667 -33.4971 -28s-33.167 -22.166 -52.5 -32.499s-39 -19.166 -59 -26.499s-37.667 -11 -53 -11c-20.667 0 -35.334 3.66699 -44.001 11s-13 16.666 -13 27.999c0 12.667 4.5 26.5 13.5 41.5s20.167 29 33.5 42
s28.166 23.833 44.499 32.5s31.833 13 46.5 13c5.33301 0 10 -1.5 14 -4.5s6 -7.16699 6 -12.5s-1.66699 -10.833 -5 -16.5s-8 -8.5 -14 -8.5s-9 2.66699 -9 8c0 1.33301 0.5 2.66602 1.5 3.99902s1.5 3 1.5 5c0 3.33301 -2.33301 5 -7 5
c-8.66699 0 -18.834 -3.5 -30.501 -10.5s-22.667 -15.667 -33 -26s-19 -21.333 -26 -33s-10.5 -22.167 -10.5 -31.5c0 -8 3.33301 -14.667 10 -20s17.667 -8 33 -8c11.333 0 25.333 3.16699 42 9.5s33.5 14 50.5 23s33.167 18.833 48.5 29.5s27 20 35 28z" />
    <glyph glyph-name="d" unicode="d" horiz-adv-x="345" 
d="M462 589c0 -3.33301 -1.50488 -8.49805 -4.50488 -15.498s-8.5 -16.833 -16.5 -29.5l-51 -77l-64.5 -95l-69.5 -101.5l-65 -96.5c-5.33301 -8.66699 -11.5 -18.167 -18.5 -28.5s-13.5 -21 -19.5 -32s-11.167 -21.667 -15.5 -32s-6.5 -19.833 -6.5 -28.5
c0 -10.667 3.66699 -19.167 11 -25.5s20.333 -9.5 39 -9.5c12 0 25.333 2.5 40 7.5s29.334 11.167 44.001 18.5s28.334 15.666 41.001 24.999s23 18 31 26l10 -11c-6.66699 -7.33301 -17.167 -16 -31.5 -26s-30.166 -19.5 -47.499 -28.5s-35.333 -16.667 -54 -23
s-35.667 -9.5 -51 -9.5c-21.333 0 -35.833 4.16699 -43.5 12.5s-11.5 18.5 -11.5 30.5c0 8 1.16699 16.5 3.5 25.5s5.16602 17.833 8.49902 26.5c0.666992 1.33301 -4.83301 -3.16699 -16.5 -13.5s-25.667 -22 -42 -35s-33.5 -25 -51.5 -36s-33 -16.5 -45 -16.5
c-14 0 -21 7.66699 -21 23c0 10 3.33301 21.667 10 35s16.667 26.5 30 39.5s29.833 25.167 49.5 36.5s42.834 19.666 69.501 24.999c2 0 4.33301 -0.5 7 -1.5s4 -4.16699 4 -9.5s-5 -9 -15 -11c-16 -2 -32 -7.5 -48 -16.5s-30.5 -19 -43.5 -30s-23.5 -22 -31.5 -33
s-12 -19.833 -12 -26.5c0 -7.33301 4.66699 -11 14 -11c6.66699 0 16.334 3.33301 29.001 10s27.834 17.167 45.501 31.5s37 33.166 58 56.499s43.167 51.333 66.5 84l98 147l138 213c11.333 16.667 20.333 28.334 27 35.001s11.667 10 15 10c2 0 3.66699 -1 5 -3s2 -4 2 -6
z" />
    <glyph glyph-name="e" unicode="e" horiz-adv-x="192" 
d="M194 84c-6.66699 -7.33301 -17.334 -16.6689 -32.001 -28.002s-31 -22.166 -49 -32.499s-36.5 -19.166 -55.5 -26.499s-36.167 -11 -51.5 -11c-11.333 0 -22 3.83301 -32 11.5s-15 18.5 -15 32.5c0 14.667 4.5 28.834 13.5 42.501s19.833 25.667 32.5 36
s25.834 18.666 39.501 24.999s25.167 9.5 34.5 9.5c7.33301 0 12.333 -1.66699 15 -5s4 -7.33301 4 -12c0 -6 -3.33301 -12.833 -10 -20.5s-15.334 -15.667 -26.001 -24s-22.834 -16.5 -36.501 -24.5l-40.5 -23c0 -8.66699 2.33301 -15.667 7 -21s13.334 -8 26.001 -8
c11.333 0 24.833 3.16699 40.5 9.5s31.334 14 47.001 23s30.667 18.833 45 29.5s25.5 20 33.5 28zM74 118.997c0 4 -2.66797 6 -8.00098 6c-8 0 -16 -2.33301 -24 -7s-15.667 -10.667 -23 -18s-13.666 -15.333 -18.999 -24s-9.33301 -17.334 -12 -26.001
c25.333 12.667 46 25.334 62 38.001s24 23 24 31z" />
    <glyph glyph-name="f" unicode="f" horiz-adv-x="284" 
d="M407 574c0 -2 -4.83691 -10.667 -14.5039 -26l-36.5 -56.5l-48.5 -72.5l-50 -73l-40.5 -58.5c-11.333 -16.333 -18 -26.166 -20 -29.499c-2 -2.66699 -6.5 -9.33398 -13.5 -20.001l-25 -37.5l-30 -45.5l-28.5 -44c0.666992 -3.33301 1 -8 1 -14
c0 -11.333 -1.16699 -22.666 -3.5 -33.999s-5.16602 -23.666 -8.49902 -36.999c8.66699 -5.33301 19 -8 31 -8s25.333 2.5 40 7.5s29.334 11.167 44.001 18.5s28.334 15.666 41.001 24.999s23 18 31 26l10 -11c-6.66699 -7.33301 -17.167 -16 -31.5 -26
s-30.166 -19.5 -47.499 -28.5s-35.333 -16.667 -54 -23s-35.667 -9.5 -51 -9.5c-8.66699 0 -15.334 1.33301 -20.001 4c-10 -30 -23 -61 -39 -93s-33.667 -63.333 -53 -94s-39.333 -59.834 -60 -87.501s-40.667 -51.834 -60 -72.501s-37 -37 -53 -49s-29 -18 -39 -18
c-5.33301 0 -10 1.5 -14 4.5s-6 6.5 -6 10.5c0 8 6 23.333 18 46s27.333 49.167 46 79.5l62 97.5l67 101.5l61 90.5l43 64c1.33301 8 3.83301 15 7.5 21s8.83398 10.667 15.501 14l26 40l27 41c8.66699 12.667 15.834 23.667 21.501 33s8.83398 14.333 9.50098 15
s1 1.66699 1 3s-0.666992 2 -2 2c-0.666992 0 -1.66699 -0.666992 -3 -2c-5.33301 -8.66699 -15 -20.834 -29 -36.501l-45.5 -49.5c-16.333 -17.333 -32.833 -34 -49.5 -50s-30.334 -28 -41.001 -36h-23l11 9.5l11 9.5c37.333 34 69.5 64.833 96.5 92.5
s49.167 51.167 66.5 70.5c20.667 22.667 38 43.334 52 62.001c1.33301 1.33301 5.83301 7.83301 13.5 19.5l29 43l37 55l37.5 56.5l31 47l17 26c8 12.667 15.667 19 23 19c3.33301 0 6.16602 -1.16699 8.49902 -3.5s3.5 -5.16602 3.5 -8.49902zM80.9961 82
c-1.33301 -1.33301 -2.16797 -2.83594 -2.50098 -4.50293s-1.16602 -3.16699 -2.49902 -4.5s-2.33301 -2.66602 -3 -3.99902c-1.33301 -1.33301 -2 -2.33301 -2 -3c0 -5.33301 0.666992 -9.83301 2 -13.5l4 -10.5c1.33301 6.66699 2.33301 13.334 3 20.001
s1 13.334 1 20.001zM68.9941 10.9971c-7.33301 8 -12 18.999 -14 32.999l-42.5 -63.5l-56.5 -85l-60.5 -93.5l-55.5 -88c-16.667 -26.667 -30.167 -49.5 -40.5 -68.5s-15.5 -30.833 -15.5 -35.5c0 -1.33301 0.666992 -2 2 -2c6.66699 0 17 5.66699 31 17
s30.167 26.833 48.5 46.5s37.5 42.667 57.5 69s39.5 54.5 58.5 84.5s36.167 60.833 51.5 92.5s27.333 62.834 36 93.501z" />
    <glyph glyph-name="g" unicode="g" horiz-adv-x="253" 
d="M255 84c-10 -10.667 -25.998 -23.002 -47.998 -37.002l-102 -61.5l-95 -61.5l-73 -121c-26 -42.667 -52.333 -81.667 -79 -117s-52.834 -64.666 -78.501 -87.999s-49.5 -35 -71.5 -35c-13.333 0 -22.666 2.66699 -27.999 8s-8 12.333 -8 21c0 20.667 7.66699 44 23 70
s37.166 53.5 65.499 82.5s62.5 59.5 102.5 91.5s85 64.667 135 98c9.33301 14.667 17.333 28.167 24 40.5l18 32.5l16 29c0 2 -0.333008 3 -1 3h-2l-17.5 -11.5c-7.66699 -5 -15.834 -9.83301 -24.501 -14.5s-17.334 -8.66699 -26.001 -12s-16.334 -5 -23.001 -5
c-14 0 -21 8.33301 -21 25c0 14 7 29 21 45s30 30.833 48 44.5s35.5 25.167 52.5 34.5s28.833 14 35.5 14c3.33301 0 7 -1.5 11 -4.5s6 -6.16699 6 -9.5c0 -1.33301 -4.33301 -3.33301 -13 -6c-15.333 -4 -31.166 -10.833 -47.499 -20.5s-31 -19.834 -44 -30.501
s-23.667 -21 -32 -31s-12.5 -17.667 -12.5 -23c0 -9.33301 6 -14 18 -14c8 0 17.5 3.16699 28.5 9.5s22 14 33 23s21.333 18.333 31 28s16.834 17.834 21.501 24.501c8 10.667 14.667 16 20 16c2 0 4 -0.666992 6 -2s3 -3.33301 3 -6s-0.666992 -6 -2 -10
c-0.666992 -1.33301 -2.16699 -4 -4.5 -8s-5 -8.16699 -8 -12.5l-9 -12.5c-3 -4 -5.16699 -7 -6.5 -9c-8.66699 -11.333 -18.834 -26.166 -30.501 -44.499l-38.5 -61.5l78 48.5l83 49.5c11.333 6.66699 21.833 13.667 31.5 21s17.834 14.333 24.501 21zM-21.998 -99.002
c-41.333 -29.333 -79.332 -58.1689 -113.999 -86.502s-64.334 -55.5 -89.001 -81.5s-43.834 -50.333 -57.501 -73s-20.5 -43 -20.5 -61c0 -12 8.33301 -18 25 -18c14 0 31.333 10.333 52 31s42.834 46.834 66.501 78.501s47.5 66.334 71.5 104.001z" />
    <glyph glyph-name="h" unicode="h" horiz-adv-x="342" 
d="M445 620c0 -17.333 -8.33789 -40.665 -25.0049 -69.998s-38.167 -61.333 -64.5 -96s-56 -70.667 -89 -108l-98 -106.5c-32.333 -33.667 -63 -64 -92 -91s-52.5 -47.833 -70.5 -62.5c-5.33301 -12.667 -9.5 -23.667 -12.5 -33s-4.5 -17 -4.5 -23
c0 -4.66699 0.833008 -8.66699 2.5 -12s3.83398 -5 6.50098 -5c8 0 20.833 5.5 38.5 16.5s35.667 23.333 54 37l50.5 37c15.333 11 24.333 16.5 27 16.5s4.66699 -0.666992 6 -2c3.33301 -2.66699 5 -5.66699 5 -9c0 -4 -1.5 -8.33301 -4.5 -13l-9.5 -15
c-3.33301 -5.33301 -6.33301 -10.833 -9 -16.5s-4 -11.5 -4 -17.5c0 -11.333 2.5 -19 7.5 -23s11.167 -6 18.5 -6c12 0 25.333 2.5 40 7.5s29.334 11.167 44.001 18.5s28.334 15.666 41.001 24.999s23 18 31 26l10 -11c-6.66699 -7.33301 -17.167 -16 -31.5 -26
s-30.166 -19.5 -47.499 -28.5s-35.333 -16.667 -54 -23s-35.667 -9.5 -51 -9.5c-13.333 0 -22.666 4.5 -27.999 13.5s-8 19.167 -8 30.5c0 8.66699 1 17 3 25c0 1.33301 -0.666992 2 -2 2c-2.66699 0 -10 -4 -22 -12l-40 -26l-42.5 -26c-13.667 -8 -23.5 -12 -29.5 -12
c-16.667 0 -25 10 -25 30c0 16 5.16699 37.167 15.5 63.5s24.333 55.5 42 87.5s38 66 61 102s47.167 71.5 72.5 106.5s51 68.333 77 100s51 59.667 75 84s45.667 43.666 65 57.999s35.333 21.5 48 21.5c5.33301 0 10.5 -1.83301 15.5 -5.5s7.5 -10.167 7.5 -19.5z
M427.995 615.001c0 10 -4.66699 14.9961 -14 14.9961c-11.333 0 -27 -8.66699 -47 -26s-42.167 -40.166 -66.5 -68.499s-50 -60.666 -77 -96.999s-53.167 -73.666 -78.5 -111.999l-71 -112c-22 -36.333 -40 -69.166 -54 -98.499l81.5 76.5l89.5 91.5l88 97.5
c28.667 33 54 64.333 76 94s39.667 56.667 53 81s20 43.833 20 58.5z" />
    <glyph glyph-name="i" unicode="i" horiz-adv-x="179" 
d="M146 280c0 -5.33301 -2.66797 -11.332 -8.00098 -17.999s-10.666 -10 -15.999 -10c-6 0 -9 3.33301 -9 10c0 5.33301 2.83301 11.166 8.5 17.499s11.5 9.5 17.5 9.5c4.66699 0 7 -3 7 -9zM179.999 83.001c-6.66699 -7.33301 -17.1689 -15.999 -31.502 -25.999
s-30.166 -19.5 -47.499 -28.5s-35.333 -16.667 -54 -23s-35.667 -9.5 -51 -9.5c-11.333 0 -19.166 2.66699 -23.499 8s-6.5 12.333 -6.5 21c0 10.667 2.83301 22.834 8.5 36.501s12.167 26.5 19.5 38.5s14.666 22 21.999 30s12.666 12 15.999 12c2.66699 0 5 -1.33301 7 -4
c1.33301 -2.66699 2 -5 2 -7c0 -2.66699 -2.5 -7.83398 -7.5 -15.501l-16.5 -26c-6 -9.66699 -11.5 -19.5 -16.5 -29.5s-7.5 -18.667 -7.5 -26c0 -11.333 7 -17 21 -17c12 0 25.333 2.5 40 7.5s29.334 11.167 44.001 18.5s28.334 15.666 41.001 24.999s23 18 31 26z" />
    <glyph glyph-name="j" unicode="j" horiz-adv-x="200" 
d="M146 280c0 -5.33301 -3 -11.832 -9 -19.499s-11.667 -11.5 -17 -11.5c-6 0 -9 3.33301 -9 10c0 5.33301 3.16699 11.666 9.5 18.999s12.5 11 18.5 11c4.66699 0 7 -3 7 -9zM196 79.001c-4.66699 -5.33301 -10.833 -10.832 -18.5 -16.499l-27.5 -19.5l-97.5 -66.5
l-118.5 -85.5l-92 -133c-32 -44.667 -62.833 -85.167 -92.5 -121.5s-56.834 -65.833 -81.501 -88.5s-44 -34 -58 -34c-14.667 0 -22 14 -22 42c0 18.667 9.16699 41 27.5 67s42.833 54.167 73.5 84.5s66 62 106 95l124 97.5l52 80l42 68c12 20 21.333 36.667 28 50
s10 21.666 10 24.999l-1 1c-2 0 -5.16699 -1.66699 -9.5 -5s-9.16602 -7.5 -14.499 -12.5l-17.5 -16.5c-6.33301 -6 -12.833 -11.333 -19.5 -16l-14 5l60.5 62c17 18 31.5 27 43.5 27c3.33301 0 5.5 -1.5 6.5 -4.5s1.5 -5.83301 1.5 -8.5s-1 -6.66699 -3 -12
c-2.66699 -6.66699 -7.66699 -17 -15 -31s-16.5 -30.333 -27.5 -49l-37.5 -62l-45 -71l93.5 66l87.5 58c9.33301 6 17.833 12 25.5 18s14.5 12 20.5 18zM-108.999 -140.998l-103 -83.5c-33.333 -28.333 -63 -55.5 -89 -81.5s-46.833 -50 -62.5 -72s-23.5 -41 -23.5 -57
c0 -14.667 4.33301 -22 13 -22c10 0 24.5 9.33301 43.5 28s40.5 43 64.5 73s49.667 63.833 77 101.5z" />
    <glyph glyph-name="k" unicode="k" horiz-adv-x="390" 
d="M422 599c0 -19.333 -9.5 -43.4912 -28.5 -72.4912s-43.667 -59.833 -74 -92.5s-64.333 -65.834 -102 -99.501s-74.834 -64.834 -111.501 -93.501l-52.5 -80c-16.333 -25.333 -30.5 -48.166 -42.5 -68.499s-21.333 -37.333 -28 -51s-10 -22.5 -10 -26.5
c9.33301 0 20 5.16699 32 15.5s24.667 23.166 38 38.499l43 50.5c15.333 18.333 31 35.166 47 50.499s32.333 28.166 49 38.499s33.334 15.5 50.001 15.5c10 0 18.833 -4 26.5 -12s11.5 -17.333 11.5 -28c0 -14.667 -4.83301 -27.5 -14.5 -38.5
s-21.334 -20.167 -35.001 -27.5s-27.5 -13.333 -41.5 -18l-34 -11c-7.33301 -2 -11 -7.66699 -11 -17c0 -19.333 6.33301 -32.833 19 -40.5s28 -11.5 46 -11.5c12 0 24.833 1.33301 38.5 4s26.667 6 39 10s23.5 8.16699 33.5 12.5s18 8.16602 24 11.499
c20 12.667 36 25 48 37l10 -11c-4.66699 -5.33301 -11 -11.166 -19 -17.499s-17.667 -12.833 -29 -19.5c-8 -4.66699 -18 -9.83398 -30 -15.501s-24.833 -10.834 -38.5 -15.501s-27.834 -8.5 -42.501 -11.5s-28.667 -4.5 -42 -4.5c-11.333 0 -22.166 1.33301 -32.499 4
s-19.333 7.16699 -27 13.5s-13.667 14.833 -18 25.5s-6.5 23.667 -6.5 39c0 4 1 7 3 9c1.33301 1.33301 5.16602 2.66602 11.499 3.99902s14.166 3.33301 23.499 6l25.5 8.5c11 3.66699 21.833 9 32.5 16s19.834 15.667 27.501 26s11.5 23.166 11.5 38.499
c0 5.33301 -1.66699 10 -5 14s-7.33301 6 -12 6c-13.333 0 -27.5 -5.5 -42.5 -16.5s-30.5 -24.5 -46.5 -40.5s-32 -33.667 -48 -53s-31.667 -37 -47 -53s-30 -29.5 -44 -40.5s-26.667 -16.5 -38 -16.5c-3.33301 0 -6.66602 1.33301 -9.99902 4s-5 5.66699 -5 9
c0 7.33301 5.33301 21.666 16 42.999s25 47 43 77s38.833 63 62.5 99l74 109c25.667 36.667 51.834 72.167 78.501 106.5s51.834 64.833 75.501 91.5s45.167 48 64.5 64s34.666 24 45.999 24c4 0 8 -1 12 -3s6 -7 6 -15zM404 594.009c0 4 -1.33203 5.99902 -3.99902 5.99902
c-8 0 -21.167 -9 -39.5 -27s-39.5 -41.667 -63.5 -71s-49.667 -62.666 -77 -99.999l-81 -113c43.333 32.667 81.5 65.5 114.5 98.5s60.667 63.5 83 91.5s39.166 52.167 50.499 72.5s17 34.5 17 42.5z" />
    <glyph glyph-name="l" unicode="l" horiz-adv-x="261" 
d="M442 606c0 -15.333 -7.50098 -36.335 -22.501 -63.002s-34.5 -56.167 -58.5 -88.5s-51.333 -66.333 -82 -102s-62 -70.167 -94 -103.5s-63.167 -64 -93.5 -92s-56.833 -50.667 -79.5 -68v-10c0 -23.333 5.66699 -41.5 17 -54.5s30.333 -19.5 57 -19.5
c11.333 0 24.833 3.16699 40.5 9.5s31.334 14 47.001 23s30.667 18.833 45 29.5s25.5 20 33.5 28l10 -11c-6.66699 -7.33301 -17.334 -16.666 -32.001 -27.999s-31 -22.166 -49 -32.499s-36.5 -19.166 -55.5 -26.499s-36.167 -11 -51.5 -11
c-31.333 0 -53.666 7.83301 -66.999 23.5s-20 37.167 -20 64.5c0 29.333 7 63.5 21 102.5s32.667 79.167 56 120.5s50 82 80 122s60.667 75.667 92 107s62.5 56.666 93.5 75.999s58.833 29 83.5 29c19.333 0 29 -8.33301 29 -25zM418.999 599.998
c0 11.333 -5.66797 17.001 -17.001 17.001c-16.667 0 -37.167 -8.5 -61.5 -25.5s-50 -39.333 -77 -67s-54.167 -59.167 -81.5 -94.5s-52.5 -71.833 -75.5 -109.5s-42.667 -74.667 -59 -111s-27.166 -69.166 -32.499 -98.499c21.333 15.333 46 36.166 74 62.499
s57 55.5 87 87.5s59.5 65.167 88.5 99.5s55 67.166 78 98.499s41.5 59.5 55.5 84.5s21 43.833 21 56.5z" />
    <glyph glyph-name="m" unicode="m" horiz-adv-x="541" 
d="M543 84c-6.66699 -7.33301 -17.6699 -16.168 -33.0029 -26.501s-32.5 -20.166 -51.5 -29.499s-38.667 -17.333 -59 -24s-38.5 -10 -54.5 -10c-12 0 -21.833 2.5 -29.5 7.5s-11.5 13.167 -11.5 24.5c0 6 1.16699 12.333 3.5 19s4.83301 12.667 7.5 18
c0.666992 0.666992 -2 -0.666016 -8 -3.99902l-23 -13l-31 -18c-11.333 -6.66699 -22.5 -12.834 -33.5 -18.501s-21.167 -10.5 -30.5 -14.5s-16.333 -6 -21 -6c-9.33301 0 -15.666 3.16699 -18.999 9.5s-5 12.5 -5 18.5c0 12 2.33301 22.167 7 30.5s7 14.166 7 17.499
c0 1.33301 -0.666992 2 -2 2c-8 -4 -19.167 -10.333 -33.5 -19l-43.5 -26c-14.667 -8.66699 -28.5 -16.167 -41.5 -22.5s-22.167 -9.5 -27.5 -9.5s-9.83301 2 -13.5 6s-5.5 7.66699 -5.5 11c0 5.33301 2.33301 12.833 7 22.5s9.83398 19.667 15.501 30l15.5 29
c4.66699 9 7 15.167 7 18.5c0 1.33301 -0.666992 2 -2 2c-3.33301 0 -7.66602 -2.66699 -12.999 -8c-4.66699 -4.66699 -9.33398 -9 -14.001 -13l-14 -12h-23l11 9.5l11 9.5l11.5 11c5 4.66699 10.5 9.16699 16.5 13.5s12 8 18 11s11.333 4.5 16 4.5c8 0 12 -5.66699 12 -17
c0 -4.66699 -2.33301 -11.667 -7 -21l-15 -30l-15 -30c-4.66699 -9.33301 -7 -16.666 -7 -21.999c0 -2.66699 1 -4 3 -4c18.667 7.33301 37.834 16.833 57.501 28.5s38.167 23.334 55.5 35.001l45.5 30c13 8.33301 22.167 12.5 27.5 12.5c2.66699 0 4.66699 -1.5 6 -4.5
s2 -5.5 2 -7.5c0 -4 -2.66699 -9 -8 -15l-18 -20.5c-6.66699 -7.66699 -12.667 -15.834 -18 -24.501s-8 -17.667 -8 -27c0 -7.33301 2.66699 -11 8 -11s13.333 2.5 24 7.5s22.5 11.5 35.5 19.5l39.5 25l37.5 25c11.667 8 21.5 14.5 29.5 19.5s12.667 7.5 14 7.5
c2.66699 0 4.66699 -1.83301 6 -5.5s2 -6.5 2 -8.5c0 -2.66699 -1.66699 -6.66699 -5 -12l-11 -18c-4 -6.66699 -7.66699 -13.5 -11 -20.5s-5 -13.167 -5 -18.5c0 -13.333 8.66699 -20 26 -20c12 0 26.5 3 43.5 9s33.833 13.333 50.5 22s32.5 18.167 47.5 28.5
s26.5 19.5 34.5 27.5z" />
    <glyph glyph-name="n" unicode="n" horiz-adv-x="372" 
d="M374 84c-6.66699 -7.33301 -17.6689 -16.1709 -33.002 -26.5039s-32.5 -20.166 -51.5 -29.499s-38.667 -17.333 -59 -24s-38.5 -10 -54.5 -10c-12 0 -21.833 2.5 -29.5 7.5s-11.5 13.167 -11.5 24.5c0 6 1.16699 12.333 3.5 19s4.83301 12.667 7.5 18
c0.666992 1.33301 -5.33301 -1.5 -18 -8.5l-44 -24c-16.667 -9 -33 -17.333 -49 -25s-27.667 -11.5 -35 -11.5c-10 0 -15 4.66699 -15 14c0 7.33301 2.83301 16.666 8.5 27.999s11.834 22.333 18.501 33l18 28.5c5.33301 8.33301 7.66602 12.833 6.99902 13.5
c-2 0 -4.66699 -1.33301 -8 -4l-11.5 -9.5l-13 -11.5c-4.33301 -4 -8.16602 -7.33301 -11.499 -10h-23l11 9.5l11 9.5l11.5 11c5 4.66699 10.5 9.16699 16.5 13.5s12 8 18 11s11.333 4.5 16 4.5c8 0 12 -5.66699 12 -17c0 -3.33301 -2.5 -9.16602 -7.5 -17.499l-17 -27.5
c-6.33301 -10 -12 -19.667 -17 -29s-7.5 -16.666 -7.5 -21.999c0 -2.66699 1 -4 3 -4c3.33301 0 9.5 2.16699 18.5 6.5s19.167 9.83301 30.5 16.5l35.5 21.5l34.5 21.5c10.667 6.66699 19.834 12.167 27.501 16.5s12.167 6.5 13.5 6.5c2.66699 0 4.66699 -1.83301 6 -5.5
s2 -6.5 2 -8.5c0 -2.66699 -1.33301 -6.5 -4 -11.5l-9 -17c-3.33301 -6.33301 -6.33301 -12.666 -9 -18.999s-4 -12.166 -4 -17.499c0 -13.333 8.66699 -20 26 -20c12 0 26.5 3 43.5 9s33.833 13.333 50.5 22s32.5 18.167 47.5 28.5s26.5 19.5 34.5 27.5z" />
    <glyph glyph-name="o" unicode="o" horiz-adv-x="253" 
d="M255 84c-15.333 -15.333 -32.167 -26.834 -50.5 -34.501s-36.166 -11.5 -53.499 -11.5c-13.333 0 -25.666 2.5 -36.999 7.5s-21 12.167 -29 21.5c-5.33301 -10 -11.833 -19.667 -19.5 -29s-16.334 -17.666 -26.001 -24.999s-19.834 -13.166 -30.501 -17.499
s-21.334 -6.5 -32.001 -6.5c-20 0 -30 9.66699 -30 29c0 14 7.5 31.667 22.5 53s40.833 43.666 77.5 66.999c6 -2.66699 9 -7 9 -13c0 -2 -1 -4 -3 -6c-5.33301 -2.66699 -12.5 -7.33398 -21.5 -14.001s-18 -14.667 -27 -24s-16.833 -19.333 -23.5 -30s-10 -21.667 -10 -33
c0 -8.66699 4.66699 -13 14 -13c8 0 16.5 2.5 25.5 7.5s17.667 11.5 26 19.5s15.833 16.833 22.5 26.5s11.334 19.5 14.001 29.5c-2 6 -3.66699 12.333 -5 19s-2 14.334 -2 23.001c0 2 0.5 4.5 1.5 7.5s3.16699 4.5 6.5 4.5c6.66699 0 12.167 -4.33301 16.5 -13
s6.5 -16 6.5 -22c0 -2.66699 -0.166992 -5 -0.5 -7s-0.833008 -4.33301 -1.5 -7c4.66699 -12 12.5 -21 23.5 -27s23.833 -9 38.5 -9c15.333 0 30.833 3.16699 46.5 9.5s29.5 15.833 41.5 28.5z" />
    <glyph glyph-name="p" unicode="p" horiz-adv-x="264" 
d="M266 84c-36.667 -34.667 -74.333 -58.666 -113 -71.999s-73.334 -20 -104.001 -20c-19.333 0 -36 2 -50 6s-23.667 8.66699 -29 14l-95 -151c-32.667 -51.333 -65.167 -98 -97.5 -140s-64.166 -76.333 -95.499 -103s-61 -40 -89 -40c-30 0 -45 11.333 -45 34
c0 15.333 6.66699 35.166 20 59.499s31.333 50.666 54 78.999s48.667 58 78 89s60 61.167 92 90.5s64.333 57 97 83s63.334 48.333 92.001 67l30 47.5l25 38.5c8 11.333 14.833 20.333 20.5 27s10.167 10 13.5 10s6.16602 -1.66699 8.49902 -5s3.5 -6.33301 3.5 -9
c0 -6 -3 -12.667 -9 -20l-20 -29l-21 -31c13.333 6.66699 25.666 11.834 36.999 15.501s21.333 5.5 30 5.5c17.333 0 29.666 -2.66699 36.999 -8s11 -12.666 11 -21.999c0 -10 -3.5 -19.833 -10.5 -29.5s-15.167 -18.667 -24.5 -27s-18.666 -15.5 -27.999 -21.5
s-16.666 -10 -21.999 -12c32.667 1.33301 66.5 9.66602 101.5 24.999s65.833 35.333 92.5 60zM115.001 97.001c0 12 -7 18 -21 18c-9.33301 0 -20.5 -2.5 -33.5 -7.5s-27.167 -11.833 -42.5 -20.5l-19.5 -30l-19.5 -31c4 -2 9 -4.83301 15 -8.5s16.667 -6.16699 32 -7.5
c10.667 3.33301 21.334 8.33301 32.001 15s20.167 14 28.5 22s15.166 16.333 20.499 25s8 17 8 25zM-33.999 54.001c-27.333 -19.333 -56.167 -41.667 -86.5 -67s-60.333 -52 -90 -80s-58 -56.5 -85 -85.5s-50.667 -56.5 -71 -82.5s-36.5 -49.5 -48.5 -70.5
s-18 -37.833 -18 -50.5c0 -15.333 9.33301 -23 28 -23c16 0 34 7.16699 54 21.5s40.667 33.5 62 57.5s43.333 51.667 66 83s45 64 67 98l64 102.5z" />
    <glyph glyph-name="q" unicode="q" horiz-adv-x="278" 
d="M280 84c-20 -18.667 -41.167 -34.833 -63.5 -48.5s-44.166 -25 -65.499 -34s-41.666 -15.833 -60.999 -20.5s-36 -7 -50 -7h-9c-1.33301 0 -2.33301 0.333008 -3 1l-2 -2c3.33301 -16.667 5 -32.334 5 -47.001c0 -28.667 -4.66699 -57.834 -14 -87.501
s-21.333 -58.5 -36 -86.5s-31.167 -54.333 -49.5 -79s-36.666 -46.167 -54.999 -64.5s-35.833 -32.833 -52.5 -43.5s-30.334 -16 -41.001 -16c-22 0 -33 12.333 -33 37c0 19.333 8.16699 44 24.5 74s37 62.833 62 98.5s52.5 72.834 82.5 111.501l85 113
c-4 2.66699 -6 6.66699 -6 12c0 4.66699 2.33301 7 7 7c1.33301 0 2.66602 -0.333008 3.99902 -1c2.66699 -1.33301 5 -2 7 -2l16 24c-0.666992 -0.666992 -3.66699 -2.66699 -9 -6s-11.833 -6.5 -19.5 -9.5s-15.834 -5.83301 -24.501 -8.5s-16.334 -4 -23.001 -4
s-12.167 1.5 -16.5 4.5s-6.5 8.16699 -6.5 15.5c0 14 6.66699 28.167 20 42.5s28.666 27.333 45.999 39s34 21 50 28s26.667 10.5 32 10.5c2 0 4 -0.333008 6 -1c4.66699 -1.33301 7 -3.66602 7 -6.99902c0 -8.66699 -3 -13 -9 -13
c-12.667 -0.666992 -26.667 -4.5 -42 -11.5s-29.833 -15.5 -43.5 -25.5s-25 -20.167 -34 -30.5s-13.5 -19.166 -13.5 -26.499s4.66699 -11.333 14 -12c7.33301 0 16.333 2.5 27 7.5s21.5 11.667 32.5 20s22 17.833 33 28.5s20.833 21.667 29.5 33
c2.66699 3.33301 5.33398 5.5 8.00098 6.5s5.33398 1.5 8.00098 1.5c8 0 12 -4.33301 12 -13c0 -6.66699 -2.83301 -13.167 -8.5 -19.5l-13.5 -15.5l-50 -62c0.666992 -0.666992 1.66699 -1 3 -1h9c11.333 0 24.333 1.33301 39 4s31 7.66699 49 15s37.5 17.666 58.5 30.999
s43.5 30.333 67.5 51zM14 -93.999c0 15.333 -2.00098 30.666 -6.00098 45.999l-79.5 -100.5c-27.667 -35.667 -53.167 -70.167 -76.5 -103.5s-42.666 -64.333 -57.999 -93s-23 -51.667 -23 -69c0 -10.667 4.66699 -16 14 -16c10.667 0 23.834 4.83301 39.501 14.5
s32 22.834 49 39.501s33.833 36 50.5 58s31.667 45.5 45 70.5s24.166 50.667 32.499 77s12.5 51.833 12.5 76.5z" />
    <glyph glyph-name="r" unicode="r" horiz-adv-x="260" 
d="M262 84c-6.66699 -7.33301 -17.1689 -16.0039 -31.502 -26.0039s-30.166 -19.5 -47.499 -28.5s-35.333 -16.667 -54 -23s-35.667 -9.5 -51 -9.5c-12 0 -22.667 2.83301 -32 8.5s-14 14.834 -14 27.501c0 7.33301 3.83301 17.166 11.5 29.499s16.5 23.833 26.5 34.5
c-17.333 4 -27.666 11.333 -30.999 22l-23 -22l-23 -21h-23l11 9.5l11 9.5c11.333 10 21.833 20.333 31.5 31s16.5 20.667 20.5 30c4 6.66699 8.66699 12.334 14 17.001s11 7.66699 17 9c4.66699 0 7 -1.33301 7 -4c0 -2 -1.16699 -4.33301 -3.5 -7l-7.5 -8.5
c-2.66699 -3 -5.16699 -6.33301 -7.5 -10s-3.5 -7.16699 -3.5 -10.5c0 -7.33301 2 -13.166 6 -17.499s12 -7.16602 24 -8.49902c7.33301 6 13.333 9 18 9c2.66699 0 4.66699 -1.16699 6 -3.5s2 -4.5 2 -6.5c0 -2.66699 -3 -7 -9 -13l-20 -20.5
c-7.33301 -7.66699 -14 -16 -20 -25s-9 -18.167 -9 -27.5c0 -5.33301 2.5 -9.66602 7.5 -12.999s10.167 -5 15.5 -5c17.333 0 36.666 4.5 57.999 13.5s40.333 18.5 57 28.5c11.333 6.66699 21.833 13.667 31.5 21s17.834 14.333 24.501 21z" />
    <glyph glyph-name="s" unicode="s" horiz-adv-x="222" 
d="M227 85l-5.00195 -5c-1.33301 -1.33301 -3.16602 -2.83301 -5.49902 -4.5s-5.16602 -3.83398 -8.49902 -6.50098c-12 -9.33301 -27 -18.666 -45 -27.999s-37 -17.833 -57 -25.5s-40 -14 -60 -19s-37.667 -7.5 -53 -7.5c-14 0 -25.333 2.5 -34 7.5s-13 13.167 -13 24.5
c0 5.33301 2 10 6 14s8.66699 6 14 6s8.33301 -2.66699 9 -8c1.33301 -7.33301 3 -12.333 5 -15s4.66699 -4.33398 8 -5.00098c11.333 0.666992 23.166 5.5 35.499 14.5s23.666 19.667 33.999 32s18.833 24.833 25.5 37.5s10 22.667 10 30s-3.33301 11 -10 11
c-7.33301 0 -17 -4.16699 -29 -12.5s-24.667 -18.166 -38 -29.499l-23 -20h-23l11 9.5l11 9.5c28.667 26.667 50.334 44.667 65.001 54s27.334 14 38.001 14c16.667 0 25 -7.66699 25 -23c0 -8.66699 -2.33301 -18.5 -7 -29.5s-11.167 -22.333 -19.5 -34
s-18 -23.167 -29 -34.5s-22.5 -21 -34.5 -29c28 3.33301 57.667 10.833 89 22.5s60 28.167 86 49.5h22z" />
    <glyph glyph-name="t" unicode="t" horiz-adv-x="178" 
d="M460 295c0 -6 -1.66992 -10.6689 -5.00293 -14.002s-10.666 -5 -21.999 -5c-3.33301 0.666992 -13.833 1.33398 -31.5 2.00098s-39.667 1.33398 -66 2.00098s-55.5 1.33398 -87.5 2.00098l-97 2l-61.5 -80.5l-54.5 -74.5c-16 -22.667 -29 -42.334 -39 -59.001
s-15 -28.667 -15 -36c0 -14.667 5.33301 -22 16 -22c12 0 26.333 2.83301 43 8.5s33.167 12.667 49.5 21s31.833 17.333 46.5 27s26 18.5 34 26.5l10 -11c-6.66699 -7.33301 -17.167 -16 -31.5 -26s-30.166 -19.5 -47.499 -28.5s-35.333 -16.667 -54 -23
s-35.667 -9.5 -51 -9.5c-9.33301 0 -17.333 2.16699 -24 6.5s-10 11.833 -10 22.5c0 10 4.5 24 13.5 42s20.833 38.5 35.5 61.5s31.5 47.833 50.5 74.5l58.5 80c-34 0.666992 -65.333 1.16699 -94 1.5s-52.667 0.5 -72 0.5c-45.333 0 -85.833 -0.166992 -121.5 -0.5
s-64.167 -0.5 -85.5 -0.5c-7.33301 0 -14.666 1.16699 -21.999 3.5s-11 5.5 -11 9.5c0.666992 2.66699 2.16699 4.66699 4.5 6s4.83301 2.33301 7.5 3s6 1 10 1h25h49.5c19.667 0 41.334 -0.166992 65.001 -0.5s47.5 -0.5 71.5 -0.5c56 -0.666992 119 -1.33398 189 -2.00098
l59.5 80.5c19 25.667 35.5 48.834 49.5 69.501c7.33301 11.333 13.666 18.333 18.999 21s9.33301 4 12 4c2 0 4 -0.666992 6 -2s3 -3.33301 3 -6c0 -4.66699 -2.33301 -10.667 -7 -18c-12 -17.333 -27.833 -39 -47.5 -65l-63.5 -84h67c30 0 60.333 -0.333008 91 -1
c36 -0.666992 74.333 -1 115 -1c5.33301 0 10 -0.5 14 -1.5s6 -3.16699 6 -6.5z" />
    <glyph glyph-name="u" unicode="u" horiz-adv-x="290" 
d="M292 84c-6.66699 -7.33301 -17.165 -16.1689 -31.498 -26.502s-30.5 -20 -48.5 -29s-36.333 -16.667 -55 -23s-35.667 -9.5 -51 -9.5c-8.66699 0 -14.667 2.5 -18 7.5s-5 11.167 -5 18.5c0 12.667 3.66699 28 11 46l-25 -18.5l-35.5 -25
c-12.333 -8.33301 -24 -15.666 -35 -21.999s-19.5 -9.5 -25.5 -9.5c-13.333 0 -20 6.33301 -20 19c0 10 4 22.833 12 38.5s17 30.834 27 45.501s19.667 27.167 29 37.5s15.666 15.5 18.999 15.5s5.83301 -1.5 7.5 -4.5s2.5 -5.5 2.5 -7.5s-3.66699 -7.16699 -11 -15.5
s-15.166 -18 -23.499 -29s-16.166 -22.5 -23.499 -34.5s-11 -22.667 -11 -32c0 -4 2 -6 6 -6c6.66699 0 16 3.5 28 10.5s24.333 15.167 37 24.5s24.667 18.666 36 27.999s19.333 16.333 24 21c8 14 16.167 26 24.5 36s15.166 15 20.499 15c8.66699 0 13 -1.33301 13 -4
s-0.666992 -5 -2 -7c-0.666992 -1.33301 -4.33398 -6.16602 -11.001 -14.499s-14 -18.166 -22 -29.499s-15.167 -22.833 -21.5 -34.5s-9.5 -21.834 -9.5 -30.501c0 -5.33301 1.66699 -9.83301 5 -13.5s10.666 -5.5 21.999 -5.5c12 0 25.167 2.66699 39.5 8s28.333 12 42 20
s26.667 16.5 39 25.5s22.5 17.5 30.5 25.5z" />
    <glyph glyph-name="v" unicode="v" horiz-adv-x="262" 
d="M265 84c-15.333 -15.333 -31.998 -26.665 -49.998 -33.998s-35.667 -11 -53 -11c-12.667 0 -22.5 3.5 -29.5 10.5s-11.5 16.167 -13.5 27.5c-11.333 -11.333 -23.5 -22.333 -36.5 -33s-25.833 -20 -38.5 -28s-24.834 -14.5 -36.501 -19.5s-21.5 -7.5 -29.5 -7.5
c-9.33301 0 -15.666 2.16699 -18.999 6.5s-5 10.166 -5 17.499c0 10 2.66699 21.333 8 34s11.833 24.667 19.5 36s15.167 21 22.5 29s13 12 17 12c7.33301 0 11 -3.33301 11 -10c0 -3.33301 -3 -8.33301 -9 -15s-12.667 -14.667 -20 -24s-14 -19.333 -20 -30
s-9 -21.667 -9 -33c0 -4 2.66699 -6 8 -6c10 0 21.5 3.5 34.5 10.5s25.833 15.167 38.5 24.5s24.667 19 36 29s20.333 18.333 27 25c0 9.33301 1.33301 18.666 4 27.999s6.33398 17.833 11.001 25.5s10 14 16 19s12.667 7.5 20 7.5c4 0 6.66699 -1.5 8 -4.5
s2 -6.16699 2 -9.5c0 -7.33301 -3.83301 -16.833 -11.5 -28.5s-17.834 -24.167 -30.501 -37.5c0 -13.333 3.66699 -23 11 -29s16.666 -9 27.999 -9c12.667 0 26.167 3.33301 40.5 10s27.166 16 38.499 28z" />
    <glyph glyph-name="w" unicode="w" horiz-adv-x="391" 
d="M394 84c-15.333 -15.333 -31.9961 -26.667 -49.9961 -34s-35.667 -11 -53 -11c-13.333 0 -23.333 3.66699 -30 11s-11 16.666 -13 27.999c-11.333 -10.667 -23.5 -21 -36.5 -31s-25.833 -19 -38.5 -27s-24.834 -14.333 -36.501 -19s-21.5 -7 -29.5 -7
c-8.66699 0 -15 2.83301 -19 8.5s-6 12.167 -6 19.5c0 9.33301 3.16699 17.833 9.5 25.5s9.5 13.167 9.5 16.5c0 2 -1 3 -3 3l-23 -13c-10.667 -6 -22.167 -12 -34.5 -18s-24.5 -11.333 -36.5 -16s-21.333 -7 -28 -7c-10.667 0 -16 5.66699 -16 17
c0 12 4.5 25.167 13.5 39.5s19 27.666 30 39.999s21.333 22.833 31 31.5s15.5 13 17.5 13c3.33301 0 6 -1.16699 8 -3.5s3 -4.83301 3 -7.5s-4.16699 -8 -12.5 -16s-17.333 -17.333 -27 -28s-18.667 -21.667 -27 -33s-12.5 -21.333 -12.5 -30c0 -2.66699 1.66699 -4 5 -4
c9.33301 0 21.833 3.83301 37.5 11.5s31.167 16.5 46.5 26.5l41.5 28c12.333 8.66699 19.5 14 21.5 16c7.33301 6.66699 13.666 10 18.999 10c7.33301 0 11 -3.33301 11 -10c0 -4 -2 -9.16699 -6 -15.5s-8.5 -12.833 -13.5 -19.5s-10.167 -13 -15.5 -19l-13 -15
c-3.33301 -4 -6.66602 -8.83301 -9.99902 -14.5s-5 -10.167 -5 -13.5c0 -4 2.66699 -6 8 -6c10.667 0 22.667 3.66699 36 11s26.5 16 39.5 26s25 20.167 36 30.5l24.5 23.5c0.666992 8.66699 2.5 17.334 5.5 26.001s6.66699 16.5 11 23.5s9.5 12.667 15.5 17
s12.333 6.5 19 6.5c4 0 6.66699 -1.5 8 -4.5s2 -6.16699 2 -9.5c0 -7.33301 -3.83301 -16.666 -11.5 -27.999s-17.834 -23.333 -30.501 -36c0 -14 3.66699 -24.167 11 -30.5s16.666 -9.5 27.999 -9.5c12.667 0 26.167 3.33301 40.5 10s27.166 16 38.499 28z" />
    <glyph glyph-name="x" unicode="x" horiz-adv-x="279" 
d="M281 84c-6.66699 -7.33301 -17.335 -16.6689 -32.002 -28.002s-31 -22.166 -49 -32.499s-36.5 -19.166 -55.5 -26.499s-36.167 -11 -51.5 -11c-22.667 0 -37.5 5.33301 -44.5 16s-10.5 23.334 -10.5 38.001l-41 -26.5l-36 -22.5l-34 -21c-1.33301 0 -3 0.5 -5 1.5
s-3 2.83301 -3 5.5c0 4.66699 2.83301 9.5 8.5 14.5s10.834 8.83301 15.501 11.5l51.5 31c15.667 9.33301 30.167 18.666 43.5 27.999l2 16.5c0.666992 5.66699 1 11.167 1 16.5c0 2.66699 -0.5 5.66699 -1.5 9s-2.5 5 -4.5 5c-3.33301 0 -7.66602 -2.66699 -12.999 -8
c-4.66699 -4.66699 -9.33398 -9 -14.001 -13l-14 -12h-23l11 9.5l11 9.5l11.5 11c5 4.66699 10.5 9.16699 16.5 13.5s12 8 18 11s11.333 4.5 16 4.5c8 0 12 -5.66699 12 -17c0 -5.33301 -0.333008 -11.5 -1 -18.5s-1.66699 -14.167 -3 -21.5l67.5 44.5
c17 11 29.5 16.5 37.5 16.5c4.66699 0 7 -2 7 -6c0 -0.666992 -3.16699 -3.5 -9.5 -8.5s-14.666 -11 -24.999 -18l-35.5 -23.5l-42 -27c0 -14 2.66699 -26 8 -36s16.666 -15 33.999 -15c11.333 0 24.833 3.16699 40.5 9.5s31.334 14 47.001 23s30.667 18.833 45 29.5
s25.5 20 33.5 28z" />
    <glyph glyph-name="y" unicode="y" horiz-adv-x="293" 
d="M295 84c-10 -10.667 -25.998 -23 -47.998 -37l-106.5 -61.5l-105.5 -62.5l-64.5 -80.5l-70 -81.5l-70.5 -76c-23.333 -24 -45.5 -45 -66.5 -63s-40.333 -32.333 -58 -43s-32.5 -16 -44.5 -16c-13.333 0 -22.666 2.66699 -27.999 8s-8 12.333 -8 21
c0 20.667 10 43.5 30 68.5s47.333 51.667 82 80s75.5 58 122.5 89l150.5 95.5l35 44.5l27 35.5c8.66699 12 16.667 22.333 24 31l4 5.5c2.66699 3.66699 5.33398 7.66699 8.00098 12s5 8.33301 7 12l3 5.5c0 2 -0.666992 3 -2 3c-0.666992 0 -6.33398 -3.5 -17.001 -10.5
s-23.5 -14.833 -38.5 -23.5s-30.5 -16.5 -46.5 -23.5s-29 -10.5 -39 -10.5c-14.667 0 -22 6.66699 -22 20c0 9.33301 3.33301 20.5 10 33.5s14.5 25.333 23.5 37s18 21.667 27 30s16.167 12.5 21.5 12.5c3.33301 0 6.5 -0.833008 9.5 -2.5s4.5 -3.16699 4.5 -4.5
c0 -0.666992 -1.66699 -2.66699 -5 -6l-17 -17c-7.33301 -7.33301 -14.5 -15.333 -21.5 -24s-13.167 -17.5 -18.5 -26.5s-8 -17.167 -8 -24.5c0 -4.66699 3.66699 -7 11 -7c13.333 0 29.5 5.16699 48.5 15.5s37.5 22.166 55.5 35.499s34.167 26.5 48.5 39.5
s23.833 21.833 28.5 26.5c11.333 12 19.666 18 24.999 18c3.33301 0 5.83301 -1.16699 7.5 -3.5s2.5 -5.16602 2.5 -8.49902c0 -4 -3.33301 -10.333 -10 -19s-14 -17.667 -22 -27l-23 -26.5c-7.33301 -8.33301 -12 -13.833 -14 -16.5c-7.33301 -12 -17.833 -27 -31.5 -45
l-46.5 -62l84 49l86 50c11.333 6.66699 21.666 13.667 30.999 21s17.666 14.333 24.999 21zM-14.998 -108l-130.001 -84.0029c-40.667 -27.333 -76.167 -53.666 -106.5 -78.999s-54.333 -49 -72 -71s-26.5 -41.667 -26.5 -59c0 -12 8.33301 -18 25 -18
c13.333 0 32 9.83301 56 29.5s50.333 44.834 79 75.501s58.334 64.334 89.001 101.001z" />
    <glyph glyph-name="z" unicode="z" horiz-adv-x="242" 
d="M244 84c-4.66699 -5.33301 -11.333 -11.165 -20 -17.498l-28 -19.5l-103.5 -69.5l-118.5 -81.5c-10.667 -28 -25.167 -55.667 -43.5 -83s-38.666 -53.333 -60.999 -78s-45.666 -47.5 -69.999 -68.5s-48.333 -39.167 -72 -54.5s-45.667 -27.333 -66 -36
s-37.5 -13 -51.5 -13c-22 0 -33 6 -33 18s11 29.5 33 52.5s51 48.833 87 77.5s76.667 59.5 122 92.5l138 97.5c7.33301 23.333 11 45.666 11 66.999c0 14 -1.33301 26 -4 36v9c14.667 0.666992 30 5.5 46 14.5s30.333 19.5 43 31.5s23.167 24.167 31.5 36.5
s12.5 22.5 12.5 30.5s-4.66699 12 -14 12c-7.33301 0 -17 -4.16699 -29 -12.5s-24.667 -18.166 -38 -29.499l-23 -20h-23c27.333 25.333 51.666 46.166 72.999 62.499s38.666 24.5 51.999 24.5c16.667 0 25 -7.66699 25 -23c0 -10 -4 -22.167 -12 -36.5
s-18.167 -28.5 -30.5 -42.5s-26 -26.667 -41 -38s-29.833 -19 -44.5 -23v-10c0 -24.667 -3.33301 -48.334 -10 -71.001l104 71l92 63l30.5 21.5c9.66699 7 18.167 13.833 25.5 20.5zM-52.999 -121.999l-124.999 -89.499c-40.667 -29.667 -76.834 -57.167 -108.501 -82.5
s-57.167 -47.666 -76.5 -66.999s-29 -33.666 -29 -42.999c0 -7.33301 6.33301 -11 19 -11c8 0 19.833 3.66699 35.5 11s33.5 17.666 53.5 30.999s41.167 29.166 63.5 47.499s44 38.333 65 60s40.5 44.667 58.5 69s32.667 49.166 44 74.499z" />
    <glyph glyph-name="braceleft" unicode="{" horiz-adv-x="312" 
d="M540 710c0 -3.33301 -1.66309 -5.00195 -4.99609 -5.00195c-16.667 7.33301 -31.834 12.666 -45.501 15.999s-26.5 5 -38.5 5c-28.667 0 -51.667 -7.16699 -69 -21.5s-31.333 -32.666 -42 -54.999s-18.834 -47.166 -24.501 -74.499l-16.5 -81
c-5.33301 -26.667 -11.333 -51.5 -18 -74.5s-16.334 -41.167 -29.001 -54.5c-8.66699 -9.33301 -18.167 -16.666 -28.5 -21.999s-20.5 -10 -30.5 -14l10 -25c3.33301 -8.66699 5 -18 5 -28c0 -13.333 -4 -27.833 -12 -43.5s-18.167 -32.167 -30.5 -49.5l-40.5 -54.5
c-14.667 -19 -28.334 -38.5 -41.001 -58.5s-23.5 -40.333 -32.5 -61s-14.167 -41.667 -15.5 -63c-1.33301 -20.667 6.5 -39.667 23.5 -57s45.5 -32.666 85.5 -45.999c1.33301 0 2 -0.666992 2 -2c0 -2 -1.66699 -4.16699 -5 -6.5s-6.66602 -3.5 -9.99902 -3.5
c-43.333 13.333 -75.333 28.5 -96 45.5s-31 37.167 -31 60.5c0 18 4.16699 36.667 12.5 56s19 38.833 32 58.5l41.5 60c14.667 20.333 28.5 40.5 41.5 60.5s23.667 39.833 32 59.5s12.5 38.834 12.5 57.501c0 10.667 -1.5 18.167 -4.5 22.5s-6.5 7.5 -10.5 9.5
s-7.5 4 -10.5 6s-4.5 5.33301 -4.5 10c0 3.33301 3 5.33301 9 6c21.333 1.33301 37.666 5.16602 48.999 11.499s20 13.166 26 20.499c14.667 17.333 26 38.666 34 63.999s14.833 51.833 20.5 79.5l17 82.5c5.66699 27.333 13.5 51.833 23.5 73.5s23.5 39.334 40.5 53.001
s39.5 20.5 67.5 20.5c27.333 0 61 -8.66699 101 -26c1.33301 -2.66699 2.5 -4.5 3.5 -5.5s1.5 -2.5 1.5 -4.5v-2z" />
    <glyph glyph-name="bar" unicode="|" horiz-adv-x="318" 
d="M443 606c0 -4 -2.00098 -8 -6.00098 -12l-103 -155.5l-96 -144l-93.5 -141.5l-94.5 -148c-5.33301 -8 -9.16602 -14 -11.499 -18s-6.5 -6 -12.5 -6c-5.33301 0.666992 -8.83301 1.66699 -10.5 3s-2.5 3 -2.5 5c0 3.33301 1 7 3 11s4.33301 7.66699 7 11
c0.666992 1.33301 6.5 10.333 17.5 27l43 65l60.5 91l69 105l69 106l61.5 94l45.5 70c12 18.667 19 29.667 21 33c4 7.33301 10.333 11 19 11c2.66699 0 5.66699 -0.333008 9 -1s5 -2.66699 5 -6z" />
    <glyph glyph-name="braceright" unicode="}" horiz-adv-x="312" 
d="M395 643c0 -18 -4.1709 -36.665 -12.5039 -55.998s-19 -38.833 -32 -58.5l-41.5 -60c-14.667 -20.333 -28.5 -40.5 -41.5 -60.5s-23.667 -39.833 -32 -59.5s-12.5 -38.834 -12.5 -57.501c0 -10.667 1.5 -18.167 4.5 -22.5s6.5 -7.5 10.5 -9.5s7.5 -3.83301 10.5 -5.5
s4.5 -5.16699 4.5 -10.5c0 -3.33301 -3 -5.33301 -9 -6c-21.333 -1.33301 -37.666 -5.16602 -48.999 -11.499s-20 -13.166 -26 -20.499c-14.667 -17.333 -26 -38.666 -34 -63.999s-14.833 -51.833 -20.5 -79.5l-17 -82.5c-5.66699 -27.333 -13.5 -51.833 -23.5 -73.5
s-23.5 -39.334 -40.5 -53.001s-39.5 -20.5 -67.5 -20.5c-27.333 0 -61 8.66699 -101 26c-1.33301 2.66699 -2.5 4.5 -3.5 5.5s-1.5 2.5 -1.5 4.5v2c0 3.33301 1.66699 5 5 5c16.667 -7.33301 31.834 -12.666 45.501 -15.999s26.5 -5 38.5 -5
c28.667 0 51.667 7.16699 69 21.5s31.333 32.666 42 54.999s18.834 47.166 24.501 74.499l16.5 81c5.33301 26.667 11.333 51.5 18 74.5s16.334 41.167 29.001 54.5c8.66699 9.33301 18.167 16.666 28.5 21.999s20.5 10 30.5 14l-10 25c-3.33301 8.66699 -5 18 -5 28
c0 13.333 4 27.833 12 43.5s18.167 32.167 30.5 49.5l40.5 54.5c14.667 19 28.334 38.5 41.001 58.5s23.5 40.333 32.5 61s14.167 41.667 15.5 63c1.33301 20.667 -6.5 39.667 -23.5 57s-45.5 32.666 -85.5 45.999c-1.33301 0 -2 0.666992 -2 2c0 2 1.66699 4.16699 5 6.5
s6.66602 3.5 9.99902 3.5c43.333 -13.333 75.333 -28.5 96 -45.5s31 -37.167 31 -60.5z" />
    <glyph glyph-name="exclamdown" unicode="&#xa1;" horiz-adv-x="221" 
d="M181 175c0 -6.66699 -2.66699 -13.333 -8 -20s-12.333 -10 -21 -10s-13 5 -13 15c0 6 2.5 12.5 7.5 19.5s11.167 10.5 18.5 10.5c5.33301 0 9.33301 -1.5 12 -4.5s4 -6.5 4 -10.5zM130 92.001c0 -1.33301 -5.16699 -11.998 -15.5 -31.998l-39 -74.5l-50.5 -96.5
l-50.5 -96l-38.5 -73.5c-10 -19.667 -14.667 -29.834 -14 -30.501c-4.66699 -10.667 -9.66699 -18 -15 -22s-10.333 -6 -15 -6c-4 0 -7.5 1 -10.5 3s-4.5 4.66699 -4.5 8c0 2 0.333008 3.66699 1 5c0.666992 2 5.66699 10.833 15 26.5l34.5 59l45.5 79.5l50 87.5l46.5 83
l35.5 65.5c7.33301 9.33301 12 15.166 14 17.499s4.33301 3.5 7 3.5s4 -2.33301 4 -7z" />
    <glyph glyph-name="cent" unicode="&#xa2;" horiz-adv-x="188" 
d="M190 256l-2.00195 -3.99902c-1.33301 -2.66699 -4.5 -8 -9.5 -16l-21.5 -35.5l-37 -64.5c7.33301 -1.33301 11 -5.33301 11 -12c0 -4 -1.16699 -8.33301 -3.5 -13s-6.16602 -7 -11.499 -7c-4.66699 0 -7 2 -7 6c0 1.33301 0.333008 2.5 1 3.5s1 2.16699 1 3.5v2
l-26 -45.5l-32 -55.5h7c7.33301 0 16.5 1.83301 27.5 5.5s22.5 8.5 34.5 14.5l6 2c2.66699 0 4 -1.66699 4 -5c0 -4 -1.66699 -7 -5 -9c-13.333 -6.66699 -26.666 -12.167 -39.999 -16.5s-25.333 -6.5 -36 -6.5h-7l-19.5 -34l-20.5 -37
c-1.33301 -2.66699 -3.5 -5.5 -6.5 -8.5s-5.5 -4.5 -7.5 -4.5c-4 0 -6 1.33301 -6 4c0 1.33301 0.333008 2.83301 1 4.5s1.33398 3.16699 2.00098 4.5l43 73c-16.667 4 -25 13.333 -25 28c0 9.33301 3.16699 19.666 9.5 30.999s14.5 22 24.5 32s21 18.833 33 26.5
s23.667 12.167 35 13.5l65 111c0.666992 2 2 4 4 6c3.33301 3.33301 6.66602 5 9.99902 5c2.66699 0 4 -0.666992 4 -2zM97.998 120.001c-7.33301 -2 -15.333 -6.00098 -24 -12.001s-16.5 -12.833 -23.5 -20.5s-12.833 -15.667 -17.5 -24s-7 -16.166 -7 -23.499
c0 -8.66699 4.66699 -15 14 -19l28.5 48z" />
    <glyph glyph-name="sterling" unicode="&#xa3;" horiz-adv-x="272" 
d="M292 218c0 -4.66699 -2.66895 -10.3369 -8.00195 -17.0039s-13 -13.5 -23 -20.5s-22 -14 -36 -21s-29.667 -13.167 -47 -18.5c-4.66699 -5.33301 -9 -11 -13 -17s-8 -11.667 -12 -17h45c3.33301 0 5 -1 5 -3s-0.666992 -4 -2 -6s-2.33301 -3 -3 -3
c-9.33301 -0.666992 -18.166 -1 -26.499 -1h-26.5l-10 -14h49c3.33301 0 5 -1 5 -3s-0.666992 -4 -2 -6s-2.33301 -3 -3 -3c-10 -0.666992 -19.833 -1 -29.5 -1h-28.5l-11 -14c24.667 -4 45.334 -13 62.001 -27s25 -30.667 25 -50c0 -3.33301 -0.666992 -7.5 -2 -12.5
s-3.33301 -9.66699 -6 -14s-5.66699 -8 -9 -11s-6.66602 -4.5 -9.99902 -4.5c-2.66699 0 -4 0.666992 -4 2c0 0.666992 1.66699 2.66699 5 6c3.33301 2.66699 5.66602 7.33398 6.99902 14.001s2 12 2 16c0 21.333 -7.83301 37.333 -23.5 48s-34.834 17.334 -57.501 20.001
c-14.667 -20 -30.667 -36.833 -48 -50.5s-35.666 -20.5 -54.999 -20.5c-10.667 0 -19.167 1.83301 -25.5 5.5s-9.5 8.5 -9.5 14.5s3.33301 12.667 10 20s15.667 14.333 27 21s24.666 12.167 39.999 16.5s32 6.83301 50 7.5l8 12h-42
c-0.666992 0.666992 -1 1.33398 -1 2.00098c0 6.66699 1 10 3 10c7.33301 0.666992 15.166 1 23.499 1s17.166 0.333008 26.499 1c2 2 3.83301 4 5.5 6s3.5 4.33301 5.5 7h-49c-0.666992 0.666992 -1 1.33398 -1 2.00098c0 6.66699 1 10 3 10c7.33301 0.666992 16 1 26 1
s20.333 0.333008 31 1c3.33301 4 6.33301 8 9 12l9 13c-20 -5.33301 -40 -8 -60 -8c-10.667 0 -19.5 1 -26.5 3s-12.167 4.33301 -15.5 7c-4 2.66699 -7 6 -9 10c0 5.33301 3 8 9 8c6.66699 0 13.334 -2.33301 20.001 -7s17 -7 31 -7c10 0 20.333 0.833008 31 2.5
s21.334 4.16699 32.001 7.5c17.333 22 35.333 41.167 54 57.5s37.334 24.5 56.001 24.5c13.333 0 20 -4 20 -12zM275.998 211.997c0 2.66699 -2.33594 4.00293 -7.00293 4.00293c-13.333 0 -26.666 -5.83301 -39.999 -17.5s-26.666 -25.834 -39.999 -42.501
c24.667 9.33301 45.334 19.666 62.001 30.999s25 19.666 25 24.999zM79.9951 41c-13.333 0 -26.1689 -1.83203 -38.502 -5.49902s-23.166 -8 -32.499 -13s-16.666 -10.333 -21.999 -16s-8 -10.5 -8 -14.5c0 -7.33301 7.66699 -11 23 -11c14 0 27.5 5.66699 40.5 17
s25.5 25.666 37.5 42.999z" />
    <glyph glyph-name="currency" unicode="&#xa4;" horiz-adv-x="225" 
d="M248 175c0 -3.33301 -1.50293 -5.83398 -4.50293 -7.50098s-5.83301 -2.5 -8.5 -2.5c-3.33301 0 -5 1.33301 -5 4c0 5.33301 -2.33301 8.83301 -7 10.5s-10.667 2.5 -18 2.5c-18.667 0 -38.167 -6.83301 -58.5 -20.5s-39.166 -29.5 -56.499 -47.5h53c3.33301 0 5 -1 5 -3
s-0.666992 -4 -2 -6s-2.33301 -3 -3 -3c-11.333 -0.666992 -22.166 -1 -32.499 -1h-31.5c-1.33301 -2 -3.16602 -4.33301 -5.49902 -7s-4.16602 -5 -5.49902 -7h61c3.33301 0 5 -1 5 -3s-0.666992 -4 -2 -6s-2.33301 -3 -3 -3c-12 -0.666992 -24 -0.833984 -36 -0.500977
s-23.667 -0.166992 -35 -1.5c-7.33301 -10.667 -13 -20.667 -17 -30s-6 -17.666 -6 -24.999c0 -12.667 7 -19 21 -19c11.333 0 24.333 3.16699 39 9.5s26.667 13.166 36 20.499c0.666992 0.666992 2.33398 1 5.00098 1c5.33301 0 8 -1.66699 8 -5c0 -2 -3 -5.33301 -9 -10
s-13.5 -9.33398 -22.5 -14.001s-18.667 -8.66699 -29 -12s-19.833 -5 -28.5 -5c-11.333 0 -20.833 3 -28.5 9s-11.5 15 -11.5 27c0 14.667 5.66699 32.334 17 53.001h-28c-0.666992 0.666992 -1 1.33398 -1 2.00098c0 6.66699 1 10 3 10s4.83301 0.166992 8.5 0.5
s7.5 0.5 11.5 0.5h14c2.66699 4 6 8.66699 10 14h-32c-0.666992 0.666992 -1 1.33398 -1 2.00098c0 6.66699 1 10 3 10c1.33301 0 4.16602 0.166992 8.49902 0.5s9.16602 0.5 14.499 0.5h18c18.667 22 41 41.167 67 57.5s53 24.5 81 24.5c26 0 39 -6.66699 39 -20z" />
    <glyph glyph-name="yen" unicode="&#xa5;" horiz-adv-x="228" 
d="M279 218c0 -1.33301 -1.16602 -3.50391 -3.49902 -6.50391s-4.16602 -4.83301 -5.49902 -5.5c-10 -2 -20.833 -6.66699 -32.5 -14s-24 -16.333 -37 -27s-26.167 -22.667 -39.5 -36s-26.333 -27.333 -39 -42h43c3.33301 0 5 -1 5 -3s-0.666992 -4 -2 -6s-2.33301 -3 -3 -3
c-9.33301 -0.666992 -18.333 -1 -27 -1h-27l-11 -14h51c3.33301 0 5 -1 5 -3s-0.666992 -4 -2 -6s-2.33301 -3 -3 -3c-10.667 -0.666992 -21 -1 -31 -1h-30c-12.667 -17.333 -23.834 -34.166 -33.501 -50.499s-16.834 -31.166 -21.501 -44.499
c-2 -4.66699 -5.33301 -7 -10 -7c-3.33301 0 -6.5 1.16699 -9.5 3.5s-4.5 5.16602 -4.5 8.49902c8 13.333 17.167 27.5 27.5 42.5l33.5 46.5h-46c-0.666992 0.666992 -1 1.33398 -1 2.00098c0 6.66699 1 10 3 10c7.33301 0.666992 15.666 1 24.999 1s19 0.333008 29 1l10 13
h-52c-0.666992 0.666992 -1 1.33398 -1 2.00098c0 6.66699 1 10 3 10c8 0.666992 17.333 1 28 1s21.667 0.333008 33 1c0.666992 0.666992 1 1.33398 1 2.00098c-1.33301 8 -3.66602 18.5 -6.99902 31.5s-7.83301 26 -13.5 39s-12.167 24.167 -19.5 33.5
s-15.666 14 -24.999 14c-2 1.33301 -3 3.33301 -3 6c0 4 2 7.33301 6 10s6.66699 4 8 4c10 0 18.5 -4.83301 25.5 -14.5s13 -21.167 18 -34.5s9.16699 -27.333 12.5 -42s5.66602 -26.667 6.99902 -36c25.333 29.333 51.5 56 78.5 80s53.5 39.667 79.5 47
c1.33301 0 3 -0.5 5 -1.5s3 -3.5 3 -7.5z" />
    <glyph glyph-name="section" unicode="&#xa7;" horiz-adv-x="195" 
d="M215 214c0 -2 -1.82812 -3.83203 -5.49512 -5.49902s-7.16699 -2.5 -10.5 -2.5c-4.66699 0 -7 2 -7 6c0 8 -2.66699 13.667 -8 17s-12 5 -20 5c-12.667 0 -25.5 -3.33301 -38.5 -10s-19.5 -14.667 -19.5 -24c0 -10 3.33301 -17.833 10 -23.5s14 -11 22 -16
s15.333 -10.5 22 -16.5s10 -14.667 10 -26s-3.33301 -21.5 -10 -30.5s-15 -16.833 -25 -23.5v-1c0 -10.667 -3.33301 -20.834 -10 -30.501s-15 -17.834 -25 -24.501s-21 -12 -33 -16s-23.667 -6 -35 -6c-12.667 0 -23.334 2.83301 -32.001 8.5s-13 15.167 -13 28.5
c0 15.333 4.33301 29 13 41s16.334 18 23.001 18c2.66699 0 5.5 -0.833008 8.5 -2.5s4.5 -3.5 4.5 -5.5s-1.66699 -3.83301 -5 -5.5s-6.83301 -4 -10.5 -7s-7.16699 -7.16699 -10.5 -12.5s-5 -12.666 -5 -21.999s3.33301 -16.166 10 -20.499s15 -6.5 25 -6.5
c8 0 16.333 1.33301 25 4s16.667 6.5 24 11.5s13.333 11.167 18 18.5s7 15.333 7 24c0 8 -3.33301 14.667 -10 20s-13.834 10.666 -21.501 15.999s-14.834 11.5 -21.501 18.5s-10 16.167 -10 27.5c0 7.33301 3.5 14.5 10.5 21.5s15.833 13.167 26.5 18.5
c-1.33301 5.33301 -2 10.333 -2 15c0 6.66699 2.83301 13.167 8.5 19.5s12.667 11.833 21 16.5s17.666 8.5 27.999 11.5s20.166 4.5 29.499 4.5c11.333 0 21.166 -2.5 29.499 -7.5s12.5 -13.5 12.5 -25.5zM149.005 113.001c0 6 -2 11.168 -6 15.501s-9 8.66602 -15 12.999
l-18.5 13c-6.33301 4.33301 -11.5 9.5 -15.5 15.5c-15.333 -7.33301 -23 -15.666 -23 -24.999c0 -8.66699 2.66699 -15.834 8 -21.501s11.333 -10.667 18 -15l20.5 -13.5c7 -4.66699 11.833 -10.667 14.5 -18c11.333 10 17 22 17 36z" />
    <glyph glyph-name="dieresis" unicode="&#xa8;" horiz-adv-x="179" 
d="M166 280c0 -5.33301 -2.66797 -11.332 -8.00098 -17.999s-10.666 -10 -15.999 -10c-6 0 -9 3.33301 -9 10c0 5.33301 2.83301 11.166 8.5 17.499s11.5 9.5 17.5 9.5c4.66699 0 7 -3 7 -9zM75.999 280.001c0 -5.33301 -2.66797 -11.332 -8.00098 -17.999
s-10.666 -10 -15.999 -10c-6 0 -9 3.33301 -9 10c0 5.33301 2.83301 11.166 8.5 17.499s11.5 9.5 17.5 9.5c4.66699 0 7 -3 7 -9z" />
    <glyph glyph-name="copyright" unicode="&#xa9;" horiz-adv-x="360" 
d="M330 177c0 -20 -5.83398 -41.998 -17.501 -65.998s-27.5 -46.333 -47.5 -67s-43 -37.834 -69 -51.501s-53 -20.5 -81 -20.5c-33.333 0 -57 6.66699 -71 20s-21 29.666 -21 48.999c0 20 6.5 41.833 19.5 65.5s30.167 45.667 51.5 66s45.5 37.333 72.5 51
s54.5 20.5 82.5 20.5c28.667 0 49.334 -6.33301 62.001 -19s19 -28.667 19 -48zM308.999 168.002c0 16.667 -5.33203 30.501 -15.999 41.501s-27.667 16.5 -51 16.5c-24.667 0 -49 -6.16699 -73 -18.5s-45.333 -27.5 -64 -45.5s-33.834 -37.5 -45.501 -58.5
s-17.5 -40.167 -17.5 -57.5c0 -16.667 6 -30.334 18 -41.001s32 -16 60 -16c25.333 0 49.5 6 72.5 18s43.167 27 60.5 45s31 37.5 41 58.5s15 40.167 15 57.5zM276 185.003c0 -6.66699 -2.83594 -14.3311 -8.50293 -22.998s-13 -16.667 -22 -24s-18.5 -13.666 -28.5 -18.999
s-19.667 -8 -29 -8c-6 0 -9 3.33301 -9 10c0 7.33301 3.16699 15.666 9.5 24.999s14.5 15.666 24.5 18.999c0.666992 0 1.33398 0.166992 2.00098 0.5s1.66699 0.5 3 0.5c2.66699 0 4 -1 4 -3c0 -1.33301 -1.83301 -3.5 -5.5 -6.5l-12 -10
c-4.33301 -3.66699 -8.33301 -7.5 -12 -11.5s-5.5 -7.66699 -5.5 -11c0 -2 2 -3 6 -3c6 0 13 2.16699 21 6.5s15.833 9.5 23.5 15.5s14 12.5 19 19.5s7.5 13.167 7.5 18.5c0 4 -1.66699 7 -5 9s-9.66602 3 -18.999 3c-14.667 0 -30.667 -5.5 -48 -16.5
s-33.666 -24 -48.999 -39s-28.166 -30.667 -38.499 -47s-15.5 -29.833 -15.5 -40.5c0 -13.333 8 -20 24 -20c10.667 0 22.5 2.66699 35.5 8s23.833 11.333 32.5 18l9 -6c-12.667 -9.33301 -26.667 -17 -42 -23s-28.666 -9 -39.999 -9c-12.667 0 -21.834 2.66699 -27.501 8
s-8.5 12.666 -8.5 21.999c0 13.333 5.16699 28.833 15.5 46.5s23.666 34.5 39.999 50.5s35 29.667 56 41s41.833 17 62.5 17c20 0 30 -6 30 -18z" />
    <glyph glyph-name="ordfeminine" unicode="&#xaa;" horiz-adv-x="240" 
d="M259 135c-4.66699 -5.33301 -11.998 -11.5029 -21.998 -18.5029s-21.167 -13.667 -33.5 -20s-25 -11.666 -38 -15.999s-24.833 -6.5 -35.5 -6.5c-12.667 0 -21.334 4.16699 -26.001 12.5s-7 17.833 -7 28.5c-14.667 -11.333 -30.167 -21.666 -46.5 -30.999
s-28.5 -14 -36.5 -14c-13.333 0 -20 6 -20 18c0 8 3.33301 17.667 10 29s16.167 22.166 28.5 32.499s26.833 19 43.5 26s35 10.5 55 10.5c10 0 16 -1 18 -3s3 -4 3 -6c0 -4.66699 -2.66699 -7 -8 -7c-3.33301 0.666992 -6.5 1 -9.5 1h-8.5c-17.333 0 -33 -3 -47 -9
s-26 -13 -36 -21s-17.667 -16.167 -23 -24.5s-8 -15.166 -8 -20.499c0 -6 3 -9 9 -9c5.33301 0 11.666 1.66699 18.999 5s15 7.16602 23 11.499s15.333 8.83301 22 13.5l14 10c2 8 5.66699 15 11 21s11.666 9 18.999 9c3.33301 0 5 -1 5 -3
c0 -3.33301 -2.5 -7.66602 -7.5 -12.999s-11.167 -11 -18.5 -17c0.666992 -13.333 4.33398 -22.666 11.001 -27.999s14.667 -8 24 -8c8.66699 0 18.167 1.66699 28.5 5s20.5 7.83301 30.5 13.5s19.333 11.667 28 18s16 12.5 22 18.5z" />
    <glyph glyph-name="guillemotleft" unicode="&#xab;" horiz-adv-x="478" 
d="M376 119c0 -5.33301 -6.66699 -10.6689 -20 -16.002l-127 -53l127 -38c2 -0.666992 3.83301 -2.16699 5.5 -4.5s2.5 -4.16602 2.5 -5.49902s-0.666992 -2 -2 -2c-5.33301 0 -16.833 2.16699 -34.5 6.5l-56 14c-19.667 5 -37.5 10 -53.5 15s-25 7.83301 -27 8.5
c0 0.666992 -0.333008 1.33398 -1 2.00098c-1.33301 1.33301 -2 3 -2 5c0 4 2.33301 7.33301 7 10l169 67c2 0 4 -0.666992 6 -2c4 -2.66699 6 -5 6 -7zM295 135.997c0 -5.33301 -6.66797 -10.668 -20.001 -16.001l-180 -76l175 -54c2 -0.666992 3.83301 -2.16699 5.5 -4.5
s2.5 -4.16602 2.5 -5.49902s-0.666992 -2 -2 -2c-3.33301 0 -11 1.33301 -23 4s-25.833 6.16699 -41.5 10.5l-50 14l-49 14c-15 4.33301 -27.667 8.16602 -38 11.499s-16.166 5.33301 -17.499 6c0 0.666992 -0.333008 1.33398 -1 2.00098c-1.33301 1.33301 -2 3 -2 5
c0 4 2.33301 7.33301 7 10l222 90c2 0 4 -0.666992 6 -2c4 -2.66699 6 -5 6 -7z" />
    <glyph glyph-name="registered" unicode="&#xae;" horiz-adv-x="360" 
d="M330 177c0 -20 -5.83398 -41.998 -17.501 -65.998s-27.5 -46.333 -47.5 -67s-43 -37.834 -69 -51.501s-53 -20.5 -81 -20.5c-33.333 0 -57 6.66699 -71 20s-21 29.666 -21 48.999c0 20 6.5 41.833 19.5 65.5s30.167 45.667 51.5 66s45.5 37.333 72.5 51
s54.5 20.5 82.5 20.5c28.667 0 49.334 -6.33301 62.001 -19s19 -28.667 19 -48zM308.999 168.002c0 16.667 -5.33203 30.501 -15.999 41.501s-27.667 16.5 -51 16.5c-24.667 0 -49 -6.16699 -73 -18.5s-45.333 -27.5 -64 -45.5s-33.834 -37.5 -45.501 -58.5
s-17.5 -40.167 -17.5 -57.5c0 -16.667 6 -30.334 18 -41.001s32 -16 60 -16c25.333 0 49.5 6 72.5 18s43.167 27 60.5 45s31 37.5 41 58.5s15 40.167 15 57.5zM262 180.003c0 -6 -2.66699 -12.8291 -8 -20.4961s-12.333 -14.834 -21 -21.501s-18.167 -12.334 -28.5 -17.001
s-20.5 -7 -30.5 -7c-5.33301 0 -9.33301 0.333008 -12 1c1.33301 -8 3.33301 -16.333 6 -25s6.5 -16.667 11.5 -24s10.833 -13.333 17.5 -18s14.667 -7 24 -7c5.33301 0 8.5 0.166992 9.5 0.5s2.16699 0.5 3.5 0.5c2 0 3 -0.666992 3 -2c0 -2 -1.33301 -3.5 -4 -4.5
s-5.66699 -1.5 -9 -1.5c-16 0 -28.833 3.16699 -38.5 9.5s-17 13.833 -22 22.5s-8.16699 17.5 -9.5 26.5s-2 16.167 -2 21.5v8c0 0.666992 1.33301 1 4 1c2 -2 6.33301 -3 13 -3c9.33301 0 18.5 2 27.5 6s16.833 9 23.5 15s12 12.333 16 19s6 12.334 6 17.001
c0 6.66699 -4.33301 10 -13 10c-18.667 0 -37.334 -6.33301 -56.001 -19s-35.5 -27.167 -50.5 -43.5s-27.333 -32 -37 -47s-14.5 -24.833 -14.5 -29.5c0 -2 0.666992 -3 2 -3c2.66699 0 7.33398 4.16699 14.001 12.5s13.667 17.833 21 28.5s14 21 20 31
s9.66699 16.333 11 19c0 0.666992 0.666992 1 2 1h3c0 -2.66699 -2.5 -9.33398 -7.5 -20.001s-11.167 -21.834 -18.5 -33.501s-15.333 -22.167 -24 -31.5s-16.667 -14 -24 -14c-6.66699 0 -10 3.66699 -10 11c0 9.33301 4.83301 22.166 14.5 38.499s22.667 32.5 39 48.5
s35 30 56 42s42.833 18 65.5 18c18 0 27 -5.33301 27 -16z" />
    <glyph glyph-name="macron" unicode="&#xaf;" 
d="M227 221c0 -6.66699 -0.667969 -10.998 -2.00098 -12.998s-3.33301 -3 -6 -3c-1.33301 0 -6.33301 0.166992 -15 0.5s-18.334 0.5 -29.001 0.5c-25.333 0 -50.166 -1.33301 -74.499 -4s-47.5 -4 -69.5 -4c-1.33301 0 -2 0.5 -2 1.5v7.5c0 4 0.5 6.33301 1.5 7
s2.16699 1 3.5 1c4 0 12.5 0.333008 25.5 1s27 1.5 42 2.5s29.333 1.83301 43 2.5s22.834 1 27.501 1c1.33301 0.666992 4.33301 1.16699 9 1.5s9.83398 0.666016 15.501 0.999023s11 0.666016 16 0.999023s7.83301 0.5 8.5 0.5c1.33301 0 2.66602 -0.166992 3.99902 -0.5
s2 -1.83301 2 -4.5z" />
    <glyph glyph-name="degree" unicode="&#xb0;" horiz-adv-x="189" 
d="M137 172c0 -6 -1.49902 -11.833 -4.49902 -17.5s-7 -11 -12 -16s-10.5 -9 -16.5 -12s-12 -4.5 -18 -4.5c-9.33301 0 -16.333 2.83301 -21 8.5s-7 12.167 -7 19.5c0 4 1 9 3 15s5.16699 11.833 9.5 17.5s9.66602 10.5 15.999 14.5s13.5 6 21.5 6
c9.33301 0 16.5 -3 21.5 -9s7.5 -13.333 7.5 -22zM120.001 168c0 5.33301 -1.33301 9.66699 -4 13s-6.66699 5 -12 5c-9.33301 0 -16.5 -3.83301 -21.5 -11.5s-7.5 -14.167 -7.5 -19.5c0 -3.33301 1.5 -6.83301 4.5 -10.5s7.16699 -5.5 12.5 -5.5c7.33301 0 13.833 3 19.5 9
s8.5 12.667 8.5 20z" />
    <glyph glyph-name="plusminus" unicode="&#xb1;" horiz-adv-x="664" 
d="M667 84c-30.667 -26 -64.167 -42.6777 -100.5 -50.0107s-73.5 -11 -111.5 -11h-34.5c-11 0 -22.167 0.666992 -33.5 2c-30 -17.333 -61.333 -31.5 -94 -42.5s-66 -16.5 -100 -16.5c-24.667 0 -49.334 2.66699 -74.001 8s-46.834 12.5 -66.501 21.5
s-35.5 19.833 -47.5 32.5s-18 26.334 -18 41.001c0 19.333 15.333 29 46 29c10 0 26.333 -2.5 49 -7.5s49.667 -10.667 81 -17s65.833 -12.666 103.5 -18.999s76.834 -11.166 117.501 -14.499c28.667 18.667 54.5 39.834 77.5 63.501s42.667 48 59 73s29 49.5 38 73.5
s13.5 45.333 13.5 64c0 19.333 -4.83301 34.833 -14.5 46.5s-25.167 17.5 -46.5 17.5c-8 0 -16.833 -1.33301 -26.5 -4l-31 -8.5c-11 -3 -22.333 -5.83301 -34 -8.5s-22.834 -4 -33.501 -4c-26 0 -45.167 8.16699 -57.5 24.5s-19.5 37.833 -21.5 64.5l-14 -13.5l-14 -12.5
c-1.33301 0 -3 0.333008 -5 1c-4 1.33301 -6 3.66602 -6 6.99902s2 7 6 11l33 32c1.33301 23.333 5.5 48.333 12.5 75s16.333 53.334 28 80.001s25.5 52.334 41.5 77.001s33.5 46.334 52.5 65.001s39 33.667 60 45s42.5 17 64.5 17c17.333 0 26 -7.33301 26 -22
c0 -12.667 -6.33301 -30.5 -19 -53.5s-30.5 -49.333 -53.5 -79s-50.5 -62 -82.5 -97s-67 -71.167 -105 -108.5c-0.666992 -3.33301 -1 -6.66602 -1 -9.99902v-10c0 -23.333 5.33301 -42.166 16 -56.499s27.667 -21.5 51 -21.5c10.667 0 21.667 1.16699 33 3.5s22.5 5 33.5 8
l30.5 8c9.33301 2.33301 17.333 3.5 24 3.5c32.667 0 56.334 -6.83301 71.001 -20.5s22 -31.5 22 -53.5c0 -19.333 -5.16699 -41.166 -15.5 -65.499s-24.5 -49 -42.5 -74s-39.5 -49.667 -64.5 -74s-52.167 -46.166 -81.5 -65.499c9.33301 -0.666992 18.333 -1 27 -1h27
c36.667 0 71.834 4.33301 105.501 13s63.5 23.667 89.5 45c0.666992 0.666992 1.66699 1 3 1c2.66699 0 4.5 -1.66699 5.5 -5s1.5 -5.66602 1.5 -6.99902zM562 798.989c0 8.66699 -4.33203 12.999 -12.999 12.999c-17.333 0 -37 -10.333 -59 -31s-43.167 -46.667 -63.5 -78
s-38.833 -65.5 -55.5 -102.5s-28.334 -71.833 -35.001 -104.5c34.667 35.333 66 69 94 101s51.667 61.167 71 87.5s34.333 49.333 45 69s16 34.834 16 45.501zM363.001 25.9883c-41.333 3.33301 -79.5 8.16699 -114.5 14.5s-66.667 12.5 -95 18.5l-74 16
c-21 4.66699 -38.167 7 -51.5 7c-11.333 0 -17 -3.66699 -17 -11c0 -6.66699 4.66699 -15.167 14 -25.5s22 -20.5 38 -30.5s35 -18.5 57 -25.5s45.667 -10.5 71 -10.5c31.333 0 61.5 4.33301 90.5 13s56.167 20 81.5 34z" />
    <glyph glyph-name="twosuperior" unicode="&#xb2;" horiz-adv-x="481" 
d="M602 715c0 -8.66699 -8.99512 -20.166 -26.9951 -34.499s-42.333 -30 -73 -47s-66.334 -34.5 -107.001 -52.5s-83.334 -34.667 -128.001 -50c-8 -14.667 -12 -28.667 -12 -42c0 -15.333 7.16699 -28.5 21.5 -39.5s34.833 -16.5 61.5 -16.5
c11.333 0 22.666 1.5 33.999 4.5s22.166 6.5 32.499 10.5s20 7.5 29 10.5s16.5 4.5 22.5 4.5s9 -2 9 -6c0 -5.33301 -3.16699 -9.33301 -9.5 -12s-12.5 -4.66699 -18.5 -6c-50.667 -13.333 -97.5 -33 -140.5 -59s-80 -54.833 -111 -86.5s-55.167 -64.5 -72.5 -98.5
s-26 -65.667 -26 -95c0 -37.333 12.667 -64.833 38 -82.5s57 -26.5 95 -26.5c40 0 82.833 8.83301 128.5 26.5s87.5 43.5 125.5 77.5l11 -10c-48.667 -42 -96 -71.833 -142 -89.5s-88 -26.5 -126 -26.5c-24 0 -46 3 -66 9s-37 14.5 -51 25.5s-25 24 -33 39
s-12 31.167 -12 48.5c0 24 6 50.167 18 78.5s30 57 54 86s53.833 57.5 89.5 85.5s77.167 53.667 124.5 77c1.33301 1.33301 2 2.66602 2 3.99902c0 0.666992 -2.33301 1 -7 1c-37.333 0 -64 5.33301 -80 16s-24 24.667 -24 42c0 11.333 3.66699 25 11 41
c-54.667 -18 -109.667 -32.833 -165 -44.5s-106.666 -17.5 -153.999 -17.5c-33.333 0 -59.166 2.5 -77.499 7.5s-31.166 9.16699 -38.499 12.5c-3.33301 2 -5 4.33301 -5 7c0 3.33301 1.33301 6.33301 4 9l3.5 3.5c1 1 2.5 1.5 4.5 1.5c0.666992 0 3 -0.666992 7 -2
c1.33301 -0.666992 7.16602 -2 17.499 -4l36.5 -7c14 -2.66699 28.5 -5 43.5 -7s27.833 -3 38.5 -3c42 0 88.667 5.83301 140 17.5s102.666 26.167 153.999 43.5c13.333 22 32.166 44.667 56.499 68s51.166 44.5 80.499 63.5s60 34.5 92 46.5s62.333 18 91 18
c8 0 15 -1.5 21 -4.5s9 -8.16699 9 -15.5zM566.005 706.001c0 4 -2.66797 6.66602 -8.00098 7.99902s-9.66602 2 -12.999 2c-22.667 0 -47.167 -5.16699 -73.5 -15.5s-51.833 -23.5 -76.5 -39.5s-47.5 -34 -68.5 -54s-37.5 -39.667 -49.5 -59
c38.667 14 75.5 28.833 110.5 44.5s65.667 30.834 92 45.501s47.333 28 63 40s23.5 21.333 23.5 28z" />
    <glyph glyph-name="threesuperior" unicode="&#xb3;" horiz-adv-x="242" 
d="M142 2c0 -3.33301 -2.33008 -6.83301 -6.99707 -10.5s-9.33398 -6.5 -14.001 -8.5c-48 -13.333 -93.667 -29.333 -137 -48c-8 -30 -20.833 -59.833 -38.5 -89.5s-38 -58.334 -61 -86.001s-47.667 -53.5 -74 -77.5s-52 -44.833 -77 -62.5s-48.167 -31.5 -69.5 -41.5
s-38.666 -15 -51.999 -15c-11.333 0 -20.666 3 -27.999 9s-11 16 -11 30c0 26 11.167 54.333 33.5 85s52 61.334 89 92.001s79 60.5 126 89.5s95.167 54.833 144.5 77.5c0.666992 4 1.16699 7.83301 1.5 11.5s0.5 7.16699 0.5 10.5c0 14 -1.33301 26 -4 36v9
c14.667 0.666992 30 5.5 46 14.5s30.333 19.5 43 31.5s23.167 24.167 31.5 36.5s12.5 22.5 12.5 30.5s-4.66699 12 -14 12c-7.33301 0 -17 -4.16699 -29 -12.5s-24.667 -18.166 -38 -29.499l-23 -20h-23c27.333 25.333 51.666 46.166 72.999 62.499s38.666 24.5 51.999 24.5
c16.667 0 25 -7.66699 25 -23c0 -10 -4 -22.167 -12 -36.5s-18.167 -28.5 -30.5 -42.5s-26 -26.667 -41 -38s-29.833 -19 -44.5 -23v-10c0 -10.667 -1 -22 -3 -34c25.333 11.333 50.166 21.333 74.499 30s48.166 16 71.499 22c3.33301 0 5.33301 -1 6 -3
c0.666992 -1.33301 1 -2.33301 1 -3zM-37.9971 -75c-51.333 -23.333 -99.499 -49.3301 -144.499 -77.9971s-84 -57.334 -117 -86.001s-59 -56 -78 -82s-28.5 -48 -28.5 -66c0 -9.33301 2 -16.833 6 -22.5s10.333 -8.5 19 -8.5c15.333 0 33.666 5.16699 54.999 15.5
s43.5 24.166 66.5 41.499s46.333 37.5 70 60.5s45.5 47.167 65.5 72.5s37.667 51.166 53 77.499s26.333 51.5 33 75.5z" />
    <glyph glyph-name="acute" unicode="&#xb4;" horiz-adv-x="409" 
d="M249 281c0 -3.33301 -3.16699 -7.16699 -9.5 -11.5s-14.333 -8.83301 -24 -13.5s-20.167 -9 -31.5 -13l-31 -11c-4 1.33301 -6 2.33301 -6 3c0 2 2.66699 4.5 8 7.5l20 11.5c8 4.66699 16.833 10.167 26.5 16.5s19.167 13.5 28.5 21.5c2 2 4 3 6 3
c3.33301 0 6.33301 -1.5 9 -4.5s4 -6.16699 4 -9.5z" />
    <glyph glyph-name="paragraph" unicode="&#xb6;" horiz-adv-x="278" 
d="M352 433c0 -1.33301 -0.666992 -3.33496 -2 -6.00195c-22.667 -41.333 -48 -80 -76 -116l-84 -105.5l-82 -104c-26.667 -35 -50.167 -72 -70.5 -111s-36.833 -80.833 -49.5 -125.5s-19 -94.334 -19 -149.001c-0.666992 -2.66699 -1 -6.16699 -1 -10.5
s-3 -7.16602 -9 -8.49902c-1.33301 -0.666992 -3 -1 -5 -1c-4 0 -7 1.5 -9 4.5s-3.66699 5.83301 -5 8.5c1.33301 32 4.66602 62.333 9.99902 91s12.333 56 21 82c-16.667 4 -25 16 -25 36c0 14 4.33301 30.833 13 50.5s20.334 41.167 35.001 64.5s31.5 48 50.5 74l59.5 80
l62 82l58 79l4 7c-0.666992 -0.666992 -3.83398 -2.66699 -9.50098 -6s-12.334 -6.5 -20.001 -9.5s-15.667 -5.83301 -24 -8.5s-16.166 -4 -23.499 -4c-14.667 0 -22 6.66699 -22 20c0 11.333 5.16699 23.833 15.5 37.5s23 26.334 38 38.001s31 21.5 48 29.5
s32.167 12 45.5 12c10.667 0 19.334 -3 26.001 -9s10 -16.333 10 -31c0 -5.33301 -8.5 -19 -25.5 -41l-64 -80.5l-83 -103.5c-29.667 -37.333 -57.334 -73.833 -83.001 -109.5s-47 -68.667 -64 -99s-25.5 -54.5 -25.5 -72.5c0 -8.66699 3.66699 -14 11 -16
c18.667 50 42.167 96.333 70.5 139s58.833 84.5 91.5 125.5l99.5 125.5c33.667 42.667 64.834 88.334 93.501 137.001c4.66699 7.33301 9 11 13 11s6 -2.33301 6 -7z" />
    <glyph glyph-name="periodcentered" unicode="&#xb7;" horiz-adv-x="291" 
d="M127 89c0 -6 -2.5 -12.501 -7.5 -19.501s-11.167 -10.5 -18.5 -10.5c-5.33301 0 -9.33301 1.5 -12 4.5s-4 6.5 -4 10.5c0 6.66699 2.66699 13.334 8 20.001s12.333 10 21 10s13 -5 13 -15z" />
    <glyph glyph-name="cedilla" unicode="&#xb8;" horiz-adv-x="243" 
d="M161 -45c0 -8 -2.66504 -15.4971 -7.99805 -22.4971s-12.333 -13 -21 -18s-18.334 -9 -29.001 -12s-21.334 -4.5 -32.001 -4.5c-4.66699 0 -7 1.66699 -7 5c0 2.66699 1.33301 4 4 4c7.33301 0 15 1 23 3s15.5 4.66699 22.5 8s12.833 7.66602 17.5 12.999s7 11.333 7 18
v2c0 7.33301 -4.33301 12.333 -13 15c-2.66699 0 -4 1.66699 -4 5c0 1.33301 0.833008 3.66602 2.5 6.99902s7.16699 10.666 16.5 21.999c0 1.33301 0.666992 2.33301 2 3c2.66699 1.33301 5 2 7 2c2.66699 0 6 -0.666992 10 -2l-18 -26c4 -1.33301 7.33301 -3 10 -5
c2.66699 -1.33301 5 -3.5 7 -6.5s3 -6.5 3 -10.5z" />
    <glyph glyph-name="ordmasculine" unicode="&#xba;" horiz-adv-x="150" 
d="M95 163c0 -8 -2.50293 -16.8359 -7.50293 -26.5029s-11.333 -18.667 -19 -27s-16.5 -15.333 -26.5 -21s-20.333 -8.5 -31 -8.5c-14 0 -21 7 -21 21c0 10 5.33301 22.167 16 36.5s28.667 29.833 54 46.5c4 -0.666992 6 -3.66699 6 -9
c0 -1.33301 -0.666992 -2.66602 -2 -3.99902c-3.33301 -2 -8.16602 -5.33301 -14.499 -10s-12.666 -10.167 -18.999 -16.5s-11.833 -13.333 -16.5 -21s-7 -15.5 -7 -23.5c0 -6 3.33301 -9 10 -9c5.33301 0 11.166 1.66699 17.499 5s12.333 7.83301 18 13.5
s10.834 11.834 15.501 18.501s8 13.334 10 20.001c-1.33301 3.33301 -2.66602 7.5 -3.99902 12.5s-2 9.83301 -2 14.5c0 8 2.33301 12 7 12s8.5 -3 11.5 -9s4.5 -11 4.5 -15z" />
    <glyph glyph-name="guillemotright" unicode="&#xbb;" horiz-adv-x="397" 
d="M291 53c0 -4.66699 -1.66699 -8 -5 -10c-2 -1.33301 -4 -2.33301 -6 -3c-1.33301 -0.666992 -7.83301 -2.66699 -19.5 -6s-26.167 -7.16602 -43.5 -11.499l-56 -14l-57 -14c-18 -4.33301 -33.833 -7.83301 -47.5 -10.5s-22.167 -4 -25.5 -4
c0 1.33301 0.333008 2.66602 1 3.99902c1.33301 2 5 4.66699 11 8l205 54l-138 76c-9.33301 4.66699 -14 9 -14 13c0 3.33301 3 6.33301 9 9c2.66699 1.33301 5.66699 2.33301 9 3l174 -90c2 -0.666992 3 -2 3 -4zM170 57c0 -4.66699 -1.66797 -7.99609 -5.00098 -9.99609
c-2 -1.33301 -4 -2.33301 -6 -3s-11 -3.16699 -27 -7.5s-33.667 -8.83301 -53 -13.5s-38 -8.83398 -56 -12.501s-29.667 -5.5 -35 -5.5c0 1.33301 0.333008 2.66602 1 3.99902s1.83398 2.66602 3.50098 3.99902s4.16699 2.66602 7.5 3.99902l127 33l-108 60
c-9.33301 4.66699 -14 9 -14 13c0 3.33301 3 6.33301 9 9c2.66699 1.33301 5.66699 2.33301 9 3l144 -74c2 -0.666992 3 -2 3 -4z" />
    <glyph glyph-name="onequarter" unicode="&#xbc;" horiz-adv-x="285" 
d="M206 150c0 -6.66699 -2.33594 -12.333 -7.00293 -17c-12 -13.333 -26.5 -30.5 -43.5 -51.5l-56.5 -70.5l47.5 16c15.667 5.33301 27.167 8 34.5 8c4.66699 0 7 -2 7 -6c0 -3.33301 -2.33301 -6.83301 -7 -10.5s-9.33398 -6.5 -14.001 -8.5
c-16 -4.66699 -31.667 -9.5 -47 -14.5s-30.666 -10.5 -45.999 -16.5l-71.5 -91.5l-76 -94c-25.667 -31 -51.167 -60.333 -76.5 -88s-49.333 -52.167 -72 -73.5s-43.667 -38.166 -63 -50.499s-36 -18.5 -50 -18.5c-11.333 0 -20.666 3 -27.999 9s-11 16 -11 30
c0 24 6.66699 48.667 20 74s31.333 50.5 54 75.5s49 49.5 79 73.5s61.333 46.667 94 68s65.834 41.166 99.501 59.499s65.5 33.833 95.5 46.5c22 29.333 38 53 48 71c0 2 -0.333008 3 -1 3h-2l-55 -33c-15.333 -8.66699 -30.666 -16.5 -45.999 -23.5
s-27.666 -10.5 -36.999 -10.5c-14.667 0 -22 6.66699 -22 20c0 9.33301 3.33301 20.5 10 33.5s14.5 25.333 23.5 37s18 21.667 27 30s16.167 12.5 21.5 12.5c3.33301 0 6.5 -0.833008 9.5 -2.5s4.5 -3.16699 4.5 -4.5s-3.66699 -5.5 -11 -12.5s-15.333 -15.167 -24 -24.5
s-16.667 -19.5 -24 -30.5s-11 -21.167 -11 -30.5c0 -4.66699 3.66699 -7 11 -7c13.333 0 29.5 5.16699 48.5 15.5s37.5 22.166 55.5 35.499s34.167 26.5 48.5 39.5s23.833 21.833 28.5 26.5c11.333 12 19.666 18 24.999 18c3.33301 0 5.83301 -1.16699 7.5 -3.5
s2.5 -5.16602 2.5 -8.49902zM44.9971 -31.999c-56.667 -24 -109.333 -51.1689 -158 -81.502s-90.667 -61.666 -126 -93.999s-63.166 -64.166 -83.499 -95.499s-30.5 -59.333 -30.5 -84c0 -9.33301 2 -16.833 6 -22.5s10.333 -8.5 19 -8.5c9.33301 0 22.5 6 39.5 18
s36.167 28 57.5 48s44.166 43.167 68.499 69.5l73 82.5l71.5 86.5z" />
    <glyph glyph-name="onehalf" unicode="&#xbd;" horiz-adv-x="178" 
d="M351 295c0 -6 -1.66797 -10.668 -5.00098 -14.001s-10.666 -5 -21.999 -5c-4.66699 0.666992 -8.83398 1.66699 -12.501 3s-9.5 2.5 -17.5 3.5s-19.667 1.83301 -35 2.5s-37.666 1 -66.999 1h-40l-61.5 -80.5l-55 -75c-16.333 -23 -29.5 -43 -39.5 -60
s-15 -29.167 -15 -36.5c0 -14.667 5.33301 -22 16 -22c12 0 26.333 2.83301 43 8.5s33.167 12.667 49.5 21s31.833 17.333 46.5 27s26 18.5 34 26.5l10 -11c-6.66699 -7.33301 -17.167 -16 -31.5 -26s-30.166 -19.5 -47.499 -28.5s-35.333 -16.667 -54 -23
s-35.667 -9.5 -51 -9.5c-9.33301 0 -17.333 2.16699 -24 6.5s-10 11.833 -10 22.5c0 10 4.5 24.167 13.5 42.5s21 39 36 62l51 75l58.5 80.5c-29.333 -0.666992 -55.5 -1 -78.5 -1h-57.5c-7.33301 0 -14.666 1.16699 -21.999 3.5s-11 5.5 -11 9.5
c0.666992 2.66699 2.16699 4.66699 4.5 6s4.83301 2.33301 7.5 3s6 1 10 1h32c17.333 0 35.666 -0.333008 54.999 -1c22 -0.666992 47 -1.33398 75 -2.00098l59.5 80.5c19 25.667 35.5 48.834 49.5 69.501c7.33301 11.333 13.666 18.333 18.999 21s9.33301 4 12 4
c2 0 4 -0.666992 6 -2s3 -3.33301 3 -6c0 -4.66699 -2.33301 -10.667 -7 -18c-11.333 -17.333 -27 -39.166 -47 -65.499l-64 -83.5h32.5c17.667 0 36.167 -0.333008 55.5 -1c22.667 -0.666992 48 -1 76 -1c5.33301 0 10 -0.5 14 -1.5s6 -3.16699 6 -6.5z" />
    <glyph glyph-name="threequarters" unicode="&#xbe;" horiz-adv-x="356" 
d="M638 295c0 -6 -1.66895 -10.6719 -5.00195 -14.0049s-10.666 -5 -21.999 -5c-3.33301 0.666992 -13.833 1.33398 -31.5 2.00098s-39.667 1.33398 -66 2.00098s-55.5 1.33398 -87.5 2.00098l-97 2l-61.5 -80.5l-54.5 -74.5c-16 -22.667 -29 -42.334 -39 -59.001
s-15 -28.667 -15 -36c0 -14.667 5.33301 -22 16 -22c12 0 26.333 2.83301 43 8.5s33.167 12.667 49.5 21s31.833 17.333 46.5 27s26 18.5 34 26.5l10 -11c-6.66699 -7.33301 -17.167 -16 -31.5 -26s-30.166 -19.5 -47.499 -28.5s-35.333 -16.667 -54 -23
s-35.667 -9.5 -51 -9.5c-9.33301 0 -17.333 2.16699 -24 6.5s-10 11.833 -10 22.5c0 7.33301 2.66699 17.333 8 30c-10 -6.66699 -21.5 -13.667 -34.5 -21s-26.167 -13.666 -39.5 -18.999s-26.666 -9.83301 -39.999 -13.5s-25.666 -5.5 -36.999 -5.5
c-9.33301 0 -17.333 2.16699 -24 6.5s-10 11.833 -10 22.5c0 10 4.5 24.167 13.5 42.5s21.167 39 36.5 62l51.5 75l58.5 80.5c-43.333 0 -82 -0.166992 -116 -0.5s-61.333 -0.5 -82 -0.5c-7.33301 0 -14.666 1.16699 -21.999 3.5s-11 5.5 -11 9.5
c0.666992 2.66699 2.16699 4.66699 4.5 6s4.83301 2.33301 7.5 3s6 1 10 1h14h27c10.667 0 22.667 -0.166992 36 -0.5s26.666 -0.5 39.999 -0.5c32 -0.666992 67.667 -1 107 -1l58.5 80c19 25.333 35.5 48.333 49.5 69c7.33301 11.333 13.666 18.333 18.999 21
s9.33301 4 12 4c2 0 4 -0.666992 6 -2s3 -3.33301 3 -6c0 -4.66699 -2.33301 -10.667 -7 -18c-11.333 -17.333 -27 -39 -47 -65l-62 -83h88c18 0 36.667 -0.333008 56 -1l59.5 80.5c19 25.667 35.5 48.834 49.5 69.501c7.33301 11.333 13.666 18.333 18.999 21
s9.33301 4 12 4c2 0 4 -0.666992 6 -2s3 -3.33301 3 -6c0 -4.66699 -2.33301 -10.667 -7 -18c-11.333 -17.333 -27 -39.166 -47 -65.499l-64 -83.5h20.5h34.5c13.333 0 28 -0.166992 44 -0.5s32 -0.5 48 -0.5c38 -0.666992 80 -1 126 -1c5.33301 0 10 -0.5 14 -1.5
s6 -3.16699 6 -6.5zM297.998 283.995c-28 0.666992 -54.3311 1.16797 -78.998 1.50098s-46.334 0.5 -65.001 0.5l-62 -80.5l-55.5 -75c-16.333 -23 -29.5 -43 -39.5 -60s-15 -29.167 -15 -36.5c0 -14.667 5.33301 -22 16 -22c11.333 0 24.666 2.5 39.999 7.5
s30.833 11.167 46.5 18.5s30.667 15.666 45 24.999s26.166 18 35.499 26c14.667 26 33.834 56.167 57.501 90.5z" />
    <glyph glyph-name="questiondown" unicode="&#xbf;" horiz-adv-x="284" 
d="M218 171c0 -6.66699 -2.66699 -13.333 -8 -20s-12.333 -10 -21 -10s-13 5 -13 15c0 6 2.5 12.5 7.5 19.5s11.167 10.5 18.5 10.5c5.33301 0 9.33301 -1.5 12 -4.5s4 -6.5 4 -10.5zM231 -192.999c0 -16.667 -7.16895 -36.6631 -21.502 -59.9961
s-34.166 -45.833 -59.499 -67.5s-55 -40 -89 -55s-71 -22.5 -111 -22.5c-6 0 -16.667 0.5 -32 1.5s-31.166 4.16699 -47.499 9.5s-30.666 13.666 -42.999 24.999s-18.5 27.666 -18.5 48.999s8 42.166 24 62.499s36.167 40.333 60.5 60s50.833 39.334 79.5 59.001
s55.834 40.167 81.501 61.5s47.667 43.5 66 66.5s29.166 47.167 32.499 72.5c0.666992 3.33301 1.83398 5.66602 3.50098 6.99902s3.16699 2.66602 4.5 3.99902c2 1.33301 4 2 6 2c4 -3.33301 6.66699 -7 8 -11s2 -8.66699 2 -14c0 -20.667 -8.16699 -40.834 -24.5 -60.501
s-36.666 -39.5 -60.999 -59.5s-50.833 -39.833 -79.5 -59.5s-55.167 -39.667 -79.5 -60s-44.666 -41.166 -60.999 -62.499s-24.5 -43 -24.5 -65c0 -16.667 5.66699 -29.5 17 -38.5s24.333 -15.5 39 -19.5s28.5 -6.33301 41.5 -7s21.167 -1 24.5 -1c32 0 62 5.66699 90 17
s52.667 25.333 74 42s38.166 34.167 50.499 52.5s18.5 34.166 18.5 47.499c0 9.33301 -3.16699 16.833 -9.5 22.5s-16.833 8.5 -31.5 8.5c-18.667 0 -39.834 -3.16699 -63.501 -9.5s-47.167 -16.5 -70.5 -30.5c-1.33301 -1.33301 -2.66602 -2.33301 -3.99902 -3
c-2.66699 -1.33301 -5.33398 -2 -8.00098 -2c-3.33301 0 -5 1.66699 -5 5c0 6 6.33301 13 19 21s28.167 15.333 46.5 22s38.166 12.334 59.499 17.001s40.666 7 57.999 7c13.333 0 23 -3.16699 29 -9.5s9 -14.5 9 -24.5z" />
    <glyph glyph-name="Agrave" unicode="&#xc0;" horiz-adv-x="598" 
d="M793 800c0 -0.666992 -2 -1.66602 -6 -2.99902l-31 11c-11.333 4 -21.833 8.33301 -31.5 13s-17.667 9.16699 -24 13.5s-9.5 8.16602 -9.5 11.499s1.33301 6.5 4 9.5s5.66699 4.5 9 4.5c2 0 4 -1 6 -3c9.33301 -8 18.833 -15.167 28.5 -21.5s18.5 -11.833 26.5 -16.5
l20 -11.5c5.33301 -3 8 -5.5 8 -7.5zM733 692.001c0 -5.33301 -2.00098 -8.00586 -6.00098 -8.00586c-8 2.66699 -16.333 4.5 -25 5.5s-17.667 1.5 -27 1.5c-40 0 -83.833 -10 -131.5 -30s-95.5 -46.667 -143.5 -80s-94.667 -71.666 -140 -114.999s-85.333 -88 -120 -134
s-62.5 -92.167 -83.5 -138.5s-31.5 -88.833 -31.5 -127.5c0 -28 5 -48 15 -60s24 -18 42 -18c20.667 0 45.5 7.33301 74.5 22s60.333 34.334 94 59.001s68.334 53.334 104.001 86.001s70.667 67.167 105 103.5s67 73.5 98 111.5s58.167 74.333 81.5 109
c4.66699 7.33301 10.167 13 16.5 17s11.166 6 14.499 6c5.33301 0 8 -2.66699 8 -8c0 -3.33301 -1.16699 -7.5 -3.5 -12.5s-6.83301 -12.167 -13.5 -21.5c-36.667 -52 -67.167 -99 -91.5 -141s-43.833 -79.5 -58.5 -112.5s-25 -61.833 -31 -86.5s-9 -46 -9 -64
c0 -25.333 4.66699 -44.5 14 -57.5s19.666 -21.833 30.999 -26.5c2 -1.33301 3 -2.66602 3 -3.99902c0 -2 -0.666992 -3.66699 -2 -5s-2.66602 -2 -3.99902 -2c-6.66699 0 -13.667 2.5 -21 7.5s-14 12 -20 21s-10.833 19.5 -14.5 31.5s-5.5 24.667 -5.5 38
c0 28.667 5.66699 59.834 17 93.501s24 65.5 38 95.5c16.667 34.667 35 69.667 55 105c-57.333 -68.667 -110.833 -127.667 -160.5 -177s-95.167 -89.5 -136.5 -120.5s-78.166 -53.833 -110.499 -68.5s-60.166 -22 -83.499 -22c-26.667 0 -46.834 8.66699 -60.501 26
s-20.5 42 -20.5 74c0 25.333 5.83301 54 17.5 86s27.834 65.667 48.501 101s45.334 71.5 74.001 108.5s60.167 72.833 94.5 107.5s70.666 67.167 108.999 97.5s77.833 56.833 118.5 79.5s81.667 40.667 123 54s82 20 122 20c13.333 0 22.666 -3.16699 27.999 -9.5
s8 -12.166 8 -17.499z" />
    <glyph glyph-name="Aacute" unicode="&#xc1;" horiz-adv-x="598" 
d="M767 827c0 -3.33301 -3.16699 -7.16699 -9.5 -11.5s-14.333 -8.83301 -24 -13.5s-20.167 -9 -31.5 -13l-31 -11c-4 1.33301 -6 2.33301 -6 3c0 2 2.66699 4.5 8 7.5l20 11.5c8 4.66699 16.833 10.167 26.5 16.5s19.167 13.5 28.5 21.5c2 2 4 3 6 3
c3.33301 0 6.33301 -1.5 9 -4.5s4 -6.16699 4 -9.5zM733 691.999c0 -5.33301 -2.00098 -8.00586 -6.00098 -8.00586c-8 2.66699 -16.333 4.5 -25 5.5s-17.667 1.5 -27 1.5c-40 0 -83.833 -10 -131.5 -30s-95.5 -46.667 -143.5 -80s-94.667 -71.666 -140 -114.999
s-85.333 -88 -120 -134s-62.5 -92.167 -83.5 -138.5s-31.5 -88.833 -31.5 -127.5c0 -28 5 -48 15 -60s24 -18 42 -18c20.667 0 45.5 7.33301 74.5 22s60.333 34.334 94 59.001s68.334 53.334 104.001 86.001s70.667 67.167 105 103.5s67 73.5 98 111.5
s58.167 74.333 81.5 109c4.66699 7.33301 10.167 13 16.5 17s11.166 6 14.499 6c5.33301 0 8 -2.66699 8 -8c0 -3.33301 -1.16699 -7.5 -3.5 -12.5s-6.83301 -12.167 -13.5 -21.5c-36.667 -52 -67.167 -99 -91.5 -141s-43.833 -79.5 -58.5 -112.5s-25 -61.833 -31 -86.5
s-9 -46 -9 -64c0 -25.333 4.66699 -44.5 14 -57.5s19.666 -21.833 30.999 -26.5c2 -1.33301 3 -2.66602 3 -3.99902c0 -2 -0.666992 -3.66699 -2 -5s-2.66602 -2 -3.99902 -2c-6.66699 0 -13.667 2.5 -21 7.5s-14 12 -20 21s-10.833 19.5 -14.5 31.5s-5.5 24.667 -5.5 38
c0 28.667 5.66699 59.834 17 93.501s24 65.5 38 95.5c16.667 34.667 35 69.667 55 105c-57.333 -68.667 -110.833 -127.667 -160.5 -177s-95.167 -89.5 -136.5 -120.5s-78.166 -53.833 -110.499 -68.5s-60.166 -22 -83.499 -22c-26.667 0 -46.834 8.66699 -60.501 26
s-20.5 42 -20.5 74c0 25.333 5.83301 54 17.5 86s27.834 65.667 48.501 101s45.334 71.5 74.001 108.5s60.167 72.833 94.5 107.5s70.666 67.167 108.999 97.5s77.833 56.833 118.5 79.5s81.667 40.667 123 54s82 20 122 20c13.333 0 22.666 -3.16699 27.999 -9.5
s8 -12.166 8 -17.499z" />
    <glyph glyph-name="Acircumflex" unicode="&#xc2;" horiz-adv-x="598" 
d="M755 776c0 -1.33301 -0.668945 -2.5 -2.00195 -3.5s-2.66602 -1.5 -3.99902 -1.5c-2 0 -5.16699 2.16699 -9.5 6.5s-8.83301 9.16602 -13.5 14.499c-5.33301 6 -10.666 12.667 -15.999 20c-8 -5.33301 -17 -10.5 -27 -15.5s-19.5 -9.33301 -28.5 -13s-17 -6.66699 -24 -9
s-11.5 -3.5 -13.5 -3.5c-2.66699 0 -4 1.33301 -4 4c0 0.666992 3 2.83398 9 6.50098s13.5 8 22.5 13l28.5 16.5c10 6 19 12 27 18c4 3.33301 7 5.33301 9 6s4.66699 1 8 1c2 0 4.16699 -1.83301 6.5 -5.5s5 -8.5 8 -14.5s6.5 -12.5 10.5 -19.5s8.33301 -13.833 13 -20.5z
M732.998 692c0 -5.33301 -2.00098 -8.00586 -6.00098 -8.00586c-8 2.66699 -16.333 4.5 -25 5.5s-17.667 1.5 -27 1.5c-40 0 -83.833 -10 -131.5 -30s-95.5 -46.667 -143.5 -80s-94.667 -71.666 -140 -114.999s-85.333 -88 -120 -134s-62.5 -92.167 -83.5 -138.5
s-31.5 -88.833 -31.5 -127.5c0 -28 5 -48 15 -60s24 -18 42 -18c20.667 0 45.5 7.33301 74.5 22s60.333 34.334 94 59.001s68.334 53.334 104.001 86.001s70.667 67.167 105 103.5s67 73.5 98 111.5s58.167 74.333 81.5 109c4.66699 7.33301 10.167 13 16.5 17
s11.166 6 14.499 6c5.33301 0 8 -2.66699 8 -8c0 -3.33301 -1.16699 -7.5 -3.5 -12.5s-6.83301 -12.167 -13.5 -21.5c-36.667 -52 -67.167 -99 -91.5 -141s-43.833 -79.5 -58.5 -112.5s-25 -61.833 -31 -86.5s-9 -46 -9 -64c0 -25.333 4.66699 -44.5 14 -57.5
s19.666 -21.833 30.999 -26.5c2 -1.33301 3 -2.66602 3 -3.99902c0 -2 -0.666992 -3.66699 -2 -5s-2.66602 -2 -3.99902 -2c-6.66699 0 -13.667 2.5 -21 7.5s-14 12 -20 21s-10.833 19.5 -14.5 31.5s-5.5 24.667 -5.5 38c0 28.667 5.66699 59.834 17 93.501s24 65.5 38 95.5
c16.667 34.667 35 69.667 55 105c-57.333 -68.667 -110.833 -127.667 -160.5 -177s-95.167 -89.5 -136.5 -120.5s-78.166 -53.833 -110.499 -68.5s-60.166 -22 -83.499 -22c-26.667 0 -46.834 8.66699 -60.501 26s-20.5 42 -20.5 74c0 25.333 5.83301 54 17.5 86
s27.834 65.667 48.501 101s45.334 71.5 74.001 108.5s60.167 72.833 94.5 107.5s70.666 67.167 108.999 97.5s77.833 56.833 118.5 79.5s81.667 40.667 123 54s82 20 122 20c13.333 0 22.666 -3.16699 27.999 -9.5s8 -12.166 8 -17.499z" />
    <glyph glyph-name="Atilde" unicode="&#xc3;" horiz-adv-x="598" 
d="M784 801c0 -6 -4.66602 -11.835 -13.999 -17.502s-18.333 -8.5 -27 -8.5c-10.667 0 -19.334 1.66699 -26.001 5s-12.667 6.83301 -18 10.5s-10.833 7.16699 -16.5 10.5s-12.5 5 -20.5 5s-14 -2.83301 -18 -8.5s-7.66699 -8.5 -11 -8.5s-5 1.66699 -5 5
c0 5.33301 4.33301 11.5 13 18.5s17.667 10.5 27 10.5c8.66699 0 16.5 -1.66699 23.5 -5s13.667 -7.16602 20 -11.499s12.333 -8.16602 18 -11.499s11.5 -5 17.5 -5c8 0 14.333 3.16699 19 9.5s8.66699 9.5 12 9.5c2 0 3.5 -1 4.5 -3s1.5 -3.66699 1.5 -5zM733.001 691.998
c0 -5.33301 -2.00098 -8.00586 -6.00098 -8.00586c-8 2.66699 -16.333 4.5 -25 5.5s-17.667 1.5 -27 1.5c-40 0 -83.833 -10 -131.5 -30s-95.5 -46.667 -143.5 -80s-94.667 -71.666 -140 -114.999s-85.333 -88 -120 -134s-62.5 -92.167 -83.5 -138.5
s-31.5 -88.833 -31.5 -127.5c0 -28 5 -48 15 -60s24 -18 42 -18c20.667 0 45.5 7.33301 74.5 22s60.333 34.334 94 59.001s68.334 53.334 104.001 86.001s70.667 67.167 105 103.5s67 73.5 98 111.5s58.167 74.333 81.5 109c4.66699 7.33301 10.167 13 16.5 17
s11.166 6 14.499 6c5.33301 0 8 -2.66699 8 -8c0 -3.33301 -1.16699 -7.5 -3.5 -12.5s-6.83301 -12.167 -13.5 -21.5c-36.667 -52 -67.167 -99 -91.5 -141s-43.833 -79.5 -58.5 -112.5s-25 -61.833 -31 -86.5s-9 -46 -9 -64c0 -25.333 4.66699 -44.5 14 -57.5
s19.666 -21.833 30.999 -26.5c2 -1.33301 3 -2.66602 3 -3.99902c0 -2 -0.666992 -3.66699 -2 -5s-2.66602 -2 -3.99902 -2c-6.66699 0 -13.667 2.5 -21 7.5s-14 12 -20 21s-10.833 19.5 -14.5 31.5s-5.5 24.667 -5.5 38c0 28.667 5.66699 59.834 17 93.501s24 65.5 38 95.5
c16.667 34.667 35 69.667 55 105c-57.333 -68.667 -110.833 -127.667 -160.5 -177s-95.167 -89.5 -136.5 -120.5s-78.166 -53.833 -110.499 -68.5s-60.166 -22 -83.499 -22c-26.667 0 -46.834 8.66699 -60.501 26s-20.5 42 -20.5 74c0 25.333 5.83301 54 17.5 86
s27.834 65.667 48.501 101s45.334 71.5 74.001 108.5s60.167 72.833 94.5 107.5s70.666 67.167 108.999 97.5s77.833 56.833 118.5 79.5s81.667 40.667 123 54s82 20 122 20c13.333 0 22.666 -3.16699 27.999 -9.5s8 -12.166 8 -17.499z" />
    <glyph glyph-name="Adieresis" unicode="&#xc4;" horiz-adv-x="598" 
d="M746 815c0 -5.33301 -2.66797 -11.332 -8.00098 -17.999s-10.666 -10 -15.999 -10c-6 0 -9 3.33301 -9 10c0 5.33301 2.83301 11.166 8.5 17.499s11.5 9.5 17.5 9.5c4.66699 0 7 -3 7 -9zM655.999 815.001c0 -5.33301 -2.66797 -11.332 -8.00098 -17.999
s-10.666 -10 -15.999 -10c-6 0 -9 3.33301 -9 10c0 5.33301 2.83301 11.166 8.5 17.499s11.5 9.5 17.5 9.5c4.66699 0 7 -3 7 -9zM732.998 692.002c0 -5.33301 -2.00098 -8.00586 -6.00098 -8.00586c-8 2.66699 -16.333 4.5 -25 5.5s-17.667 1.5 -27 1.5
c-40 0 -83.833 -10 -131.5 -30s-95.5 -46.667 -143.5 -80s-94.667 -71.666 -140 -114.999s-85.333 -88 -120 -134s-62.5 -92.167 -83.5 -138.5s-31.5 -88.833 -31.5 -127.5c0 -28 5 -48 15 -60s24 -18 42 -18c20.667 0 45.5 7.33301 74.5 22s60.333 34.334 94 59.001
s68.334 53.334 104.001 86.001s70.667 67.167 105 103.5s67 73.5 98 111.5s58.167 74.333 81.5 109c4.66699 7.33301 10.167 13 16.5 17s11.166 6 14.499 6c5.33301 0 8 -2.66699 8 -8c0 -3.33301 -1.16699 -7.5 -3.5 -12.5s-6.83301 -12.167 -13.5 -21.5
c-36.667 -52 -67.167 -99 -91.5 -141s-43.833 -79.5 -58.5 -112.5s-25 -61.833 -31 -86.5s-9 -46 -9 -64c0 -25.333 4.66699 -44.5 14 -57.5s19.666 -21.833 30.999 -26.5c2 -1.33301 3 -2.66602 3 -3.99902c0 -2 -0.666992 -3.66699 -2 -5s-2.66602 -2 -3.99902 -2
c-6.66699 0 -13.667 2.5 -21 7.5s-14 12 -20 21s-10.833 19.5 -14.5 31.5s-5.5 24.667 -5.5 38c0 28.667 5.66699 59.834 17 93.501s24 65.5 38 95.5c16.667 34.667 35 69.667 55 105c-57.333 -68.667 -110.833 -127.667 -160.5 -177s-95.167 -89.5 -136.5 -120.5
s-78.166 -53.833 -110.499 -68.5s-60.166 -22 -83.499 -22c-26.667 0 -46.834 8.66699 -60.501 26s-20.5 42 -20.5 74c0 25.333 5.83301 54 17.5 86s27.834 65.667 48.501 101s45.334 71.5 74.001 108.5s60.167 72.833 94.5 107.5s70.666 67.167 108.999 97.5
s77.833 56.833 118.5 79.5s81.667 40.667 123 54s82 20 122 20c13.333 0 22.666 -3.16699 27.999 -9.5s8 -12.166 8 -17.499z" />
    <glyph glyph-name="Aring" unicode="&#xc5;" horiz-adv-x="598" 
d="M746 810c0 -6 -1.49902 -11.833 -4.49902 -17.5s-7 -11 -12 -16s-10.5 -9 -16.5 -12s-12 -4.5 -18 -4.5c-9.33301 0 -16.333 2.83301 -21 8.5s-7 12.167 -7 19.5c0 4 1 9 3 15s5.16699 11.833 9.5 17.5s9.66602 10.5 15.999 14.5s13.5 6 21.5 6
c9.33301 0 16.5 -3 21.5 -9s7.5 -13.333 7.5 -22zM733.001 692c0 -5.33301 -2.00098 -8.00586 -6.00098 -8.00586c-8 2.66699 -16.333 4.5 -25 5.5s-17.667 1.5 -27 1.5c-40 0 -83.833 -10 -131.5 -30s-95.5 -46.667 -143.5 -80s-94.667 -71.666 -140 -114.999
s-85.333 -88 -120 -134s-62.5 -92.167 -83.5 -138.5s-31.5 -88.833 -31.5 -127.5c0 -28 5 -48 15 -60s24 -18 42 -18c20.667 0 45.5 7.33301 74.5 22s60.333 34.334 94 59.001s68.334 53.334 104.001 86.001s70.667 67.167 105 103.5s67 73.5 98 111.5
s58.167 74.333 81.5 109c4.66699 7.33301 10.167 13 16.5 17s11.166 6 14.499 6c5.33301 0 8 -2.66699 8 -8c0 -3.33301 -1.16699 -7.5 -3.5 -12.5s-6.83301 -12.167 -13.5 -21.5c-36.667 -52 -67.167 -99 -91.5 -141s-43.833 -79.5 -58.5 -112.5s-25 -61.833 -31 -86.5
s-9 -46 -9 -64c0 -25.333 4.66699 -44.5 14 -57.5s19.666 -21.833 30.999 -26.5c2 -1.33301 3 -2.66602 3 -3.99902c0 -2 -0.666992 -3.66699 -2 -5s-2.66602 -2 -3.99902 -2c-6.66699 0 -13.667 2.5 -21 7.5s-14 12 -20 21s-10.833 19.5 -14.5 31.5s-5.5 24.667 -5.5 38
c0 28.667 5.66699 59.834 17 93.501s24 65.5 38 95.5c16.667 34.667 35 69.667 55 105c-57.333 -68.667 -110.833 -127.667 -160.5 -177s-95.167 -89.5 -136.5 -120.5s-78.166 -53.833 -110.499 -68.5s-60.166 -22 -83.499 -22c-26.667 0 -46.834 8.66699 -60.501 26
s-20.5 42 -20.5 74c0 25.333 5.83301 54 17.5 86s27.834 65.667 48.501 101s45.334 71.5 74.001 108.5s60.167 72.833 94.5 107.5s70.666 67.167 108.999 97.5s77.833 56.833 118.5 79.5s81.667 40.667 123 54s82 20 122 20c13.333 0 22.666 -3.16699 27.999 -9.5
s8 -12.166 8 -17.499zM729 805.994c0 5.33301 -1.33301 9.66699 -4 13s-6.66699 5 -12 5c-9.33301 0 -16.5 -3.83301 -21.5 -11.5s-7.5 -14.167 -7.5 -19.5c0 -3.33301 1.5 -6.83301 4.5 -10.5s7.16699 -5.5 12.5 -5.5c7.33301 0 13.833 3 19.5 9s8.5 12.667 8.5 20z" />
    <glyph glyph-name="AE" unicode="&#xc6;" horiz-adv-x="921" 
d="M1017 704c0 -2 -0.832031 -3.99707 -2.49902 -5.99707s-4.16699 -3 -7.5 -3c-5.33301 0.666992 -10.166 1 -14.499 1h-11.5c-30 0 -60.333 -6.83301 -91 -20.5s-58.667 -30.5 -84 -50.5s-46 -41.333 -62 -64s-24 -43.334 -24 -62.001c0 -16 7.16699 -29.167 21.5 -39.5
s38.166 -15.5 71.499 -15.5c21.333 0 40.333 3.16699 57 9.5s27.667 9.5 33 9.5c6 0 9 -3.66699 9 -11c0 -4.66699 -3.66699 -7.66699 -11 -9c-46 -8 -91.333 -24.667 -136 -50s-84.834 -54.833 -120.501 -88.5s-64.334 -68.667 -86.001 -105s-32.5 -69.5 -32.5 -99.5
c0 -37.333 12.667 -64.833 38 -82.5s57 -26.5 95 -26.5c40 0 82.833 8.83301 128.5 26.5s87.5 43.5 125.5 77.5l11 -10c-48.667 -42 -96 -71.833 -142 -89.5s-88 -26.5 -126 -26.5c-24 0 -46 3 -66 9s-37 14.5 -51 25.5s-25 24 -33 39s-12 31.167 -12 48.5
c0 29.333 9.5 60.833 28.5 94.5s43.5 66.167 73.5 97.5s63.333 60 100 86s73 45.667 109 59c-44 0 -75.333 6.16699 -94 18.5s-28 28.166 -28 47.499c0 18 6.83301 37.5 20.5 58.5s31.834 41.5 54.501 61.5s48.167 38.5 76.5 55.5s57.5 29.833 87.5 38.5
c5.33301 1.33301 14 3 26 5s23.667 3 35 3c9.33301 0 17.333 -0.833008 24 -2.5s10 -4.83398 10 -9.50098zM733.001 692.003c0 -5.33301 -2.00098 -8.00586 -6.00098 -8.00586c-8 2.66699 -16.333 4.5 -25 5.5s-17.667 1.5 -27 1.5c-40 0 -83.833 -10 -131.5 -30
s-95.5 -46.667 -143.5 -80s-94.667 -71.666 -140 -114.999s-85.333 -88 -120 -134s-62.5 -92.167 -83.5 -138.5s-31.5 -88.833 -31.5 -127.5c0 -28 5 -48 15 -60s24 -18 42 -18c20.667 0 45.5 7.33301 74.5 22s60.333 34.334 94 59.001s68.334 53.334 104.001 86.001
s70.667 67.167 105 103.5s67 73.5 98 111.5s58.167 74.333 81.5 109c4.66699 7.33301 10.167 13 16.5 17s11.166 6 14.499 6c5.33301 0 8 -2.66699 8 -8c0 -3.33301 -1.16699 -7.5 -3.5 -12.5s-6.83301 -12.167 -13.5 -21.5c-36.667 -52 -67.167 -99 -91.5 -141
s-43.833 -79.5 -58.5 -112.5s-25 -61.833 -31 -86.5s-9 -46 -9 -64c0 -25.333 4.66699 -44.5 14 -57.5s19.666 -21.833 30.999 -26.5c2 -1.33301 3 -2.66602 3 -3.99902c0 -2 -0.666992 -3.66699 -2 -5s-2.66602 -2 -3.99902 -2c-6.66699 0 -13.667 2.5 -21 7.5
s-14 12 -20 21s-10.833 19.5 -14.5 31.5s-5.5 24.667 -5.5 38c0 28.667 5.66699 59.834 17 93.501s24 65.5 38 95.5c16.667 34.667 35 69.667 55 105c-57.333 -68.667 -110.833 -127.667 -160.5 -177s-95.167 -89.5 -136.5 -120.5s-78.166 -53.833 -110.499 -68.5
s-60.166 -22 -83.499 -22c-26.667 0 -46.834 8.66699 -60.501 26s-20.5 42 -20.5 74c0 25.333 5.83301 54 17.5 86s27.834 65.667 48.501 101s45.334 71.5 74.001 108.5s60.167 72.833 94.5 107.5s70.666 67.167 108.999 97.5s77.833 56.833 118.5 79.5
s81.667 40.667 123 54s82 20 122 20c13.333 0 22.666 -3.16699 27.999 -9.5s8 -12.166 8 -17.499z" />
    <glyph glyph-name="Ccedilla" unicode="&#xc7;" horiz-adv-x="403" 
d="M790 625c0 -16.667 -5.66992 -35.001 -17.0029 -55.001s-26.333 -40.167 -45 -60.5s-40 -40.166 -64 -59.499s-48.667 -36.5 -74 -51.5s-50.5 -27 -75.5 -36s-47.833 -13.5 -68.5 -13.5c-17.333 0 -26 10 -26 30c0 17.333 9.5 40.333 28.5 69s52.833 61.334 101.5 98.001
c5.33301 2.66699 10.333 4 15 4c4 0 7.5 -0.666992 10.5 -2s4.5 -3.66602 4.5 -6.99902c0 -4.66699 -7.33301 -13 -22 -25l-48.5 -41.5c-17.667 -15.667 -33.834 -32.5 -48.501 -50.5s-22 -35 -22 -51c0 -7.33301 5.33301 -11 16 -11c17.333 0 36.833 4.16699 58.5 12.5
s43.834 19.5 66.501 33.5s44.834 30 66.501 48s41 36.5 58 55.5s30.667 37.833 41 56.5s15.5 35.667 15.5 51c0 17.333 -7.66699 31.166 -23 41.499s-41.666 15.5 -78.999 15.5c-51.333 0 -102.833 -10.5 -154.5 -31.5s-101.167 -48.5 -148.5 -82.5
s-91.333 -72.667 -132 -116s-76 -87.166 -106 -131.499s-53.667 -87.333 -71 -129s-26 -78.167 -26 -109.5c0 -32.667 10.167 -55.667 30.5 -69s45.5 -20 75.5 -20c22 0 45.5 3 70.5 9s49.667 14 74 24s47.333 21.5 69 34.5s39.834 26.5 54.501 40.5l10 -11
c-45.333 -38 -93.5 -67.667 -144.5 -89s-97.833 -32 -140.5 -32c-12.667 0 -24.667 1 -36 3l-3 -5c4 -1.33301 7.33301 -3.33301 10 -6c2.66699 -2 5 -4.33301 7 -7s3 -6 3 -10c0 -10 -3.16699 -18.667 -9.5 -26s-14.166 -13.166 -23.499 -17.499s-19.166 -7.5 -29.499 -9.5
s-19.5 -3 -27.5 -3c-4.66699 0 -7 1.66699 -7 5c0 2.66699 1.33301 4 4 4c7.33301 0 15 1 23 3s15.5 4.66699 22.5 8s12.833 7.66602 17.5 12.999s7 11.333 7 18c0 5.33301 -1.33301 9.16602 -4 11.499s-5.66699 4.16602 -9 5.49902c-2.66699 0 -4 1.66699 -4 5
c0 1.33301 0.333008 3 1 5s2.66699 5.33301 6 10c-23.333 7.33301 -42.166 19.833 -56.499 37.5s-21.5 41.5 -21.5 71.5c0 24.667 5.16699 52.334 15.5 83.001s24.666 62.667 42.999 96s40.666 67.166 66.999 101.499s55.5 67.5 87.5 99.5s66.333 62 103 90
s75.167 52.5 115.5 73.5s81.666 37.5 123.999 49.5s84.833 18 127.5 18c42 0 72 -6 90 -18s27 -27.667 27 -47z" />
    <glyph glyph-name="Egrave" unicode="&#xc8;" horiz-adv-x="709" 
d="M825 782c0 -0.666992 -2 -1.66602 -6 -2.99902l-31 11c-11.333 4 -21.833 8.33301 -31.5 13s-17.667 9.16699 -24 13.5s-9.5 8.16602 -9.5 11.499s1.33301 6.5 4 9.5s5.66699 4.5 9 4.5c2 0 4 -1 6 -3c9.33301 -8 18.833 -15.167 28.5 -21.5s18.5 -11.833 26.5 -16.5
l20 -11.5c5.33301 -3 8 -5.5 8 -7.5zM805 704.001c0 -2 -0.830078 -4.00195 -2.49707 -6.00195s-4.16699 -3 -7.5 -3c-5.33301 0.666992 -10.166 1 -14.499 1h-11.5c-30 0 -60.333 -6.83301 -91 -20.5s-58.667 -30.5 -84 -50.5s-46 -41.333 -62 -64s-24 -43.334 -24 -62.001
c0 -16 7.16699 -29.167 21.5 -39.5s38.166 -15.5 71.499 -15.5c21.333 0 40.333 3.16699 57 9.5s27.667 9.5 33 9.5c6 0 9 -3.66699 9 -11c0 -4.66699 -3.66699 -7.66699 -11 -9c-46 -8 -91.333 -24.667 -136 -50s-84.834 -54.833 -120.501 -88.5
s-64.334 -68.667 -86.001 -105s-32.5 -69.5 -32.5 -99.5c0 -37.333 12.667 -64.833 38 -82.5s57 -26.5 95 -26.5c40 0 82.833 8.83301 128.5 26.5s87.5 43.5 125.5 77.5l11 -10c-48.667 -42 -96 -71.833 -142 -89.5s-88 -26.5 -126 -26.5c-24 0 -46 3 -66 9
s-37 14.5 -51 25.5s-25 24 -33 39s-12 31.167 -12 48.5c0 29.333 9.5 60.833 28.5 94.5s43.5 66.167 73.5 97.5s63.333 60 100 86s73 45.667 109 59c-44 0 -75.167 6 -93.5 18s-27.5 27.333 -27.5 46c0 17.333 7 36.5 21 57.5s32.167 41.333 54.5 61s48 37.834 77 54.501
s58.5 29.334 88.5 38.001c4 1.33301 6 3 6 5c0 1.33301 -1.66699 2.16602 -5 2.49902s-9.66602 0.5 -18.999 0.5c-54 0 -105.333 -15 -154 -45s-96.834 -68.5 -144.501 -115.5s-95.834 -99.167 -144.501 -156.5s-100.167 -113.5 -154.5 -168.5s-112.5 -105.5 -174.5 -151.5
s-130 -81 -204 -105c-1.33301 -0.666992 -2.66602 -1 -3.99902 -1s-2 1 -2 3c0 2.66699 1.16699 5.83398 3.5 9.50098s4.16602 5.83398 5.49902 6.50098c46 12 90.667 31.667 134 59s85.5 59.5 126.5 96.5s81.167 77 120.5 120l117.5 129l116 124
c38.333 39.667 77.333 75 117 106s79.834 55.667 120.501 74s82.667 27.5 126 27.5c23.333 0 41.833 -0.666992 55.5 -2s24.167 -2.83301 31.5 -4.5s12.166 -3.66699 14.499 -6s3.5 -4.5 3.5 -6.5z" />
    <glyph glyph-name="Eacute" unicode="&#xc9;" horiz-adv-x="709" 
d="M815 859c0 -3.33301 -3.16699 -7.16699 -9.5 -11.5s-14.333 -8.83301 -24 -13.5s-20.167 -9 -31.5 -13l-31 -11c-4 1.33301 -6 2.33301 -6 3c0 2 2.66699 4.5 8 7.5l20 11.5c8 4.66699 16.833 10.167 26.5 16.5s19.167 13.5 28.5 21.5c2 2 4 3 6 3
c3.33301 0 6.33301 -1.5 9 -4.5s4 -6.16699 4 -9.5zM805 703.999c0 -2 -0.830078 -4.00195 -2.49707 -6.00195s-4.16699 -3 -7.5 -3c-5.33301 0.666992 -10.166 1 -14.499 1h-11.5c-30 0 -60.333 -6.83301 -91 -20.5s-58.667 -30.5 -84 -50.5s-46 -41.333 -62 -64
s-24 -43.334 -24 -62.001c0 -16 7.16699 -29.167 21.5 -39.5s38.166 -15.5 71.499 -15.5c21.333 0 40.333 3.16699 57 9.5s27.667 9.5 33 9.5c6 0 9 -3.66699 9 -11c0 -4.66699 -3.66699 -7.66699 -11 -9c-46 -8 -91.333 -24.667 -136 -50s-84.834 -54.833 -120.501 -88.5
s-64.334 -68.667 -86.001 -105s-32.5 -69.5 -32.5 -99.5c0 -37.333 12.667 -64.833 38 -82.5s57 -26.5 95 -26.5c40 0 82.833 8.83301 128.5 26.5s87.5 43.5 125.5 77.5l11 -10c-48.667 -42 -96 -71.833 -142 -89.5s-88 -26.5 -126 -26.5c-24 0 -46 3 -66 9
s-37 14.5 -51 25.5s-25 24 -33 39s-12 31.167 -12 48.5c0 29.333 9.5 60.833 28.5 94.5s43.5 66.167 73.5 97.5s63.333 60 100 86s73 45.667 109 59c-44 0 -75.167 6 -93.5 18s-27.5 27.333 -27.5 46c0 17.333 7 36.5 21 57.5s32.167 41.333 54.5 61s48 37.834 77 54.501
s58.5 29.334 88.5 38.001c4 1.33301 6 3 6 5c0 1.33301 -1.66699 2.16602 -5 2.49902s-9.66602 0.5 -18.999 0.5c-54 0 -105.333 -15 -154 -45s-96.834 -68.5 -144.501 -115.5s-95.834 -99.167 -144.501 -156.5s-100.167 -113.5 -154.5 -168.5s-112.5 -105.5 -174.5 -151.5
s-130 -81 -204 -105c-1.33301 -0.666992 -2.66602 -1 -3.99902 -1s-2 1 -2 3c0 2.66699 1.16699 5.83398 3.5 9.50098s4.16602 5.83398 5.49902 6.50098c46 12 90.667 31.667 134 59s85.5 59.5 126.5 96.5s81.167 77 120.5 120l117.5 129l116 124
c38.333 39.667 77.333 75 117 106s79.834 55.667 120.501 74s82.667 27.5 126 27.5c23.333 0 41.833 -0.666992 55.5 -2s24.167 -2.83301 31.5 -4.5s12.166 -3.66699 14.499 -6s3.5 -4.5 3.5 -6.5z" />
    <glyph glyph-name="Ecircumflex" unicode="&#xca;" horiz-adv-x="709" 
d="M811 774c0 -1.33301 -0.668945 -2.5 -2.00195 -3.5s-2.66602 -1.5 -3.99902 -1.5c-2 0 -5.16699 2.16699 -9.5 6.5s-8.83301 9.16602 -13.5 14.499c-5.33301 6 -10.666 12.667 -15.999 20c-8 -5.33301 -17 -10.5 -27 -15.5s-19.5 -9.33301 -28.5 -13s-17 -6.66699 -24 -9
s-11.5 -3.5 -13.5 -3.5c-2.66699 0 -4 1.33301 -4 4c0 0.666992 3 2.83398 9 6.50098s13.5 8 22.5 13l28.5 16.5c10 6 19 12 27 18c4 3.33301 7 5.33301 9 6s4.66699 1 8 1c2 0 4.16699 -1.83301 6.5 -5.5s5 -8.5 8 -14.5s6.5 -12.5 10.5 -19.5s8.33301 -13.833 13 -20.5z
M804.998 704c0 -2 -0.830078 -4.00195 -2.49707 -6.00195s-4.16699 -3 -7.5 -3c-5.33301 0.666992 -10.166 1 -14.499 1h-11.5c-30 0 -60.333 -6.83301 -91 -20.5s-58.667 -30.5 -84 -50.5s-46 -41.333 -62 -64s-24 -43.334 -24 -62.001c0 -16 7.16699 -29.167 21.5 -39.5
s38.166 -15.5 71.499 -15.5c21.333 0 40.333 3.16699 57 9.5s27.667 9.5 33 9.5c6 0 9 -3.66699 9 -11c0 -4.66699 -3.66699 -7.66699 -11 -9c-46 -8 -91.333 -24.667 -136 -50s-84.834 -54.833 -120.501 -88.5s-64.334 -68.667 -86.001 -105s-32.5 -69.5 -32.5 -99.5
c0 -37.333 12.667 -64.833 38 -82.5s57 -26.5 95 -26.5c40 0 82.833 8.83301 128.5 26.5s87.5 43.5 125.5 77.5l11 -10c-48.667 -42 -96 -71.833 -142 -89.5s-88 -26.5 -126 -26.5c-24 0 -46 3 -66 9s-37 14.5 -51 25.5s-25 24 -33 39s-12 31.167 -12 48.5
c0 29.333 9.5 60.833 28.5 94.5s43.5 66.167 73.5 97.5s63.333 60 100 86s73 45.667 109 59c-44 0 -75.167 6 -93.5 18s-27.5 27.333 -27.5 46c0 17.333 7 36.5 21 57.5s32.167 41.333 54.5 61s48 37.834 77 54.501s58.5 29.334 88.5 38.001c4 1.33301 6 3 6 5
c0 1.33301 -1.66699 2.16602 -5 2.49902s-9.66602 0.5 -18.999 0.5c-54 0 -105.333 -15 -154 -45s-96.834 -68.5 -144.501 -115.5s-95.834 -99.167 -144.501 -156.5s-100.167 -113.5 -154.5 -168.5s-112.5 -105.5 -174.5 -151.5s-130 -81 -204 -105
c-1.33301 -0.666992 -2.66602 -1 -3.99902 -1s-2 1 -2 3c0 2.66699 1.16699 5.83398 3.5 9.50098s4.16602 5.83398 5.49902 6.50098c46 12 90.667 31.667 134 59s85.5 59.5 126.5 96.5s81.167 77 120.5 120l117.5 129l116 124c38.333 39.667 77.333 75 117 106
s79.834 55.667 120.501 74s82.667 27.5 126 27.5c23.333 0 41.833 -0.666992 55.5 -2s24.167 -2.83301 31.5 -4.5s12.166 -3.66699 14.499 -6s3.5 -4.5 3.5 -6.5z" />
    <glyph glyph-name="Edieresis" unicode="&#xcb;" horiz-adv-x="709" 
d="M789 813c0 -5.33301 -2.66797 -11.332 -8.00098 -17.999s-10.666 -10 -15.999 -10c-6 0 -9 3.33301 -9 10c0 5.33301 2.83301 11.166 8.5 17.499s11.5 9.5 17.5 9.5c4.66699 0 7 -3 7 -9zM698.999 813.001c0 -5.33301 -2.66797 -11.332 -8.00098 -17.999
s-10.666 -10 -15.999 -10c-6 0 -9 3.33301 -9 10c0 5.33301 2.83301 11.166 8.5 17.499s11.5 9.5 17.5 9.5c4.66699 0 7 -3 7 -9zM804.998 704.002c0 -2 -0.830078 -4.00195 -2.49707 -6.00195s-4.16699 -3 -7.5 -3c-5.33301 0.666992 -10.166 1 -14.499 1h-11.5
c-30 0 -60.333 -6.83301 -91 -20.5s-58.667 -30.5 -84 -50.5s-46 -41.333 -62 -64s-24 -43.334 -24 -62.001c0 -16 7.16699 -29.167 21.5 -39.5s38.166 -15.5 71.499 -15.5c21.333 0 40.333 3.16699 57 9.5s27.667 9.5 33 9.5c6 0 9 -3.66699 9 -11
c0 -4.66699 -3.66699 -7.66699 -11 -9c-46 -8 -91.333 -24.667 -136 -50s-84.834 -54.833 -120.501 -88.5s-64.334 -68.667 -86.001 -105s-32.5 -69.5 -32.5 -99.5c0 -37.333 12.667 -64.833 38 -82.5s57 -26.5 95 -26.5c40 0 82.833 8.83301 128.5 26.5
s87.5 43.5 125.5 77.5l11 -10c-48.667 -42 -96 -71.833 -142 -89.5s-88 -26.5 -126 -26.5c-24 0 -46 3 -66 9s-37 14.5 -51 25.5s-25 24 -33 39s-12 31.167 -12 48.5c0 29.333 9.5 60.833 28.5 94.5s43.5 66.167 73.5 97.5s63.333 60 100 86s73 45.667 109 59
c-44 0 -75.167 6 -93.5 18s-27.5 27.333 -27.5 46c0 17.333 7 36.5 21 57.5s32.167 41.333 54.5 61s48 37.834 77 54.501s58.5 29.334 88.5 38.001c4 1.33301 6 3 6 5c0 1.33301 -1.66699 2.16602 -5 2.49902s-9.66602 0.5 -18.999 0.5c-54 0 -105.333 -15 -154 -45
s-96.834 -68.5 -144.501 -115.5s-95.834 -99.167 -144.501 -156.5s-100.167 -113.5 -154.5 -168.5s-112.5 -105.5 -174.5 -151.5s-130 -81 -204 -105c-1.33301 -0.666992 -2.66602 -1 -3.99902 -1s-2 1 -2 3c0 2.66699 1.16699 5.83398 3.5 9.50098
s4.16602 5.83398 5.49902 6.50098c46 12 90.667 31.667 134 59s85.5 59.5 126.5 96.5s81.167 77 120.5 120l117.5 129l116 124c38.333 39.667 77.333 75 117 106s79.834 55.667 120.501 74s82.667 27.5 126 27.5c23.333 0 41.833 -0.666992 55.5 -2
s24.167 -2.83301 31.5 -4.5s12.166 -3.66699 14.499 -6s3.5 -4.5 3.5 -6.5z" />
    <glyph glyph-name="Igrave" unicode="&#xcc;" horiz-adv-x="753" 
d="M1056 767c0 -0.666992 -2 -1.66602 -6 -2.99902l-31 11c-11.333 4 -21.833 8.33301 -31.5 13s-17.667 9.16699 -24 13.5s-9.5 8.16602 -9.5 11.499s1.33301 6.5 4 9.5s5.66699 4.5 9 4.5c2 0 4 -1 6 -3c9.33301 -8 18.833 -15.167 28.5 -21.5s18.5 -11.833 26.5 -16.5
l20 -11.5c5.33301 -3 8 -5.5 8 -7.5zM1018 686.001c0 -16.667 -7.33008 -40.168 -21.9971 -70.501s-35.334 -64.666 -62.001 -102.999s-58.5 -79.166 -95.5 -122.499s-77.5 -86 -121.5 -128s-91.167 -81.833 -141.5 -119.5s-101.833 -70.5 -154.5 -98.5v-1
c21.333 -3.33301 42.666 -6.16602 63.999 -8.49902s42.333 -3.5 63 -3.5c38 0 73.833 4.66699 107.5 14s63.834 25.666 90.501 48.999c0.666992 0.666992 1.66699 1 3 1c2.66699 0 4.5 -1.66699 5.5 -5s1.5 -5.66602 1.5 -6.99902c-30 -26 -63.5 -44.333 -100.5 -55
s-75.833 -16 -116.5 -16c-20.667 0 -41.167 1 -61.5 3s-41.166 4.66699 -62.499 8c-7.33301 -24.667 -13.333 -48.834 -18 -72.501s-7.66699 -46.834 -9 -69.501c-0.666992 -11.333 -2.66699 -17 -6 -17c-4 0 -6.66699 2 -8 6c-0.666992 2 -1 4.33301 -1 7
c0 23.333 1.83301 47.5 5.5 72.5s9.16699 50.833 16.5 77.5c-1.33301 0.666992 -3 1 -5 1c-42.667 -20 -85.5 -35.833 -128.5 -47.5s-85.833 -17.5 -128.5 -17.5c-18.667 0 -38 2.33301 -58 7s-38.5 12.167 -55.5 22.5s-31.5 24 -43.5 41s-19.333 37.833 -22 62.5
c0 11.333 2.66699 21.166 8 29.499s12.666 12.5 21.999 12.5c24 0 51.667 -3.33301 83 -10s64.666 -14.667 99.999 -24l110.5 -29.5c38.333 -10.333 76.833 -19.166 115.5 -26.499l9 5c14.667 49.333 34.167 99.833 58.5 151.5s52 102 83 151s64.667 95 101 138
s73.666 80.667 111.999 113s77.333 57.833 117 76.5s78.167 28 115.5 28c6.66699 0 13.167 -1.83301 19.5 -5.5s9.5 -10.167 9.5 -19.5zM1003 683c0 9.33301 -6.66992 13.999 -20.0029 13.999c-25.333 0 -54.166 -8.66699 -86.499 -26s-66 -40.833 -101 -70.5
s-70.333 -64.834 -106 -105.501s-69.667 -84.167 -102 -130.5s-62.166 -94.833 -89.499 -145.5s-50 -101 -68 -151c50 28.667 98.667 62.334 146 101.001s92.333 78.834 135 120.501s81.834 83.5 117.501 125.5s66.5 81 92.5 117s46.167 67.333 60.5 94s21.5 45.667 21.5 57
zM364 33.999c-36 8 -71.499 16.833 -106.499 26.5l-100 28c-31.667 9 -61.334 16.5 -89.001 22.5s-52.167 9 -73.5 9c-7.33301 0 -11.833 -3.5 -13.5 -10.5s-2.5 -14.5 -2.5 -22.5c0 -16 4.33301 -30.5 13 -43.5s20.834 -24.167 36.501 -33.5s34.167 -16.5 55.5 -21.5
s44.666 -7.5 69.999 -7.5c34 0 68.5 4.66699 103.5 14s70.5 22.333 106.5 39z" />
    <glyph glyph-name="Iacute" unicode="&#xcd;" horiz-adv-x="753" 
d="M1075 815c0 -3.33301 -3.16699 -7.16699 -9.5 -11.5s-14.333 -8.83301 -24 -13.5s-20.167 -9 -31.5 -13l-31 -11c-4 1.33301 -6 2.33301 -6 3c0 2 2.66699 4.5 8 7.5l20 11.5c8 4.66699 16.833 10.167 26.5 16.5s19.167 13.5 28.5 21.5c2 2 4 3 6 3
c3.33301 0 6.33301 -1.5 9 -4.5s4 -6.16699 4 -9.5zM1018 685.999c0 -16.667 -7.33008 -40.168 -21.9971 -70.501s-35.334 -64.666 -62.001 -102.999s-58.5 -79.166 -95.5 -122.499s-77.5 -86 -121.5 -128s-91.167 -81.833 -141.5 -119.5s-101.833 -70.5 -154.5 -98.5v-1
c21.333 -3.33301 42.666 -6.16602 63.999 -8.49902s42.333 -3.5 63 -3.5c38 0 73.833 4.66699 107.5 14s63.834 25.666 90.501 48.999c0.666992 0.666992 1.66699 1 3 1c2.66699 0 4.5 -1.66699 5.5 -5s1.5 -5.66602 1.5 -6.99902c-30 -26 -63.5 -44.333 -100.5 -55
s-75.833 -16 -116.5 -16c-20.667 0 -41.167 1 -61.5 3s-41.166 4.66699 -62.499 8c-7.33301 -24.667 -13.333 -48.834 -18 -72.501s-7.66699 -46.834 -9 -69.501c-0.666992 -11.333 -2.66699 -17 -6 -17c-4 0 -6.66699 2 -8 6c-0.666992 2 -1 4.33301 -1 7
c0 23.333 1.83301 47.5 5.5 72.5s9.16699 50.833 16.5 77.5c-1.33301 0.666992 -3 1 -5 1c-42.667 -20 -85.5 -35.833 -128.5 -47.5s-85.833 -17.5 -128.5 -17.5c-18.667 0 -38 2.33301 -58 7s-38.5 12.167 -55.5 22.5s-31.5 24 -43.5 41s-19.333 37.833 -22 62.5
c0 11.333 2.66699 21.166 8 29.499s12.666 12.5 21.999 12.5c24 0 51.667 -3.33301 83 -10s64.666 -14.667 99.999 -24l110.5 -29.5c38.333 -10.333 76.833 -19.166 115.5 -26.499l9 5c14.667 49.333 34.167 99.833 58.5 151.5s52 102 83 151s64.667 95 101 138
s73.666 80.667 111.999 113s77.333 57.833 117 76.5s78.167 28 115.5 28c6.66699 0 13.167 -1.83301 19.5 -5.5s9.5 -10.167 9.5 -19.5zM1003 682.998c0 9.33301 -6.66992 13.999 -20.0029 13.999c-25.333 0 -54.166 -8.66699 -86.499 -26s-66 -40.833 -101 -70.5
s-70.333 -64.834 -106 -105.501s-69.667 -84.167 -102 -130.5s-62.166 -94.833 -89.499 -145.5s-50 -101 -68 -151c50 28.667 98.667 62.334 146 101.001s92.333 78.834 135 120.501s81.834 83.5 117.501 125.5s66.5 81 92.5 117s46.167 67.333 60.5 94s21.5 45.667 21.5 57
zM364 33.9971c-36 8 -71.499 16.833 -106.499 26.5l-100 28c-31.667 9 -61.334 16.5 -89.001 22.5s-52.167 9 -73.5 9c-7.33301 0 -11.833 -3.5 -13.5 -10.5s-2.5 -14.5 -2.5 -22.5c0 -16 4.33301 -30.5 13 -43.5s20.834 -24.167 36.501 -33.5s34.167 -16.5 55.5 -21.5
s44.666 -7.5 69.999 -7.5c34 0 68.5 4.66699 103.5 14s70.5 22.333 106.5 39z" />
    <glyph glyph-name="Icircumflex" unicode="&#xce;" horiz-adv-x="753" 
d="M1060 760c0 -1.33301 -0.668945 -2.5 -2.00195 -3.5s-2.66602 -1.5 -3.99902 -1.5c-2 0 -5.16699 2.16699 -9.5 6.5s-8.83301 9.16602 -13.5 14.499c-5.33301 6 -10.666 12.667 -15.999 20c-8 -5.33301 -17 -10.5 -27 -15.5s-19.5 -9.33301 -28.5 -13
s-17 -6.66699 -24 -9s-11.5 -3.5 -13.5 -3.5c-2.66699 0 -4 1.33301 -4 4c0 0.666992 3 2.83398 9 6.50098s13.5 8 22.5 13l28.5 16.5c10 6 19 12 27 18c4 3.33301 7 5.33301 9 6s4.66699 1 8 1c2 0 4.16699 -1.83301 6.5 -5.5s5 -8.5 8 -14.5s6.5 -12.5 10.5 -19.5
s8.33301 -13.833 13 -20.5zM1018 686c0 -16.667 -7.33008 -40.168 -21.9971 -70.501s-35.334 -64.666 -62.001 -102.999s-58.5 -79.166 -95.5 -122.499s-77.5 -86 -121.5 -128s-91.167 -81.833 -141.5 -119.5s-101.833 -70.5 -154.5 -98.5v-1
c21.333 -3.33301 42.666 -6.16602 63.999 -8.49902s42.333 -3.5 63 -3.5c38 0 73.833 4.66699 107.5 14s63.834 25.666 90.501 48.999c0.666992 0.666992 1.66699 1 3 1c2.66699 0 4.5 -1.66699 5.5 -5s1.5 -5.66602 1.5 -6.99902c-30 -26 -63.5 -44.333 -100.5 -55
s-75.833 -16 -116.5 -16c-20.667 0 -41.167 1 -61.5 3s-41.166 4.66699 -62.499 8c-7.33301 -24.667 -13.333 -48.834 -18 -72.501s-7.66699 -46.834 -9 -69.501c-0.666992 -11.333 -2.66699 -17 -6 -17c-4 0 -6.66699 2 -8 6c-0.666992 2 -1 4.33301 -1 7
c0 23.333 1.83301 47.5 5.5 72.5s9.16699 50.833 16.5 77.5c-1.33301 0.666992 -3 1 -5 1c-42.667 -20 -85.5 -35.833 -128.5 -47.5s-85.833 -17.5 -128.5 -17.5c-18.667 0 -38 2.33301 -58 7s-38.5 12.167 -55.5 22.5s-31.5 24 -43.5 41s-19.333 37.833 -22 62.5
c0 11.333 2.66699 21.166 8 29.499s12.666 12.5 21.999 12.5c24 0 51.667 -3.33301 83 -10s64.666 -14.667 99.999 -24l110.5 -29.5c38.333 -10.333 76.833 -19.166 115.5 -26.499l9 5c14.667 49.333 34.167 99.833 58.5 151.5s52 102 83 151s64.667 95 101 138
s73.666 80.667 111.999 113s77.333 57.833 117 76.5s78.167 28 115.5 28c6.66699 0 13.167 -1.83301 19.5 -5.5s9.5 -10.167 9.5 -19.5zM1003 682.999c0 9.33301 -6.66992 13.999 -20.0029 13.999c-25.333 0 -54.166 -8.66699 -86.499 -26s-66 -40.833 -101 -70.5
s-70.333 -64.834 -106 -105.501s-69.667 -84.167 -102 -130.5s-62.166 -94.833 -89.499 -145.5s-50 -101 -68 -151c50 28.667 98.667 62.334 146 101.001s92.333 78.834 135 120.501s81.834 83.5 117.501 125.5s66.5 81 92.5 117s46.167 67.333 60.5 94s21.5 45.667 21.5 57
zM363.998 33.998c-36 8 -71.499 16.833 -106.499 26.5l-100 28c-31.667 9 -61.334 16.5 -89.001 22.5s-52.167 9 -73.5 9c-7.33301 0 -11.833 -3.5 -13.5 -10.5s-2.5 -14.5 -2.5 -22.5c0 -16 4.33301 -30.5 13 -43.5s20.834 -24.167 36.501 -33.5s34.167 -16.5 55.5 -21.5
s44.666 -7.5 69.999 -7.5c34 0 68.5 4.66699 103.5 14s70.5 22.333 106.5 39z" />
    <glyph glyph-name="Idieresis" unicode="&#xcf;" horiz-adv-x="753" 
d="M1065 784c0 -5.33301 -2.66797 -11.332 -8.00098 -17.999s-10.666 -10 -15.999 -10c-6 0 -9 3.33301 -9 10c0 5.33301 2.83301 11.166 8.5 17.499s11.5 9.5 17.5 9.5c4.66699 0 7 -3 7 -9zM974.999 784.001c0 -5.33301 -2.66797 -11.332 -8.00098 -17.999
s-10.666 -10 -15.999 -10c-6 0 -9 3.33301 -9 10c0 5.33301 2.83301 11.166 8.5 17.499s11.5 9.5 17.5 9.5c4.66699 0 7 -3 7 -9zM1018 686.002c0 -16.667 -7.33008 -40.168 -21.9971 -70.501s-35.334 -64.666 -62.001 -102.999s-58.5 -79.166 -95.5 -122.499
s-77.5 -86 -121.5 -128s-91.167 -81.833 -141.5 -119.5s-101.833 -70.5 -154.5 -98.5v-1c21.333 -3.33301 42.666 -6.16602 63.999 -8.49902s42.333 -3.5 63 -3.5c38 0 73.833 4.66699 107.5 14s63.834 25.666 90.501 48.999c0.666992 0.666992 1.66699 1 3 1
c2.66699 0 4.5 -1.66699 5.5 -5s1.5 -5.66602 1.5 -6.99902c-30 -26 -63.5 -44.333 -100.5 -55s-75.833 -16 -116.5 -16c-20.667 0 -41.167 1 -61.5 3s-41.166 4.66699 -62.499 8c-7.33301 -24.667 -13.333 -48.834 -18 -72.501s-7.66699 -46.834 -9 -69.501
c-0.666992 -11.333 -2.66699 -17 -6 -17c-4 0 -6.66699 2 -8 6c-0.666992 2 -1 4.33301 -1 7c0 23.333 1.83301 47.5 5.5 72.5s9.16699 50.833 16.5 77.5c-1.33301 0.666992 -3 1 -5 1c-42.667 -20 -85.5 -35.833 -128.5 -47.5s-85.833 -17.5 -128.5 -17.5
c-18.667 0 -38 2.33301 -58 7s-38.5 12.167 -55.5 22.5s-31.5 24 -43.5 41s-19.333 37.833 -22 62.5c0 11.333 2.66699 21.166 8 29.499s12.666 12.5 21.999 12.5c24 0 51.667 -3.33301 83 -10s64.666 -14.667 99.999 -24l110.5 -29.5
c38.333 -10.333 76.833 -19.166 115.5 -26.499l9 5c14.667 49.333 34.167 99.833 58.5 151.5s52 102 83 151s64.667 95 101 138s73.666 80.667 111.999 113s77.333 57.833 117 76.5s78.167 28 115.5 28c6.66699 0 13.167 -1.83301 19.5 -5.5s9.5 -10.167 9.5 -19.5z
M1003 683.001c0 9.33301 -6.66992 13.999 -20.0029 13.999c-25.333 0 -54.166 -8.66699 -86.499 -26s-66 -40.833 -101 -70.5s-70.333 -64.834 -106 -105.501s-69.667 -84.167 -102 -130.5s-62.166 -94.833 -89.499 -145.5s-50 -101 -68 -151
c50 28.667 98.667 62.334 146 101.001s92.333 78.834 135 120.501s81.834 83.5 117.501 125.5s66.5 81 92.5 117s46.167 67.333 60.5 94s21.5 45.667 21.5 57zM363.998 34c-36 8 -71.499 16.833 -106.499 26.5l-100 28c-31.667 9 -61.334 16.5 -89.001 22.5
s-52.167 9 -73.5 9c-7.33301 0 -11.833 -3.5 -13.5 -10.5s-2.5 -14.5 -2.5 -22.5c0 -16 4.33301 -30.5 13 -43.5s20.834 -24.167 36.501 -33.5s34.167 -16.5 55.5 -21.5s44.666 -7.5 69.999 -7.5c34 0 68.5 4.66699 103.5 14s70.5 22.333 106.5 39z" />
    <glyph glyph-name="Eth" unicode="&#xd0;" horiz-adv-x="735" 
d="M761 210c0 -2 -1.49902 -4.5 -4.49902 -7.5s-6.16699 -4.83301 -9.5 -5.5c-5.33301 -0.666992 -10.5 -1 -15.5 -1h-15.5h-26c-18.667 -40.667 -41.834 -76.167 -69.501 -106.5s-57.5 -55.166 -89.5 -74.499s-64.5 -33.833 -97.5 -43.5s-64.167 -14.5 -93.5 -14.5
c-20 0 -38.333 2.16699 -55 6.5s-31.334 10.666 -44.001 18.999s-22.5 18.666 -29.5 30.999s-10.5 26.5 -10.5 42.5v8.5c0 2.33301 0.333008 5.16602 1 8.49902c-22.667 -18.667 -45 -35.667 -67 -51c-18.667 -13.333 -37.5 -25.333 -56.5 -36s-34.5 -16 -46.5 -16
c-8.66699 0 -16 2.33301 -22 7s-9 12.334 -9 23.001c0 15.333 3.5 32.833 10.5 52.5s16.667 40.834 29 63.501s26.833 46.334 43.5 71.001s34.667 49.667 54 75c-13.333 -1.33301 -26.166 -2.33301 -38.499 -3s-24.166 -1.66699 -35.499 -3
c-1.33301 0 -2.33301 0.666992 -3 2s-1 5 -1 11c0 4.66699 0.666992 7.83398 2 9.50098s2.66602 2.5 3.99902 2.5c12.667 1.33301 27 2.66602 43 3.99902l50 4c24.667 32 50.167 63.167 76.5 93.5l76.5 86.5c-11.333 37.333 -17 72.666 -17 105.999
c0 30.667 3.66699 57.167 11 79.5s17.333 40.666 30 54.999s27.667 25 45 32s35.666 10.5 54.999 10.5c32 0 65.333 -8.5 100 -25.5s66.5 -41 95.5 -72s52.833 -68.167 71.5 -111.5s28 -91.333 28 -144c0 -37.333 -3.16699 -71.666 -9.5 -102.999
s-15.166 -60.666 -26.499 -87.999h7c15.333 0 28 0.666992 38 2s16.667 2 20 2c0.666992 -0.666992 1 -1.33398 1 -2.00098zM703.001 383c0 54 -8.83301 102.499 -26.5 145.499s-40 79.5 -67 109.5s-56.5 52.833 -88.5 68.5s-62.333 23.5 -91 23.5
c-32.667 0 -60.167 -10.833 -82.5 -32.5s-33.5 -55.167 -33.5 -100.5c0 -34.667 6.33301 -69.667 19 -105l73.5 76.5c21 21 35.5 35.167 43.5 42.5c2.66699 2.66699 6.66699 4 12 4s10.333 -1.66699 15 -5c1.33301 -0.666992 2 -2 2 -4
c0 -3.33301 -1.66699 -6.83301 -5 -10.5l-10 -10.5c-12 -10.667 -28.5 -26.667 -49.5 -48l-70.5 -75c13.333 -30 30.166 -59.333 50.499 -88s44.333 -54.667 72 -78s58.334 -42.666 92.001 -57.999s70.5 -25 110.5 -29c10.667 25.333 19 52.333 25 81s9 59.667 9 93z
M664.001 197.999c-44.667 4.66699 -85.333 14.334 -122 29.001s-69.167 32.834 -97.5 54.501s-52.666 46.167 -72.999 73.5s-36.5 55.333 -48.5 84l-63 -71.5l-64 -75.5l27 2c8 0.666992 17.167 1.16699 27.5 1.5s20.166 0.5 29.499 0.5c2 0 3.83301 -0.333008 5.5 -1
s2.5 -3 2.5 -7c-0.666992 -9.33301 -1.66699 -15 -3 -17s-3 -3 -5 -3c-16 0 -33 -0.333008 -51 -1s-36.333 -1.66699 -55 -3c-22 -27.333 -42.5 -54 -61.5 -80s-35.667 -50.333 -50 -73s-25.666 -43 -33.999 -61s-12.5 -32.667 -12.5 -44
c0 -6.66699 2.16699 -11.334 6.5 -14.001s9.16602 -4 14.499 -4c16.667 0 34.834 6.33301 54.501 19s38.5 26.5 56.5 41.5l48 41.5c14 12.667 23.667 19 29 19c2 0 3.16699 -3.33301 3.5 -10s0.5 -13.667 0.5 -21c0 -36 11.5 -62.833 34.5 -80.5s51.833 -26.5 86.5 -26.5
c26 0 53.833 4.83301 83.5 14.5s58.667 24 87 43s55.166 42.667 80.499 71s46.333 61.166 63 98.499z" />
    <glyph glyph-name="Ntilde" unicode="&#xd1;" horiz-adv-x="646" 
d="M543 564c0 -6 -4.66602 -11.835 -13.999 -17.502s-18.333 -8.5 -27 -8.5c-10.667 0 -19.334 1.66699 -26.001 5s-12.667 6.83301 -18 10.5s-10.833 7.16699 -16.5 10.5s-12.5 5 -20.5 5s-14 -2.83301 -18 -8.5s-7.66699 -8.5 -11 -8.5s-5 1.66699 -5 5
c0 5.33301 4.33301 11.5 13 18.5s17.667 10.5 27 10.5c8.66699 0 16.5 -1.66699 23.5 -5s13.667 -7.16602 20 -11.499s12.333 -8.16602 18 -11.499s11.5 -5 17.5 -5c8 0 14.333 3.16699 19 9.5s8.66699 9.5 12 9.5c2 0 3.5 -1 4.5 -3s1.5 -3.66699 1.5 -5zM648.001 83.998
c-8.66699 -10.667 -20.8301 -22.4951 -36.4971 -35.4951s-32.834 -25.333 -51.501 -37s-37.667 -21.334 -57 -29.001s-37 -11.5 -53 -11.5c-18.667 0 -34 6.5 -46 19.5s-18 35.5 -18 67.5c0 21.333 3.83301 47 11.5 77s16.334 60.5 26.001 91.5s18.334 60.5 26.001 88.5
s11.5 50.333 11.5 67c0 19.333 -6.33301 29 -19 29c-10 0 -23.167 -4.33301 -39.5 -13s-34.166 -20.334 -53.499 -35.001s-39.833 -31.667 -61.5 -51s-43.167 -39.666 -64.5 -60.999c-16.667 -34 -34.167 -66.833 -52.5 -98.5s-36 -59.834 -53 -84.501
s-32.833 -44.334 -47.5 -59.001s-26.667 -22 -36 -22c-6 0 -9 3.33301 -9 10c0 10.667 4.66699 25.167 14 43.5s22 38.833 38 61.5s34.667 46.5 56 71.5s43.666 49.833 66.999 74.5c12.667 24 24.667 48.167 36 72.5s21.166 47.833 29.499 70.5s15 44.167 20 64.5
s7.5 38.166 7.5 53.499c0 35.333 -10 64.833 -30 88.5s-45.667 44.667 -77 63s-65.5 35.333 -102.5 51s-72.833 32.667 -107.5 51s-65.334 39.666 -92.001 63.999s-45 54.166 -55 89.499c0 2 1 4 3 6c3.33301 3.33301 9.66602 5 18.999 5c4.66699 0 7.66699 -2.33301 9 -7
c13.333 -34.667 33.666 -63.834 60.999 -87.501s57.5 -44.5 90.5 -62.5s67.167 -34.833 102.5 -50.5s67.333 -32.667 96 -51s52.334 -39.666 71.001 -63.999s28 -54.166 28 -89.499c0 -26.667 -6.5 -60.334 -19.5 -101.001s-29.5 -83 -49.5 -127
c20 18.667 39.833 36.167 59.5 52.5s38.5 30.666 56.5 42.999s34.833 22 50.5 29s29.5 10.5 41.5 10.5c12.667 0 21.5 -3.5 26.5 -10.5s7.5 -16.833 7.5 -29.5c0 -17.333 -3.83301 -39.166 -11.5 -65.499l-25.5 -84.5c-9.33301 -30 -17.833 -60.833 -25.5 -92.5
s-11.5 -61.5 -11.5 -89.5c0 -22 4.16699 -37.5 12.5 -46.5s19.166 -13.5 32.499 -13.5c14 0 29.833 3.83301 47.5 11.5s35.167 16.834 52.5 27.501s33.5 22.167 48.5 34.5s27.167 22.833 36.5 31.5zM174.005 200.003c-18 -19.333 -34.667 -38.334 -50 -57.001
s-28.833 -36 -40.5 -52s-20.834 -30.167 -27.501 -42.5s-10 -22.166 -10 -29.499c0 -2 1 -3 3 -3c2.66699 0 8 4.83301 16 14.5s17.833 22.834 29.5 39.501s24.334 36.167 38.001 58.5s27.5 46.166 41.5 71.499z" />
    <glyph glyph-name="Ograve" unicode="&#xd2;" horiz-adv-x="513" 
d="M769 789c0 -0.666992 -2 -1.66602 -6 -2.99902l-31 11c-11.333 4 -21.833 8.33301 -31.5 13s-17.667 9.16699 -24 13.5s-9.5 8.16602 -9.5 11.499s1.33301 6.5 4 9.5s5.66699 4.5 9 4.5c2 0 4 -1 6 -3c9.33301 -8 18.833 -15.167 28.5 -21.5s18.5 -11.833 26.5 -16.5
l20 -11.5c5.33301 -3 8 -5.5 8 -7.5zM758 665.001c0 -14 -2.83301 -31.4941 -8.5 -52.4941s-14 -44.167 -25 -69.5s-24.333 -52.5 -40 -81.5s-33.5 -58.5 -53.5 -88.5c1.33301 -13.333 3.33301 -25.833 6 -37.5s6.66699 -22.834 12 -33.501
c0.666992 -1.33301 1 -3.66602 1 -6.99902c0 -4 -1 -6 -3 -6s-4.66699 2.66699 -8 8c-8.66699 16 -15 35.667 -19 59c-31.333 -46.667 -66.833 -92.5 -106.5 -137.5s-82 -85.167 -127 -120.5s-92 -64 -141 -86s-98.833 -33 -149.5 -33c-36.667 0 -63.334 8.66699 -80.001 26
s-25 40.666 -25 69.999c0 33.333 9.33301 72.166 28 116.499s44.167 90.166 76.5 137.499s70 94 113 140s88.5 87.167 136.5 123.5s97.333 65.666 148 87.999s100 33.5 148 33.5c10 0 16.333 -0.333008 19 -1s4 -2.33398 4 -5.00098c0 -4 -0.666992 -6.83301 -2 -8.5
s-4.66602 -2.5 -9.99902 -2.5c-41.333 0 -86 -11.167 -134 -33.5s-95.833 -51.5 -143.5 -87.5s-93.5 -76.5 -137.5 -121.5s-82.833 -90.667 -116.5 -137s-60.667 -90.833 -81 -133.5s-30.5 -79.334 -30.5 -110.001c0 -24.667 7.33301 -44.167 22 -58.5
s38.667 -21.5 72 -21.5c46.667 0 93.667 12.167 141 36.5s93.333 55.666 138 93.999s87 81.5 127 129.5s75.667 95.667 107 143v9c0 2.66699 -0.166992 5.33398 -0.5 8.00098s-0.5 4.66699 -0.5 6c0 32 3.16699 64.667 9.5 98s15 63.5 26 90.5s23.5 49.167 37.5 66.5
s29 26 45 26c16.667 0 25 -12 25 -36zM743 668.007c0 14 -4.66699 21 -14 21c-8.66699 0 -18.5 -8.16699 -29.5 -24.5s-21.5 -37.5 -31.5 -63.5s-18.5 -55 -25.5 -87s-11.167 -63.667 -12.5 -95c35.333 54.667 63 104.5 83 149.5s30 78.167 30 99.5z" />
    <glyph glyph-name="Oacute" unicode="&#xd3;" horiz-adv-x="513" 
d="M781 827c0 -3.33301 -3.16699 -7.16699 -9.5 -11.5s-14.333 -8.83301 -24 -13.5s-20.167 -9 -31.5 -13l-31 -11c-4 1.33301 -6 2.33301 -6 3c0 2 2.66699 4.5 8 7.5l20 11.5c8 4.66699 16.833 10.167 26.5 16.5s19.167 13.5 28.5 21.5c2 2 4 3 6 3
c3.33301 0 6.33301 -1.5 9 -4.5s4 -6.16699 4 -9.5zM758 664.999c0 -14 -2.83301 -31.4941 -8.5 -52.4941s-14 -44.167 -25 -69.5s-24.333 -52.5 -40 -81.5s-33.5 -58.5 -53.5 -88.5c1.33301 -13.333 3.33301 -25.833 6 -37.5s6.66699 -22.834 12 -33.501
c0.666992 -1.33301 1 -3.66602 1 -6.99902c0 -4 -1 -6 -3 -6s-4.66699 2.66699 -8 8c-8.66699 16 -15 35.667 -19 59c-31.333 -46.667 -66.833 -92.5 -106.5 -137.5s-82 -85.167 -127 -120.5s-92 -64 -141 -86s-98.833 -33 -149.5 -33c-36.667 0 -63.334 8.66699 -80.001 26
s-25 40.666 -25 69.999c0 33.333 9.33301 72.166 28 116.499s44.167 90.166 76.5 137.499s70 94 113 140s88.5 87.167 136.5 123.5s97.333 65.666 148 87.999s100 33.5 148 33.5c10 0 16.333 -0.333008 19 -1s4 -2.33398 4 -5.00098c0 -4 -0.666992 -6.83301 -2 -8.5
s-4.66602 -2.5 -9.99902 -2.5c-41.333 0 -86 -11.167 -134 -33.5s-95.833 -51.5 -143.5 -87.5s-93.5 -76.5 -137.5 -121.5s-82.833 -90.667 -116.5 -137s-60.667 -90.833 -81 -133.5s-30.5 -79.334 -30.5 -110.001c0 -24.667 7.33301 -44.167 22 -58.5
s38.667 -21.5 72 -21.5c46.667 0 93.667 12.167 141 36.5s93.333 55.666 138 93.999s87 81.5 127 129.5s75.667 95.667 107 143v9c0 2.66699 -0.166992 5.33398 -0.5 8.00098s-0.5 4.66699 -0.5 6c0 32 3.16699 64.667 9.5 98s15 63.5 26 90.5s23.5 49.167 37.5 66.5
s29 26 45 26c16.667 0 25 -12 25 -36zM743 668.005c0 14 -4.66699 21 -14 21c-8.66699 0 -18.5 -8.16699 -29.5 -24.5s-21.5 -37.5 -31.5 -63.5s-18.5 -55 -25.5 -87s-11.167 -63.667 -12.5 -95c35.333 54.667 63 104.5 83 149.5s30 78.167 30 99.5z" />
    <glyph glyph-name="Ocircumflex" unicode="&#xd4;" horiz-adv-x="513" 
d="M787 773c0 -1.33301 -0.668945 -2.5 -2.00195 -3.5s-2.66602 -1.5 -3.99902 -1.5c-2 0 -5.16699 2.16699 -9.5 6.5s-8.83301 9.16602 -13.5 14.499c-5.33301 6 -10.666 12.667 -15.999 20c-8 -5.33301 -17 -10.5 -27 -15.5s-19.5 -9.33301 -28.5 -13s-17 -6.66699 -24 -9
s-11.5 -3.5 -13.5 -3.5c-2.66699 0 -4 1.33301 -4 4c0 0.666992 3 2.83398 9 6.50098s13.5 8 22.5 13l28.5 16.5c10 6 19 12 27 18c4 3.33301 7 5.33301 9 6s4.66699 1 8 1c2 0 4.16699 -1.83301 6.5 -5.5s5 -8.5 8 -14.5s6.5 -12.5 10.5 -19.5s8.33301 -13.833 13 -20.5z
M757.998 665c0 -14 -2.83301 -31.4941 -8.5 -52.4941s-14 -44.167 -25 -69.5s-24.333 -52.5 -40 -81.5s-33.5 -58.5 -53.5 -88.5c1.33301 -13.333 3.33301 -25.833 6 -37.5s6.66699 -22.834 12 -33.501c0.666992 -1.33301 1 -3.66602 1 -6.99902c0 -4 -1 -6 -3 -6
s-4.66699 2.66699 -8 8c-8.66699 16 -15 35.667 -19 59c-31.333 -46.667 -66.833 -92.5 -106.5 -137.5s-82 -85.167 -127 -120.5s-92 -64 -141 -86s-98.833 -33 -149.5 -33c-36.667 0 -63.334 8.66699 -80.001 26s-25 40.666 -25 69.999c0 33.333 9.33301 72.166 28 116.499
s44.167 90.166 76.5 137.499s70 94 113 140s88.5 87.167 136.5 123.5s97.333 65.666 148 87.999s100 33.5 148 33.5c10 0 16.333 -0.333008 19 -1s4 -2.33398 4 -5.00098c0 -4 -0.666992 -6.83301 -2 -8.5s-4.66602 -2.5 -9.99902 -2.5c-41.333 0 -86 -11.167 -134 -33.5
s-95.833 -51.5 -143.5 -87.5s-93.5 -76.5 -137.5 -121.5s-82.833 -90.667 -116.5 -137s-60.667 -90.833 -81 -133.5s-30.5 -79.334 -30.5 -110.001c0 -24.667 7.33301 -44.167 22 -58.5s38.667 -21.5 72 -21.5c46.667 0 93.667 12.167 141 36.5s93.333 55.666 138 93.999
s87 81.5 127 129.5s75.667 95.667 107 143v9c0 2.66699 -0.166992 5.33398 -0.5 8.00098s-0.5 4.66699 -0.5 6c0 32 3.16699 64.667 9.5 98s15 63.5 26 90.5s23.5 49.167 37.5 66.5s29 26 45 26c16.667 0 25 -12 25 -36zM742.998 668.006c0 14 -4.66699 21 -14 21
c-8.66699 0 -18.5 -8.16699 -29.5 -24.5s-21.5 -37.5 -31.5 -63.5s-18.5 -55 -25.5 -87s-11.167 -63.667 -12.5 -95c35.333 54.667 63 104.5 83 149.5s30 78.167 30 99.5z" />
    </font>
</defs>
</svg>
