<svg height="70.854" viewBox="0 0 76.898 70.854" width="76.898" xmlns="http://www.w3.org/2000/svg">
  <defs>
    <style>.a {
      opacity: 0.78;
    }

    .b {
      fill: #b3a6ea7a;
    }</style>
  </defs>
  <g class="a" transform="translate(552.428 1225.461)">
    <path class="b"
          d="M-550.749-1225.461a1.679,1.679,0,0,0-1.679,1.679,1.679,1.679,0,0,0,1.679,1.679,1.679,1.679,0,0,0,1.679-1.679A1.679,1.679,0,0,0-550.749-1225.461Z"
          transform="translate(0)"/>
    <path class="b"
          d="M-519.919-1225.461a1.679,1.679,0,0,0-1.679,1.679,1.679,1.679,0,0,0,1.679,1.679,1.679,1.679,0,0,0,1.679-1.679A1.679,1.679,0,0,0-519.919-1225.461Z"
          transform="translate(-22.659)"/>
    <path class="b"
          d="M-489.088-1225.461a1.679,1.679,0,0,0-1.679,1.679,1.679,1.679,0,0,0,1.679,1.679,1.679,1.679,0,0,0,1.679-1.679A1.679,1.679,0,0,0-489.088-1225.461Z"
          transform="translate(-45.319)"/>
    <path class="b"
          d="M-458.257-1225.461a1.679,1.679,0,0,0-1.679,1.679,1.679,1.679,0,0,0,1.679,1.679,1.679,1.679,0,0,0,1.679-1.679A1.679,1.679,0,0,0-458.257-1225.461Z"
          transform="translate(-67.979)"/>
    <path class="b"
          d="M-427.426-1225.461a1.679,1.679,0,0,0-1.679,1.679,1.679,1.679,0,0,0,1.679,1.679,1.679,1.679,0,0,0,1.679-1.679A1.679,1.679,0,0,0-427.426-1225.461Z"
          transform="translate(-90.639)"/>
    <path class="b"
          d="M-396.6-1225.461a1.679,1.679,0,0,0-1.679,1.679,1.679,1.679,0,0,0,1.679,1.679,1.679,1.679,0,0,0,1.679-1.679A1.679,1.679,0,0,0-396.6-1225.461Z"
          transform="translate(-113.299)"/>
    <path class="b"
          d="M-365.765-1225.461a1.679,1.679,0,0,0-1.679,1.679,1.679,1.679,0,0,0,1.679,1.679,1.679,1.679,0,0,0,1.679-1.679A1.679,1.679,0,0,0-365.765-1225.461Z"
          transform="translate(-135.958)"/>
    <path class="b"
          d="M-334.934-1225.461a1.679,1.679,0,0,0-1.679,1.679,1.679,1.679,0,0,0,1.679,1.679,1.679,1.679,0,0,0,1.679-1.679A1.679,1.679,0,0,0-334.934-1225.461Z"
          transform="translate(-158.618)"/>
    <path class="b"
          d="M-304.1-1225.461a1.679,1.679,0,0,0-1.679,1.679,1.679,1.679,0,0,0,1.679,1.679,1.679,1.679,0,0,0,1.679-1.679A1.679,1.679,0,0,0-304.1-1225.461Z"
          transform="translate(-181.277)"/>
    <path class="b"
          d="M-273.272-1222.1a1.679,1.679,0,0,0,1.679-1.679,1.679,1.679,0,0,0-1.679-1.679,1.679,1.679,0,0,0-1.679,1.679A1.679,1.679,0,0,0-273.272-1222.1Z"
          transform="translate(-203.937)"/>
    <path class="b"
          d="M-550.749-1197.164a1.679,1.679,0,0,0-1.679,1.679,1.679,1.679,0,0,0,1.679,1.679,1.679,1.679,0,0,0,1.679-1.679A1.679,1.679,0,0,0-550.749-1197.164Z"
          transform="translate(0 -20.797)"/>
    <path class="b"
          d="M-519.919-1197.164a1.679,1.679,0,0,0-1.679,1.679,1.679,1.679,0,0,0,1.679,1.679,1.679,1.679,0,0,0,1.679-1.679A1.679,1.679,0,0,0-519.919-1197.164Z"
          transform="translate(-22.659 -20.797)"/>
    <path class="b"
          d="M-489.088-1197.164a1.679,1.679,0,0,0-1.679,1.679,1.679,1.679,0,0,0,1.679,1.679,1.679,1.679,0,0,0,1.679-1.679A1.679,1.679,0,0,0-489.088-1197.164Z"
          transform="translate(-45.319 -20.797)"/>
    <path class="b"
          d="M-458.257-1197.164a1.679,1.679,0,0,0-1.679,1.679,1.679,1.679,0,0,0,1.679,1.679,1.679,1.679,0,0,0,1.679-1.679A1.679,1.679,0,0,0-458.257-1197.164Z"
          transform="translate(-67.979 -20.797)"/>
    <path class="b"
          d="M-427.426-1197.164a1.679,1.679,0,0,0-1.679,1.679,1.679,1.679,0,0,0,1.679,1.679,1.679,1.679,0,0,0,1.679-1.679A1.679,1.679,0,0,0-427.426-1197.164Z"
          transform="translate(-90.639 -20.797)"/>
    <path class="b"
          d="M-396.6-1197.164a1.679,1.679,0,0,0-1.679,1.679,1.679,1.679,0,0,0,1.679,1.679,1.679,1.679,0,0,0,1.679-1.679A1.679,1.679,0,0,0-396.6-1197.164Z"
          transform="translate(-113.299 -20.797)"/>
    <path class="b"
          d="M-365.765-1197.164a1.679,1.679,0,0,0-1.679,1.679,1.679,1.679,0,0,0,1.679,1.679,1.679,1.679,0,0,0,1.679-1.679A1.679,1.679,0,0,0-365.765-1197.164Z"
          transform="translate(-135.958 -20.797)"/>
    <path class="b"
          d="M-334.934-1197.164a1.679,1.679,0,0,0-1.679,1.679,1.679,1.679,0,0,0,1.679,1.679,1.679,1.679,0,0,0,1.679-1.679A1.679,1.679,0,0,0-334.934-1197.164Z"
          transform="translate(-158.618 -20.797)"/>
    <path class="b"
          d="M-304.1-1197.164a1.679,1.679,0,0,0-1.679,1.679,1.679,1.679,0,0,0,1.679,1.679,1.679,1.679,0,0,0,1.679-1.679A1.679,1.679,0,0,0-304.1-1197.164Z"
          transform="translate(-181.277 -20.797)"/>
    <path class="b"
          d="M-273.272-1197.164a1.679,1.679,0,0,0-1.679,1.679,1.679,1.679,0,0,0,1.679,1.679,1.679,1.679,0,0,0,1.679-1.679A1.679,1.679,0,0,0-273.272-1197.164Z"
          transform="translate(-203.937 -20.797)"/>
    <path class="b"
          d="M-550.749-1168.868a1.679,1.679,0,0,0-1.679,1.679,1.679,1.679,0,0,0,1.679,1.679,1.679,1.679,0,0,0,1.679-1.679A1.679,1.679,0,0,0-550.749-1168.868Z"
          transform="translate(0 -41.594)"/>
    <path class="b"
          d="M-519.919-1168.868a1.679,1.679,0,0,0-1.679,1.679,1.679,1.679,0,0,0,1.679,1.679,1.679,1.679,0,0,0,1.679-1.679A1.679,1.679,0,0,0-519.919-1168.868Z"
          transform="translate(-22.659 -41.594)"/>
    <path class="b"
          d="M-489.088-1168.868a1.679,1.679,0,0,0-1.679,1.679,1.679,1.679,0,0,0,1.679,1.679,1.679,1.679,0,0,0,1.679-1.679A1.679,1.679,0,0,0-489.088-1168.868Z"
          transform="translate(-45.319 -41.594)"/>
    <path class="b"
          d="M-458.257-1168.868a1.679,1.679,0,0,0-1.679,1.679,1.679,1.679,0,0,0,1.679,1.679,1.679,1.679,0,0,0,1.679-1.679A1.679,1.679,0,0,0-458.257-1168.868Z"
          transform="translate(-67.979 -41.594)"/>
    <path class="b"
          d="M-427.426-1168.868a1.679,1.679,0,0,0-1.679,1.679,1.679,1.679,0,0,0,1.679,1.679,1.679,1.679,0,0,0,1.679-1.679A1.679,1.679,0,0,0-427.426-1168.868Z"
          transform="translate(-90.639 -41.594)"/>
    <path class="b"
          d="M-396.6-1168.868a1.679,1.679,0,0,0-1.679,1.679,1.679,1.679,0,0,0,1.679,1.679,1.679,1.679,0,0,0,1.679-1.679A1.679,1.679,0,0,0-396.6-1168.868Z"
          transform="translate(-113.299 -41.594)"/>
    <path class="b"
          d="M-365.765-1168.868a1.679,1.679,0,0,0-1.679,1.679,1.679,1.679,0,0,0,1.679,1.679,1.679,1.679,0,0,0,1.679-1.679A1.679,1.679,0,0,0-365.765-1168.868Z"
          transform="translate(-135.958 -41.594)"/>
    <path class="b"
          d="M-334.934-1168.868a1.679,1.679,0,0,0-1.679,1.679,1.679,1.679,0,0,0,1.679,1.679,1.679,1.679,0,0,0,1.679-1.679A1.679,1.679,0,0,0-334.934-1168.868Z"
          transform="translate(-158.618 -41.594)"/>
    <path class="b"
          d="M-304.1-1168.868a1.679,1.679,0,0,0-1.679,1.679,1.679,1.679,0,0,0,1.679,1.679,1.679,1.679,0,0,0,1.679-1.679A1.679,1.679,0,0,0-304.1-1168.868Z"
          transform="translate(-181.277 -41.594)"/>
    <path class="b"
          d="M-273.272-1168.868a1.679,1.679,0,0,0-1.679,1.679,1.679,1.679,0,0,0,1.679,1.679,1.679,1.679,0,0,0,1.679-1.679A1.679,1.679,0,0,0-273.272-1168.868Z"
          transform="translate(-203.937 -41.594)"/>
    <path class="b"
          d="M-550.749-1140.571a1.679,1.679,0,0,0-1.679,1.679,1.679,1.679,0,0,0,1.679,1.679,1.679,1.679,0,0,0,1.679-1.679A1.679,1.679,0,0,0-550.749-1140.571Z"
          transform="translate(0 -62.392)"/>
    <path class="b"
          d="M-519.919-1140.571a1.679,1.679,0,0,0-1.679,1.679,1.679,1.679,0,0,0,1.679,1.679,1.679,1.679,0,0,0,1.679-1.679A1.679,1.679,0,0,0-519.919-1140.571Z"
          transform="translate(-22.659 -62.392)"/>
    <path class="b"
          d="M-489.088-1140.571a1.679,1.679,0,0,0-1.679,1.679,1.679,1.679,0,0,0,1.679,1.679,1.679,1.679,0,0,0,1.679-1.679A1.679,1.679,0,0,0-489.088-1140.571Z"
          transform="translate(-45.319 -62.392)"/>
    <path class="b"
          d="M-458.257-1140.571a1.679,1.679,0,0,0-1.679,1.679,1.679,1.679,0,0,0,1.679,1.679,1.679,1.679,0,0,0,1.679-1.679A1.679,1.679,0,0,0-458.257-1140.571Z"
          transform="translate(-67.979 -62.392)"/>
    <path class="b"
          d="M-427.426-1140.571a1.679,1.679,0,0,0-1.679,1.679,1.679,1.679,0,0,0,1.679,1.679,1.679,1.679,0,0,0,1.679-1.679A1.679,1.679,0,0,0-427.426-1140.571Z"
          transform="translate(-90.639 -62.392)"/>
    <path class="b"
          d="M-396.6-1140.571a1.679,1.679,0,0,0-1.679,1.679,1.679,1.679,0,0,0,1.679,1.679,1.679,1.679,0,0,0,1.679-1.679A1.679,1.679,0,0,0-396.6-1140.571Z"
          transform="translate(-113.299 -62.392)"/>
    <path class="b"
          d="M-365.765-1140.571a1.679,1.679,0,0,0-1.679,1.679,1.679,1.679,0,0,0,1.679,1.679,1.679,1.679,0,0,0,1.679-1.679A1.679,1.679,0,0,0-365.765-1140.571Z"
          transform="translate(-135.958 -62.392)"/>
    <path class="b"
          d="M-334.934-1140.571a1.679,1.679,0,0,0-1.679,1.679,1.679,1.679,0,0,0,1.679,1.679,1.679,1.679,0,0,0,1.679-1.679A1.679,1.679,0,0,0-334.934-1140.571Z"
          transform="translate(-158.618 -62.392)"/>
    <path class="b"
          d="M-304.1-1140.571a1.679,1.679,0,0,0-1.679,1.679,1.679,1.679,0,0,0,1.679,1.679,1.679,1.679,0,0,0,1.679-1.679A1.679,1.679,0,0,0-304.1-1140.571Z"
          transform="translate(-181.277 -62.392)"/>
    <path class="b"
          d="M-273.272-1140.571a1.679,1.679,0,0,0-1.679,1.679,1.679,1.679,0,0,0,1.679,1.679,1.679,1.679,0,0,0,1.679-1.679A1.679,1.679,0,0,0-273.272-1140.571Z"
          transform="translate(-203.937 -62.392)"/>
    <circle class="b" cx="1.679" cy="1.679" r="1.679" transform="translate(-552.428 -1195.463)"/>
    <path class="b"
          d="M-519.919-1112.274a1.679,1.679,0,0,0-1.679,1.679,1.679,1.679,0,0,0,1.679,1.679,1.679,1.679,0,0,0,1.679-1.679A1.679,1.679,0,0,0-519.919-1112.274Z"
          transform="translate(-22.659 -83.189)"/>
    <path class="b"
          d="M-489.088-1112.274a1.679,1.679,0,0,0-1.679,1.679,1.679,1.679,0,0,0,1.679,1.679,1.679,1.679,0,0,0,1.679-1.679A1.679,1.679,0,0,0-489.088-1112.274Z"
          transform="translate(-45.319 -83.189)"/>
    <circle class="b" cx="1.679" cy="1.679" r="1.679" transform="translate(-527.915 -1195.463)"/>
    <circle class="b" cx="1.679" cy="1.679" r="1.679" transform="translate(-519.744 -1195.463)"/>
    <circle class="b" cx="1.679" cy="1.679" r="1.679"
            transform="matrix(0.099, -0.995, 0.995, 0.099, -511.73, -1192.279)"/>
    <circle class="b" cx="1.679" cy="1.679" r="1.679" transform="translate(-503.402 -1195.463)"/>
    <circle class="b" cx="1.679" cy="1.679" r="1.679" transform="translate(-495.231 -1195.463)"/>
    <circle class="b" cx="1.679" cy="1.679" r="1.679"
            transform="matrix(0.997, -0.071, 0.071, 0.997, -487.174, -1195.34)"/>
    <circle class="b" cx="1.679" cy="1.679" r="1.679" transform="translate(-478.888 -1195.463)"/>
    <path class="b"
          d="M-550.749-1083.977a1.679,1.679,0,0,0-1.679,1.679,1.679,1.679,0,0,0,1.679,1.679,1.679,1.679,0,0,0,1.679-1.679A1.679,1.679,0,0,0-550.749-1083.977Z"
          transform="translate(0 -103.986)"/>
    <path class="b"
          d="M-519.919-1083.977a1.679,1.679,0,0,0-1.679,1.679,1.679,1.679,0,0,0,1.679,1.679,1.679,1.679,0,0,0,1.679-1.679A1.679,1.679,0,0,0-519.919-1083.977Z"
          transform="translate(-22.659 -103.986)"/>
    <path class="b"
          d="M-489.088-1083.977a1.679,1.679,0,0,0-1.679,1.679,1.679,1.679,0,0,0,1.679,1.679,1.679,1.679,0,0,0,1.679-1.679A1.679,1.679,0,0,0-489.088-1083.977Z"
          transform="translate(-45.319 -103.986)"/>
    <path class="b"
          d="M-458.257-1083.977a1.679,1.679,0,0,0-1.679,1.679,1.679,1.679,0,0,0,1.679,1.679,1.679,1.679,0,0,0,1.679-1.679A1.679,1.679,0,0,0-458.257-1083.977Z"
          transform="translate(-67.979 -103.986)"/>
    <path class="b"
          d="M-427.426-1083.977a1.679,1.679,0,0,0-1.679,1.679,1.679,1.679,0,0,0,1.679,1.679,1.679,1.679,0,0,0,1.679-1.679A1.679,1.679,0,0,0-427.426-1083.977Z"
          transform="translate(-90.639 -103.986)"/>
    <path class="b"
          d="M-396.6-1083.977a1.679,1.679,0,0,0-1.679,1.679,1.679,1.679,0,0,0,1.679,1.679,1.679,1.679,0,0,0,1.679-1.679A1.679,1.679,0,0,0-396.6-1083.977Z"
          transform="translate(-113.299 -103.986)"/>
    <path class="b"
          d="M-365.765-1083.977a1.679,1.679,0,0,0-1.679,1.679,1.679,1.679,0,0,0,1.679,1.679,1.679,1.679,0,0,0,1.679-1.679A1.679,1.679,0,0,0-365.765-1083.977Z"
          transform="translate(-135.958 -103.986)"/>
    <path class="b"
          d="M-334.934-1083.977a1.679,1.679,0,0,0-1.679,1.679,1.679,1.679,0,0,0,1.679,1.679,1.679,1.679,0,0,0,1.679-1.679A1.679,1.679,0,0,0-334.934-1083.977Z"
          transform="translate(-158.618 -103.986)"/>
    <path class="b"
          d="M-304.1-1083.977a1.679,1.679,0,0,0-1.679,1.679,1.679,1.679,0,0,0,1.679,1.679,1.679,1.679,0,0,0,1.679-1.679A1.679,1.679,0,0,0-304.1-1083.977Z"
          transform="translate(-181.277 -103.986)"/>
    <path class="b"
          d="M-273.272-1083.977a1.679,1.679,0,0,0-1.679,1.679,1.679,1.679,0,0,0,1.679,1.679,1.679,1.679,0,0,0,1.679-1.679A1.679,1.679,0,0,0-273.272-1083.977Z"
          transform="translate(-203.937 -103.986)"/>
    <path class="b"
          d="M-550.749-1055.681a1.679,1.679,0,0,0-1.679,1.679,1.679,1.679,0,0,0,1.679,1.679A1.679,1.679,0,0,0-549.07-1054,1.679,1.679,0,0,0-550.749-1055.681Z"
          transform="translate(0 -124.783)"/>
    <path class="b"
          d="M-519.919-1055.681A1.679,1.679,0,0,0-521.6-1054a1.679,1.679,0,0,0,1.679,1.679A1.679,1.679,0,0,0-518.24-1054,1.679,1.679,0,0,0-519.919-1055.681Z"
          transform="translate(-22.659 -124.783)"/>
    <path class="b"
          d="M-489.088-1055.681a1.679,1.679,0,0,0-1.679,1.679,1.679,1.679,0,0,0,1.679,1.679,1.679,1.679,0,0,0,1.679-1.679A1.679,1.679,0,0,0-489.088-1055.681Z"
          transform="translate(-45.319 -124.783)"/>
    <path class="b"
          d="M-458.257-1055.681a1.679,1.679,0,0,0-1.679,1.679,1.679,1.679,0,0,0,1.679,1.679,1.679,1.679,0,0,0,1.679-1.679A1.679,1.679,0,0,0-458.257-1055.681Z"
          transform="translate(-67.979 -124.783)"/>
    <path class="b"
          d="M-427.426-1055.681a1.679,1.679,0,0,0-1.679,1.679,1.679,1.679,0,0,0,1.679,1.679,1.679,1.679,0,0,0,1.679-1.679A1.679,1.679,0,0,0-427.426-1055.681Z"
          transform="translate(-90.639 -124.783)"/>
    <path class="b"
          d="M-396.6-1055.681a1.679,1.679,0,0,0-1.679,1.679,1.679,1.679,0,0,0,1.679,1.679,1.679,1.679,0,0,0,1.679-1.679A1.679,1.679,0,0,0-396.6-1055.681Z"
          transform="translate(-113.299 -124.783)"/>
    <path class="b"
          d="M-365.765-1055.681a1.679,1.679,0,0,0-1.679,1.679,1.679,1.679,0,0,0,1.679,1.679,1.679,1.679,0,0,0,1.679-1.679A1.679,1.679,0,0,0-365.765-1055.681Z"
          transform="translate(-135.958 -124.783)"/>
    <path class="b"
          d="M-334.934-1055.681a1.679,1.679,0,0,0-1.679,1.679,1.679,1.679,0,0,0,1.679,1.679,1.679,1.679,0,0,0,1.679-1.679A1.679,1.679,0,0,0-334.934-1055.681Z"
          transform="translate(-158.618 -124.783)"/>
    <path class="b"
          d="M-304.1-1055.681a1.679,1.679,0,0,0-1.679,1.679,1.679,1.679,0,0,0,1.679,1.679,1.679,1.679,0,0,0,1.679-1.679A1.679,1.679,0,0,0-304.1-1055.681Z"
          transform="translate(-181.277 -124.783)"/>
    <path class="b"
          d="M-273.272-1055.681a1.679,1.679,0,0,0-1.679,1.679,1.679,1.679,0,0,0,1.679,1.679,1.679,1.679,0,0,0,1.679-1.679A1.679,1.679,0,0,0-273.272-1055.681Z"
          transform="translate(-203.937 -124.783)"/>
    <path class="b"
          d="M-550.749-1027.384a1.679,1.679,0,0,0-1.679,1.679,1.679,1.679,0,0,0,1.679,1.679,1.679,1.679,0,0,0,1.679-1.679A1.679,1.679,0,0,0-550.749-1027.384Z"
          transform="translate(0 -145.58)"/>
    <path class="b"
          d="M-519.919-1027.384a1.679,1.679,0,0,0-1.679,1.679,1.679,1.679,0,0,0,1.679,1.679,1.679,1.679,0,0,0,1.679-1.679A1.679,1.679,0,0,0-519.919-1027.384Z"
          transform="translate(-22.659 -145.58)"/>
    <path class="b"
          d="M-489.088-1027.384a1.679,1.679,0,0,0-1.679,1.679,1.679,1.679,0,0,0,1.679,1.679,1.679,1.679,0,0,0,1.679-1.679A1.679,1.679,0,0,0-489.088-1027.384Z"
          transform="translate(-45.319 -145.58)"/>
    <path class="b"
          d="M-458.257-1027.384a1.679,1.679,0,0,0-1.679,1.679,1.679,1.679,0,0,0,1.679,1.679,1.679,1.679,0,0,0,1.679-1.679A1.679,1.679,0,0,0-458.257-1027.384Z"
          transform="translate(-67.979 -145.58)"/>
    <path class="b"
          d="M-427.426-1027.384a1.679,1.679,0,0,0-1.679,1.679,1.679,1.679,0,0,0,1.679,1.679,1.679,1.679,0,0,0,1.679-1.679A1.679,1.679,0,0,0-427.426-1027.384Z"
          transform="translate(-90.639 -145.58)"/>
    <path class="b"
          d="M-396.6-1027.384a1.679,1.679,0,0,0-1.679,1.679,1.679,1.679,0,0,0,1.679,1.679,1.679,1.679,0,0,0,1.679-1.679A1.679,1.679,0,0,0-396.6-1027.384Z"
          transform="translate(-113.299 -145.58)"/>
    <path class="b"
          d="M-365.765-1027.384a1.679,1.679,0,0,0-1.679,1.679,1.679,1.679,0,0,0,1.679,1.679,1.679,1.679,0,0,0,1.679-1.679A1.679,1.679,0,0,0-365.765-1027.384Z"
          transform="translate(-135.958 -145.58)"/>
    <path class="b"
          d="M-334.934-1027.384a1.679,1.679,0,0,0-1.679,1.679,1.679,1.679,0,0,0,1.679,1.679,1.679,1.679,0,0,0,1.679-1.679A1.679,1.679,0,0,0-334.934-1027.384Z"
          transform="translate(-158.618 -145.58)"/>
    <path class="b"
          d="M-304.1-1027.384a1.679,1.679,0,0,0-1.679,1.679,1.679,1.679,0,0,0,1.679,1.679,1.679,1.679,0,0,0,1.679-1.679A1.679,1.679,0,0,0-304.1-1027.384Z"
          transform="translate(-181.277 -145.58)"/>
    <path class="b"
          d="M-273.272-1027.384a1.679,1.679,0,0,0-1.679,1.679,1.679,1.679,0,0,0,1.679,1.679,1.679,1.679,0,0,0,1.679-1.679A1.679,1.679,0,0,0-273.272-1027.384Z"
          transform="translate(-203.937 -145.58)"/>
    <circle class="b" cx="1.679" cy="1.679" r="1.679" transform="translate(-552.428 -1165.465)"/>
    <path class="b"
          d="M-519.919-999.087a1.679,1.679,0,0,0-1.679,1.679,1.679,1.679,0,0,0,1.679,1.679,1.679,1.679,0,0,0,1.679-1.679A1.679,1.679,0,0,0-519.919-999.087Z"
          transform="translate(-22.659 -166.378)"/>
    <path class="b"
          d="M-489.088-999.087a1.679,1.679,0,0,0-1.679,1.679,1.679,1.679,0,0,0,1.679,1.679,1.679,1.679,0,0,0,1.679-1.679A1.679,1.679,0,0,0-489.088-999.087Z"
          transform="translate(-45.319 -166.378)"/>
    <circle class="b" cx="1.679" cy="1.679" r="1.679" transform="translate(-527.915 -1165.465)"/>
    <circle class="b" cx="1.679" cy="1.679" r="1.679" transform="translate(-519.744 -1165.465)"/>
    <circle class="b" cx="1.679" cy="1.679" r="1.679"
            transform="matrix(0.099, -0.995, 0.995, 0.099, -511.73, -1162.281)"/>
    <circle class="b" cx="1.679" cy="1.679" r="1.679" transform="translate(-503.402 -1165.465)"/>
    <circle class="b" cx="1.679" cy="1.679" r="1.679" transform="translate(-495.231 -1165.465)"/>
    <circle class="b" cx="1.679" cy="1.679" r="1.679"
            transform="matrix(0.997, -0.071, 0.071, 0.997, -487.174, -1165.342)"/>
    <circle class="b" cx="1.679" cy="1.679" r="1.679" transform="translate(-478.888 -1165.465)"/>
    <path class="b"
          d="M-550.749-970.79a1.679,1.679,0,0,0-1.679,1.679,1.679,1.679,0,0,0,1.679,1.679,1.679,1.679,0,0,0,1.679-1.679A1.679,1.679,0,0,0-550.749-970.79Z"
          transform="translate(0 -187.175)"/>
    <path class="b"
          d="M-519.919-970.79a1.679,1.679,0,0,0-1.679,1.679,1.679,1.679,0,0,0,1.679,1.679,1.679,1.679,0,0,0,1.679-1.679A1.679,1.679,0,0,0-519.919-970.79Z"
          transform="translate(-22.659 -187.175)"/>
    <path class="b"
          d="M-489.088-970.79a1.679,1.679,0,0,0-1.679,1.679,1.679,1.679,0,0,0,1.679,1.679,1.679,1.679,0,0,0,1.679-1.679A1.679,1.679,0,0,0-489.088-970.79Z"
          transform="translate(-45.319 -187.175)"/>
    <path class="b"
          d="M-458.257-970.79a1.679,1.679,0,0,0-1.679,1.679,1.679,1.679,0,0,0,1.679,1.679,1.679,1.679,0,0,0,1.679-1.679A1.679,1.679,0,0,0-458.257-970.79Z"
          transform="translate(-67.979 -187.175)"/>
    <path class="b"
          d="M-427.426-970.79a1.679,1.679,0,0,0-1.679,1.679,1.679,1.679,0,0,0,1.679,1.679,1.679,1.679,0,0,0,1.679-1.679A1.679,1.679,0,0,0-427.426-970.79Z"
          transform="translate(-90.639 -187.175)"/>
    <path class="b"
          d="M-396.6-970.79a1.679,1.679,0,0,0-1.679,1.679,1.679,1.679,0,0,0,1.679,1.679,1.679,1.679,0,0,0,1.679-1.679A1.679,1.679,0,0,0-396.6-970.79Z"
          transform="translate(-113.299 -187.175)"/>
    <path class="b"
          d="M-365.765-970.79a1.679,1.679,0,0,0-1.679,1.679,1.679,1.679,0,0,0,1.679,1.679,1.679,1.679,0,0,0,1.679-1.679A1.679,1.679,0,0,0-365.765-970.79Z"
          transform="translate(-135.958 -187.175)"/>
    <path class="b"
          d="M-334.934-970.79a1.679,1.679,0,0,0-1.679,1.679,1.679,1.679,0,0,0,1.679,1.679,1.679,1.679,0,0,0,1.679-1.679A1.679,1.679,0,0,0-334.934-970.79Z"
          transform="translate(-158.618 -187.175)"/>
    <path class="b"
          d="M-304.1-970.79a1.679,1.679,0,0,0-1.679,1.679,1.679,1.679,0,0,0,1.679,1.679,1.679,1.679,0,0,0,1.679-1.679A1.679,1.679,0,0,0-304.1-970.79Z"
          transform="translate(-181.277 -187.175)"/>
    <path class="b"
          d="M-273.272-970.79a1.679,1.679,0,0,0-1.679,1.679,1.679,1.679,0,0,0,1.679,1.679,1.679,1.679,0,0,0,1.679-1.679A1.679,1.679,0,0,0-273.272-970.79Z"
          transform="translate(-203.937 -187.175)"/>
  </g>
</svg>
