<svg xmlns="http://www.w3.org/2000/svg" width="185.541" height="27" viewBox="0 0 185.541 27"><defs><style>.a{fill:#342e40;font-size:20px;font-family:Avenir-Heavy, Avenir;font-weight:800;letter-spacing:-0.02em;}.b{fill:#ffc150;}.c{fill:#fed267;}.d{fill:#ffb03a;}</style></defs><g transform="translate(-532 -205)"><text class="a" transform="translate(569.112 225)"><tspan x="0" y="0">Top features</tspan></text><g transform="matrix(0.839, 0.545, -0.545, 0.839, -24.91, -1648.897)"><path class="b" d="M1488.463,1250.864l3.87,2.292a.225.225,0,0,0,.209.011l4.082-1.889a.225.225,0,0,1,.314.253l-.984,4.389a.225.225,0,0,0,.054.2l3.058,3.3a.225.225,0,0,1-.144.377l-4.478.421a.224.224,0,0,0-.175.114l-2.192,3.927a.225.225,0,0,1-.4-.021l-1.784-4.129a.225.225,0,0,0-.163-.131l-4.413-.871a.225.225,0,0,1-.1-.389l3.376-2.973a.225.225,0,0,0,.075-.2l-.535-4.466A.225.225,0,0,1,1488.463,1250.864Z" transform="translate(0 0)"/><g transform="translate(1485.936 1251.754)"><path class="c" d="M1510.7,1276.929l.39,3.847a.594.594,0,0,1-.223.526l-3.035,2.4,3.513-2.063a.594.594,0,0,0,.278-.644Z" transform="translate(-1507.837 -1276.929)"/></g><path class="d" d="M1664.378,1275.344l.205.475a.225.225,0,0,0,.4.021l2.192-3.928a.225.225,0,0,1,.175-.114l4.478-.421a.225.225,0,0,0,.144-.377l-3.058-3.3a.225.225,0,0,1-.055-.2l.984-4.389a.225.225,0,0,0-.314-.253l-1.367.633A17.192,17.192,0,0,1,1664.378,1275.344Z" transform="translate(-172.909 -11.58)"/></g><g transform="matrix(0.839, 0.545, -0.545, 0.839, 141.519, -1648.897)"><path class="b" d="M1488.463,1250.864l3.87,2.292a.225.225,0,0,0,.209.011l4.082-1.889a.225.225,0,0,1,.314.253l-.984,4.389a.225.225,0,0,0,.054.2l3.058,3.3a.225.225,0,0,1-.144.377l-4.478.421a.224.224,0,0,0-.175.114l-2.192,3.927a.225.225,0,0,1-.4-.021l-1.784-4.129a.225.225,0,0,0-.163-.131l-4.413-.871a.225.225,0,0,1-.1-.389l3.376-2.973a.225.225,0,0,0,.075-.2l-.535-4.466A.225.225,0,0,1,1488.463,1250.864Z" transform="translate(0 0)"/><g transform="translate(1485.936 1251.754)"><path class="c" d="M1510.7,1276.929l.39,3.847a.594.594,0,0,1-.223.526l-3.035,2.4,3.513-2.063a.594.594,0,0,0,.278-.644Z" transform="translate(-1507.837 -1276.929)"/></g><path class="d" d="M1664.378,1275.344l.205.475a.225.225,0,0,0,.4.021l2.192-3.928a.225.225,0,0,1,.175-.114l4.478-.421a.225.225,0,0,0,.144-.377l-3.058-3.3a.225.225,0,0,1-.055-.2l.984-4.389a.225.225,0,0,0-.314-.253l-1.367.633A17.192,17.192,0,0,1,1664.378,1275.344Z" transform="translate(-172.909 -11.58)"/></g></g></svg>