<?xml version="1.0" encoding="utf-8"?>
<!-- Generator: Adobe Illustrator 16.0.0, SVG Export Plug-In . SVG Version: 6.00 Build 0)  -->
<!DOCTYPE svg PUBLIC "-//W3C//DTD SVG 1.1//EN" "http://www.w3.org/Graphics/SVG/1.1/DTD/svg11.dtd">
<svg version="1.1" id="Layer_1" xmlns="http://www.w3.org/2000/svg" xmlns:xlink="http://www.w3.org/1999/xlink" x="0px" y="0px"
	 width="612px" height="792px" viewBox="0 0 612 792" enable-background="new 0 0 612 792" xml:space="preserve">
<title>map</title>
<g id="Layer_2">
	<g id="Icons">
		<path id="_1" fill="#0C5AA1" d="M609.492,609.646L545.461,419.14c-6.613-19.721-25.094-33.006-45.894-32.994H405.85
			c25.084-45.48,45.48-91.898,45.48-122.246c0-80.302-65.097-145.399-145.399-145.399S160.532,183.599,160.532,263.9
			c0,30.32,20.397,76.696,45.48,122.246h-93.717c-20.8-0.013-39.28,13.273-45.894,32.994L2.481,609.646
			c-8.518,25.354,5.132,52.813,30.486,61.33c4.966,1.668,10.169,2.521,15.407,2.521h515.168
			c26.747,0.007,48.437-21.67,48.442-48.417c0.001-5.247-0.852-10.46-2.521-15.435H609.492L609.492,609.646z M305.958,198.85
			c35.912-0.008,65.03,29.098,65.037,65.009c0.008,35.911-29.098,65.029-65.009,65.037c-35.906,0.007-65.022-29.09-65.037-64.996
			C240.972,228,270.058,198.895,305.958,198.85z M569.331,629.204c-1.308,1.876-3.461,2.979-5.747,2.949H48.416
			c-3.913-0.005-7.081-3.179-7.078-7.092c0.001-0.761,0.124-1.518,0.366-2.238l64.031-190.509c0.97-2.882,3.671-4.822,6.712-4.823
			h114.61c0.992-0.008,1.982-0.086,2.963-0.233c32.801,53.749,65.464,98.54,68.22,102.262c3.161,4.289,9.201,5.203,13.49,2.042
			c0.778-0.573,1.468-1.263,2.043-2.042c2.756-3.722,35.351-48.375,68.138-102.151c0.759,0.089,1.521,0.135,2.287,0.139h115.354
			c3.047-0.01,5.757,1.935,6.727,4.823l64.029,190.508c0.756,2.155,0.396,4.545-0.965,6.381L569.331,629.204z"/>
	</g>
</g>
</svg>
