<?xml version="1.0" encoding="utf-8"?>
<!-- Generator: Adobe Illustrator 16.0.0, SVG Export Plug-In . SVG Version: 6.00 Build 0)  -->
<!DOCTYPE svg PUBLIC "-//W3C//DTD SVG 1.1//EN" "http://www.w3.org/Graphics/SVG/1.1/DTD/svg11.dtd">
<svg version="1.1" id="Layer_1" xmlns="http://www.w3.org/2000/svg" xmlns:xlink="http://www.w3.org/1999/xlink" x="0px" y="0px"
	 width="612px" height="792px" viewBox="0 0 612 792" enable-background="new 0 0 612 792" xml:space="preserve">
<title>phone</title>
<g id="Layer_2">
	<g id="Icons">
		<g id="_9">
			<path fill="#D4451D" d="M440.588,327.708c10.708,21.964,16.25,46.087,16.202,70.522c0,13.288,10.773,24.063,24.063,24.063
				c13.29,0,24.063-10.773,24.063-24.063c-0.039-72.458-37.379-139.792-98.82-178.198c-32.62-20.328-70.176-31.351-108.607-31.876
				c-13.29-0.177-24.208,10.453-24.385,23.743c-0.177,13.29,10.453,24.207,23.743,24.384c61.424,0.596,117.167,36.059,143.74,91.441
				L440.588,327.708L440.588,327.708z M580.252,260.105C527.699,151.48,418.043,82.103,297.377,81.137h-0.209
				c-13.29-0.053-24.106,10.677-24.16,23.967c-0.053,13.29,10.677,24.106,23.967,24.16C444.69,130.47,563.828,250.51,563.92,398.23
				c0,13.288,10.773,24.063,24.063,24.063s24.063-10.773,24.063-24.063c0.071-47.859-10.793-95.104-31.764-138.125H580.252z
				 M499.19,509.628c-8.56-9.177-20.531-14.403-33.08-14.438c-9.143,0.01-18.063,2.809-25.571,8.021l-51.095,32.887
				c-10.301-4.331-45.017-23.662-122.772-107.002c-78.207-83.854-94.811-119.516-98.211-129.783l36.368-48.769
				c13.797-17.565,12.798-42.549-2.358-58.956l-79.763-85.506c-17.695-18.971-47.417-20.005-66.388-2.311
				c-1.575,1.469-3.048,3.045-4.407,4.717L29.71,135.761C9.754,159.359-0.225,188.492,0,222.438
				c0.225,29.839,8.422,63.576,24.336,100.265c26.791,61.715,76.618,133.312,140.306,201.572
				c33.48,35.887,86.116,87.156,146.724,127.634c58.555,39.143,110.898,58.972,155.499,58.972c28.986,0,54.544-8.471,76.04-25.187
				l28.649-20.149c21.217-14.961,26.286-44.287,11.325-65.502c-1.228-1.741-2.573-3.396-4.024-4.956L499.19,509.628z"/>
		</g>
	</g>
</g>
</svg>
